<svg xmlns="http://www.w3.org/2000/svg" width="16.4" height="17.095"><g data-name="Group 37128" fill="#339892" stroke="#fff" stroke-width=".4"><path data-name="Path 31" d="M13.971 16.895H2.428a.515.515 0 00-.066-.014 2.166 2.166 0 01-.82-.234 2.335 2.335 0 01-1.337-2.192q-.007-5.108 0-10.216a3.105 3.105 0 01.045-.516A2.4 2.4 0 012.14 1.84a8.161 8.161 0 011.273-.043l.019.013v.583c0 .1-.006.211 0 .315a1.194 1.194 0 001.259 1.073A1.192 1.192 0 005.81 2.596v-.798h4.767v.121a8.489 8.489 0 00.022.867 1.172 1.172 0 001.17 1 1.172 1.172 0 001.17-1 8.675 8.675 0 00.022-.875v-.11a.341.341 0 01.041-.006c.326 0 .653-.007.978.013a2.374 2.374 0 012.145 1.839c.037.168.048.341.07.512v10.37c0 .033-.011.067-.012.1a2.373 2.373 0 01-1.656 2.147c-.177.056-.37.08-.556.119zM8.206 5.768H2.598a.8.8 0 00-.8.824v7.884a.943.943 0 00.044.284.8.8 0 00.806.546h11.075a1.007 1.007 0 00.4-.074.789.789 0 00.477-.793v-7.91a.791.791 0 00-.239-.53.847.847 0 00-.629-.23q-2.761.001-5.528-.001z"/><path data-name="Path 32" d="M5.422 1.795v.808a.792.792 0 01-.692.772.8.8 0 01-.881-.595.774.774 0 01-.025-.185v-1.6a.79.79 0 01.7-.782.79.79 0 01.851.532.994.994 0 01.045.283c.006.255 0 .51 0 .766z"/><path data-name="Path 33" d="M10.974 1.793V.985a.8.8 0 011.553-.236.864.864 0 01.043.258q.006.791 0 1.582a.8.8 0 01-1.571.2.973.973 0 01-.027-.227v-.766z"/></g></svg>