<svg xmlns="http://www.w3.org/2000/svg" width="19.63" height="22.435" viewBox="0 0 19.63 22.435">
  <g id="android" transform="translate(-32.004)">
    <path id="Path_421" data-name="Path 421" d="M33.406,192.007a1.4,1.4,0,0,0-1.4,1.4v5.609a1.4,1.4,0,1,0,2.8,0v-5.609A1.4,1.4,0,0,0,33.406,192.007Z" transform="translate(0 -183.594)" fill="#07979d"/>
    <path id="Path_422" data-name="Path 422" d="M417.406,192.007a1.4,1.4,0,0,0-1.4,1.4v5.609a1.4,1.4,0,1,0,2.8,0v-5.609A1.4,1.4,0,0,0,417.406,192.007Z" transform="translate(-367.174 -183.594)" fill="#07979d"/>
    <path id="Path_423" data-name="Path 423" d="M128,202.276a1.4,1.4,0,0,0,1.4,1.4V206.4a1.4,1.4,0,1,0,2.8,0v-2.723h2.8V206.4a1.4,1.4,0,0,0,2.8,0v-2.723a1.4,1.4,0,0,0,1.4-1.4v-8.413H128Z" transform="translate(-91.793 -185.368)" fill="#07979d"/>
    <path id="Path_424" data-name="Path 424" d="M137.113,2.66l1.248-1.513a.7.7,0,0,0-1.081-.893l-1.364,1.653a5.485,5.485,0,0,0-4.633.017L129.954.264a.7.7,0,1,0-1.1.876l1.231,1.54A5.57,5.57,0,0,0,128,7.011h11.217A5.574,5.574,0,0,0,137.113,2.66Zm-4.9,2.248a.7.7,0,1,1,.7-.7A.7.7,0,0,1,132.211,4.908Zm2.8,0a.7.7,0,1,1,.7-.7A.7.7,0,0,1,135.015,4.908Z" transform="translate(-91.793 0)" fill="#07979d"/>
  </g>
</svg>
