<svg id="app" xmlns="http://www.w3.org/2000/svg" width="20.201" height="22.983" viewBox="0 0 20.201 22.983">
  <path id="Path_332" data-name="Path 332" d="M90,180.352h1.347V181.7H90Zm0,0" transform="translate(-85.96 -172.256)" fill="#07979d"/>
  <path id="Path_333" data-name="Path 333" d="M90,300.586h1.347v1.349H90Zm0,0" transform="translate(-85.96 -287.093)" fill="#07979d"/>
  <path id="Path_334" data-name="Path 334" d="M210,180.352h1.347V181.7H210Zm0,0" transform="translate(-200.573 -172.256)" fill="#07979d"/>
  <path id="Path_335" data-name="Path 335" d="M8.448,423.721c-1.473-2.556-1.479-2.51-1.568-2.9H0v1.619a2.474,2.474,0,0,0,2.469,2.474h8.469a1.987,1.987,0,0,1-.08-.292,2.022,2.022,0,0,1-2.411-.9Zm0,0" transform="translate(0 -401.93)" fill="#07979d"/>
  <path id="Path_336" data-name="Path 336" d="M7.527,131.748a2.027,2.027,0,0,1-.426-2.542l1.347-2.337a2.021,2.021,0,0,1,2.411-.9,2.038,2.038,0,0,1,.1-.337h-2.2a.674.674,0,0,1-.673-.675v-2.7a.674.674,0,0,1,.673-.675h2.693a.674.674,0,0,1,.673.675v2.2c.448-.173.579-.134,2.693-.134v-4.093H0v12.144H7.041a1.988,1.988,0,0,1,.486-.63Zm-.794-1.394a.674.674,0,0,1-.673.675H3.367a.674.674,0,0,1-.673-.675v-2.7a.674.674,0,0,1,.673-.675H6.06a.674.674,0,0,1,.673.675Zm0-5.4a.674.674,0,0,1-.673.675H3.367a.674.674,0,0,1-.673-.675v-2.7a.674.674,0,0,1,.673-.675H6.06a.674.674,0,0,1,.673.675Zm0,0" transform="translate(0 -114.837)" fill="#07979d"/>
  <path id="Path_337" data-name="Path 337" d="M14.814,2.474A2.474,2.474,0,0,0,12.345,0H2.469A2.474,2.474,0,0,0,0,2.474V4.048H14.814Zm0,0" fill="#07979d"/>
  <path id="Path_338" data-name="Path 338" d="M193.84,248.491l-.625-.362a.675.675,0,0,1,0-1.169l.625-.362a.675.675,0,0,0,.247-.921l-1.347-2.337a.673.673,0,0,0-.92-.247l-.625.362a.673.673,0,0,1-1.01-.584v-.723a.674.674,0,0,0-.673-.675h-2.693a.674.674,0,0,0-.673.675v.723a.673.673,0,0,1-1.01.584l-.625-.362a.673.673,0,0,0-.92.247l-1.347,2.337a.675.675,0,0,0,.247.921l.625.362a.675.675,0,0,1,0,1.169l-.625.362a.675.675,0,0,0-.247.922l1.347,2.337a.673.673,0,0,0,.92.247l.625-.362a.673.673,0,0,1,1.01.584v.723a.674.674,0,0,0,.673.675h2.693a.674.674,0,0,0,.673-.675v-.723a.673.673,0,0,1,1.01-.584l.625.362a.673.673,0,0,0,.92-.247l1.347-2.337A.675.675,0,0,0,193.84,248.491Zm-5.675,1.086a2.02,2.02,0,1,1,2.02-2.02A2.022,2.022,0,0,1,188.165,249.577Zm0,0" transform="translate(-173.976 -230.633)" fill="#07979d"/>
  <path id="Path_339" data-name="Path 339" d="M301.751,362a.673.673,0,1,0,.673.673A.674.674,0,0,0,301.751,362Zm0,0" transform="translate(-287.563 -345.75)" fill="#07979d"/>
</svg>
