<svg id="award" xmlns="http://www.w3.org/2000/svg" width="22.191" height="22.191" viewBox="0 0 22.191 22.191">
  <circle id="Ellipse_55" data-name="Ellipse 55" cx="3.5" cy="3.5" r="3.5" transform="translate(14 11.191)" fill="#07979d"/>
  <path id="Path_492" data-name="Path 492" d="M23.506,21.389,22.339,19.4a4.6,4.6,0,0,1-3.367,1.477c-.089,0-.171-.021-.259-.026l1.442,2.459a.7.7,0,0,0,.6.341h.022a.7.7,0,0,0,.6-.381l.456-.905,1.036.065A.651.651,0,0,0,23.5,22.1.7.7,0,0,0,23.506,21.389Z" transform="translate(-1.41 -1.463)" fill="#07979d"/>
  <path id="Path_493" data-name="Path 493" d="M18.617,20.88a4.6,4.6,0,0,1-3.359-1.467L14.1,21.389a.693.693,0,0,0,.642,1.042l1.034-.065.452.9a.7.7,0,0,0,.6.383h.023a.693.693,0,0,0,.6-.341l1.45-2.46C18.8,20.858,18.711,20.88,18.617,20.88Z" transform="translate(-1.055 -1.463)" fill="#07979d"/>
  <path id="Path_494" data-name="Path 494" d="M9.759,14.1H4.175a.925.925,0,1,1,0-1.849H9.759a.925.925,0,1,1,0,1.849Z" transform="translate(-0.245 -0.923)" fill="#07979d"/>
  <path id="Path_495" data-name="Path 495" d="M8.835,18.1H4.175a.925.925,0,1,1,0-1.849h4.66a.925.925,0,1,1,0,1.849Z" transform="translate(-0.245 -1.225)" fill="#07979d"/>
  <path id="Path_496" data-name="Path 496" d="M10.726,22.191H2.774A2.777,2.777,0,0,1,0,19.417V2.774A2.777,2.777,0,0,1,2.774,0H15.719a2.777,2.777,0,0,1,2.774,2.774V9.357a.925.925,0,1,1-1.849,0V2.774a.926.926,0,0,0-.925-.925H2.774a.926.926,0,0,0-.925.925V19.417a.926.926,0,0,0,.925.925h7.952a.925.925,0,1,1,0,1.849Z" fill="#07979d"/>
  <path id="Path_497" data-name="Path 497" d="M11.005,6.467a.693.693,0,0,0,0-1.387H9.387V4.618a.231.231,0,0,1,.231-.231h1.387a.693.693,0,0,0,0-1.387H9.618A1.62,1.62,0,0,0,8,4.618V6.93A1.62,1.62,0,0,0,9.618,8.548h1.387a.693.693,0,0,0,0-1.387H9.618a.231.231,0,0,1-.231-.231V6.467Z" transform="translate(-0.603 -0.226)" fill="#07979d"/>
  <path id="Path_498" data-name="Path 498" d="M15.08,8.548h-.462A1.62,1.62,0,0,1,13,6.93V4.618A1.62,1.62,0,0,1,14.618,3h.462A1.62,1.62,0,0,1,16.7,4.618V6.93A1.62,1.62,0,0,1,15.08,8.548Zm-.462-4.161a.231.231,0,0,0-.231.231V6.93a.231.231,0,0,0,.231.231h.462a.231.231,0,0,0,.231-.231V4.618a.231.231,0,0,0-.231-.231Z" transform="translate(-0.98 -0.226)" fill="#07979d"/>
  <path id="Path_499" data-name="Path 499" d="M5.042,8.548H3.693a.693.693,0,0,1,0-1.387H5.042a.358.358,0,0,0,0-.693H4.657A1.7,1.7,0,0,1,3,4.734,1.7,1.7,0,0,1,4.657,3H6.005a.693.693,0,0,1,0,1.387H4.657a.32.32,0,0,0-.27.347.32.32,0,0,0,.27.347h.386A1.7,1.7,0,0,1,6.7,6.814,1.7,1.7,0,0,1,5.042,8.548Z" transform="translate(-0.226 -0.226)" fill="#07979d"/>
</svg>
