<svg xmlns="http://www.w3.org/2000/svg" width="1920" height="618"><defs><clipPath id="a"><path data-name="Rectangle 184" transform="translate(0 5991)" fill="none" stroke="#707070" d="M0 0h1920v618H0z"/></clipPath></defs><g data-name="Mask Group 16" transform="translate(0 -5991)" clip-path="url(#a)"><path data-name="Path 92" d="M2034.205 6285.086s-220.97-88.912-393.556 14.1c-95.267 56.862-148.943 109.482-148.943 109.482s-44.84 37.084-124.409 52.83c-177.608 35.147-278 .172-449.46 76.772s-98.35 204.1-98.35 204.1L2034.205 6629z" fill="#62b796" opacity=".13"/><path data-name="Path 95" d="M1716.686 6126.321c-31.86-26.733 14.52-43.538 43.98-63.32s25.086-83.691 56.945-56.958 35.09 75.327 7.22 108.54-76.29 38.468-108.145 11.738z" fill="#59ea8f" opacity=".08"/><path data-name="Path 103" d="M0 6214.522s55.174 148.326 167.31 223.673c63.757 42.84 172.9 26.045 233.5 34.866 166.934 24.3 78.973 146.783 241.459 203.921s166.057 8.927 237.479 101.776 32.14 41.068 32.14 41.068" fill="none" stroke="#fff" stroke-dasharray="6" opacity=".13"/></g></svg>