<svg xmlns="http://www.w3.org/2000/svg" width="466" height="199"><defs><clipPath id="a"><path data-name="Rectangle 185" transform="translate(112)" fill="#fff" stroke="#707070" d="M0 0h466v199H0z"/></clipPath></defs><g data-name="Mask Group 17" transform="translate(-112)" clip-path="url(#a)"><path data-name="Path 261" d="M111.661 55.574c-.721 29.331 8.1 59.367 22.646 84.294 23.26 39.844 77.346 67.2 119.326 57.228a115.358 115.358 0 0059.265-35.883c10.225-11.536 18.431-25.189 29.531-35.723 52.72-50.032 162.713-12.722 200.088-83.143 17.593-33.148 11.356-85.231-7.626-115.718-11.417-18.339-27.463-33.455-45.065-45.979-11.437-8.137-23.82-15.354-37.465-18.649-20.849-5.035-42.684-.551-64.128-.974-38.326-.753-76.13-16.191-114.572-8.382-32.7 6.642-62.8 27.434-78.838 56.934-9.192 16.909-14.477 37.156-28.223 51.218-7.045 7.207-16.045 9.616-23.1 16.869a113.261 113.261 0 00-18.979 26.275c-8.422 16.065-12.42 33.717-12.86 51.633z" fill="#58aa82" opacity=".1"/></g></svg>