<svg xmlns="http://www.w3.org/2000/svg" width="1465.998" height="1335.815"><path data-name="Path 296" d="M745.472 1006.225c96.308-35.2 231.87 1.361 324.798-6.66 85.915-7.418 172.172-42.13 227.775-108.043 26.095-30.933 44.755-67.804 56.376-106.569 26.25-87.557 13.056-190.973-50.698-256.476-79.646-81.83-207.393-83.63-318.026-111.912A610.867 610.867 0 01759.89 305.07c-31.692-24.954-61.486-53.43-98.262-70-51.334-23.129-112.276-20.125-164.19 1.666s-95.233 61.049-128.254 106.651c-49.913 68.93-79.3 154.142-143.869 209.58-37.125 31.876-86.412 54.915-104.434 100.41-6.652 16.79-8.227 35.29-6.607 53.274 7.192 79.896 71.88 140.153 122.807 202.129a711.243 711.243 0 01107.15 178.445c25.205 60.679 44.612 128.632 96.417 169.04 83.652 65.243 135.705-48.679 166.26-107.626a398.704 398.704 0 0184.297-110.086c15.898-14.581 34.232-25.012 54.267-32.329z" fill="#58aa82" opacity=".05"/></svg>