<svg id="cloud-data" xmlns="http://www.w3.org/2000/svg" width="20.533" height="20.533" viewBox="0 0 20.533 20.533">
  <path id="Path_305" data-name="Path 305" d="M0,392H6.016v4.812H0Z" transform="translate(0 -376.279)" fill="#07979d"/>
  <path id="Path_306" data-name="Path 306" d="M181,392h6.016v4.812H181Z" transform="translate(-173.741 -376.279)" fill="#07979d"/>
  <path id="Path_307" data-name="Path 307" d="M362,392h6.016v4.812H362Z" transform="translate(-347.482 -376.279)" fill="#07979d"/>
  <path id="Path_308" data-name="Path 308" d="M61.2,13.314h6.056v1.2h1.2v-1.2h6.056v1.2h1.2V12.111H68.462V9.776H72.2a3.477,3.477,0,0,0,.976-6.814A4,4,0,0,0,69.337,0a3.951,3.951,0,0,0-3.1,1.481,3.371,3.371,0,0,0-3.626,2.3,3.012,3.012,0,0,0,.436,5.992h4.207v2.335H60v2.406h1.2Z" transform="translate(-57.594)" fill="#07979d"/>
</svg>
