<svg xmlns="http://www.w3.org/2000/svg" width="23.184" height="23.166" viewBox="0 0 23.184 23.166">
  <g id="css_1_" data-name="css (1)" transform="translate(0 -0.204)">
    <path id="Path_478" data-name="Path 478" d="M0,148.441a.679.679,0,0,0,.679.679H22.505a.679.679,0,0,0,.679-.679V131.919H0ZM14.827,135.2h.407a2.552,2.552,0,0,1,2.314,1.469,8.541,8.541,0,0,1,.693,2.674,3.149,3.149,0,0,0,.407.313,4.419,4.419,0,0,1,.526.4.679.679,0,0,1-.043,1.03l-.3.236c-.175.14-.38.3-.571.456a9.138,9.138,0,0,1-.736,2.6,2.556,2.556,0,0,1-2.311,1.462h-.391a.679.679,0,0,1,0-1.358h.391a1.193,1.193,0,0,0,1.081-.678,8.089,8.089,0,0,0,.655-2.474.679.679,0,0,1,.257-.454c.118-.092.253-.2.389-.306A2.524,2.524,0,0,1,17.03,140a.68.68,0,0,1-.12-.326,7.433,7.433,0,0,0-.6-2.444,1.19,1.19,0,0,0-1.081-.68h-.407a.679.679,0,1,1,0-1.358Zm-.52,4.645a.679.679,0,1,1-.679.679A.691.691,0,0,1,14.307,139.84Zm-2.719,0a.679.679,0,1,1-.679.679.691.691,0,0,1,.679-.679Zm-2.036.679a.679.679,0,1,1-.679-.679A.687.687,0,0,1,9.553,140.52Zm-5.543-.464a4.421,4.421,0,0,1,.526-.4,3.149,3.149,0,0,0,.407-.313,8.541,8.541,0,0,1,.693-2.674A2.552,2.552,0,0,1,7.951,135.2h.407a.679.679,0,0,1,0,1.358H7.951a1.19,1.19,0,0,0-1.081.68,7.435,7.435,0,0,0-.6,2.444.68.68,0,0,1-.12.326,2.523,2.523,0,0,1-.569.568c.135.108.27.214.389.306a.679.679,0,0,1,.257.454,8.091,8.091,0,0,0,.655,2.474,1.193,1.193,0,0,0,1.081.678h.391a.679.679,0,0,1,0,1.358H7.967a2.556,2.556,0,0,1-2.311-1.462,9.138,9.138,0,0,1-.736-2.6c-.191-.151-.4-.316-.571-.456l-.3-.236a.679.679,0,0,1-.043-1.03Z" transform="translate(0 -125.751)" fill="#07979d"/>
    <path id="Path_479" data-name="Path 479" d="M22.505.2H.679A.679.679,0,0,0,0,.883V4.81H23.184V.883A.679.679,0,0,0,22.505.2ZM17.6,3.186a.679.679,0,1,1,.679-.679A.691.691,0,0,1,17.6,3.186Zm2.557,0a.679.679,0,1,1,.679-.679A.691.691,0,0,1,20.161,3.186Z" transform="translate(0)" fill="#07979d"/>
  </g>
</svg>
