<svg xmlns="http://www.w3.org/2000/svg" width="13.982" height="19.736" viewBox="0 0 13.982 19.736">
  <g id="css" transform="translate(-74.641 0.001)">
    <path id="Path_340" data-name="Path 340" d="M88.515,106.8a.411.411,0,0,0-.3-.135H75.054a.411.411,0,0,0-.413.409.4.4,0,0,0,0,.04l1.233,13.157a.411.411,0,0,0,.3.357l5.756,1.645a.41.41,0,0,0,.114.016.423.423,0,0,0,.13-.021l4.934-1.645a.411.411,0,0,0,.28-.352l1.233-13.157A.411.411,0,0,0,88.515,106.8Z" transform="translate(0 -102.555)" fill="#07979d"/>
    <g id="Group_4263" data-name="Group 4263" transform="translate(77.521 7.401)">
      <path id="Path_341" data-name="Path 341" d="M153.876,201.064a.412.412,0,0,1-.113-.016l-2.878-.822a.411.411,0,0,1-.286-.3l-.411-1.645a.411.411,0,1,1,.793-.217l0,.018.354,1.414,2.537.725,2.5-.715.74-6.67h-7.352a.411.411,0,0,1,0-.822h7.812a.411.411,0,0,1,.411.456l-.822,7.4a.411.411,0,0,1-.3.35l-2.878.822A.407.407,0,0,1,153.876,201.064Z" transform="translate(-149.353 -192.019)" fill="#fafafa"/>
      <path id="Path_342" data-name="Path 342" d="M167.423,278.155h-6.99a.411.411,0,0,1,0-.822h6.99a.411.411,0,0,1,0,.822Z" transform="translate(-159.611 -274.044)" fill="#fafafa"/>
    </g>
    <g id="Group_4264" data-name="Group 4264" transform="translate(77.11 -0.001)">
      <path id="Path_343" data-name="Path 343" d="M140.744,2.467H139.1a.411.411,0,0,1-.411-.411V.411A.411.411,0,0,1,139.1,0h1.645a.411.411,0,1,1,0,.822H139.51v.822h1.234a.411.411,0,1,1,0,.822Z" transform="translate(-138.688 0)" fill="#07979d"/>
      <path id="Path_344" data-name="Path 344" d="M226.059,2.466h-1.645a.411.411,0,1,1,0-.822h.652L224.123.7a.411.411,0,0,1,.291-.7h1.645a.411.411,0,1,1,0,.822h-.652l.942.942a.411.411,0,0,1-.29.7Z" transform="translate(-220.714 0.001)" fill="#07979d"/>
      <path id="Path_345" data-name="Path 345" d="M311.393,2.467h-1.645a.411.411,0,1,1,0-.822h.652L309.457.7a.411.411,0,0,1,.291-.7h1.645a.411.411,0,0,1,0,.822h-.652l.942.942a.411.411,0,0,1-.29.7Z" transform="translate(-302.758 0)" fill="#07979d"/>
    </g>
  </g>
</svg>
