<svg xmlns="http://www.w3.org/2000/svg" width="22.936" height="22.937" viewBox="0 0 22.936 22.937">
  <g id="digital-marketing" transform="translate(0.099 0.1)">
    <g id="Group_4279" data-name="Group 4279" transform="translate(10.405 19.088)">
      <g id="Group_4278" data-name="Group 4278">
        <path id="Path_371" data-name="Path 371" d="M235.059,429.989a.444.444,0,1,0,.13.314A.448.448,0,0,0,235.059,429.989Z" transform="translate(-234.301 -429.859)" fill="#07979d" stroke="#07979d" stroke-width="0.2"/>
      </g>
    </g>
    <g id="Group_4281" data-name="Group 4281" transform="translate(0.001 11.41)">
      <g id="Group_4280" data-name="Group 4280" transform="translate(0)">
        <path id="Path_372" data-name="Path 372" d="M13.278,260.669V257.4a.444.444,0,0,0-.61-.412l-7.652,3.082H2.551a2.55,2.55,0,0,0,0,5.1h.293v2.667a.444.444,0,0,0,.444.444H5.1a.444.444,0,0,0,.444-.444v-2.452l7.122,2.864a.444.444,0,0,0,.61-.412v-3.267a2,2,0,0,0,0-3.9Zm-8.62,6.726H3.733v-2.223h.925v2.223Zm0-3.111H2.551a1.662,1.662,0,1,1,0-3.325H4.658Zm7.732,2.9h0l-6.843-2.752v-3.614l4.859-1.957v4.407a.444.444,0,1,0,.888,0V258.5l1.1-.441Zm.888-3.541V261.6a1.113,1.113,0,0,1,0,2.041Z" transform="translate(-0.001 -256.958)" fill="#07979d" stroke="#07979d" stroke-width="0.2"/>
      </g>
    </g>
    <g id="Group_4283" data-name="Group 4283" transform="translate(16.113 16.642)">
      <g id="Group_4282" data-name="Group 4282">
        <path id="Path_373" data-name="Path 373" d="M365.793,374.775h-2.514a.444.444,0,0,0,0,.888h2.514a.444.444,0,1,0,0-.888Z" transform="translate(-362.835 -374.775)" fill="#07979d" stroke="#07979d" stroke-width="0.2"/>
      </g>
    </g>
    <g id="Group_4285" data-name="Group 4285" transform="translate(15.384 13.258)">
      <g id="Group_4284" data-name="Group 4284">
        <path id="Path_374" data-name="Path 374" d="M348.044,298.7a.444.444,0,0,0-.628,0l-.867.867a.444.444,0,1,0,.628.628l.867-.867A.444.444,0,0,0,348.044,298.7Z" transform="translate(-346.418 -298.57)" fill="#07979d" stroke="#07979d" stroke-width="0.2"/>
      </g>
    </g>
    <g id="Group_4287" data-name="Group 4287" transform="translate(15.388 19.088)">
      <g id="Group_4286" data-name="Group 4286">
        <path id="Path_375" data-name="Path 375" d="M348.154,430.89l-.9-.9a.444.444,0,1,0-.628.628l.9.9a.444.444,0,0,0,.628-.628Z" transform="translate(-346.499 -429.864)" fill="#07979d" stroke="#07979d" stroke-width="0.2"/>
      </g>
    </g>
    <g id="Group_4289" data-name="Group 4289" transform="translate(2.399)">
      <g id="Group_4288" data-name="Group 4288">
        <path id="Path_376" data-name="Path 376" d="M72.563,0H64.3a1.778,1.778,0,0,0-1.776,1.776v.178h-7.46A1.067,1.067,0,0,0,54,3.02v7.016A1.067,1.067,0,0,0,55.067,11.1h.459v1.362a.444.444,0,0,0,.758.314L57.959,11.1H66.78a1.067,1.067,0,0,0,1.066-1.066V8.7h4.717a1.778,1.778,0,0,0,1.776-1.776V1.776A1.778,1.778,0,0,0,72.563,0Zm-5.6,10.036a.178.178,0,0,1-.178.178h-9a.444.444,0,0,0-.314.13l-1.048,1.048v-.734a.444.444,0,0,0-.444-.444h-.9a.178.178,0,0,1-.178-.178V3.02a.178.178,0,0,1,.178-.178h7.46V6.927A1.778,1.778,0,0,0,64.3,8.7h2.655Zm6.493-3.108a.889.889,0,0,1-.888.888H64.3a.889.889,0,0,1-.888-.888V1.776A.889.889,0,0,1,64.3.888h8.259a.889.889,0,0,1,.888.888Z" transform="translate(-54.001)" fill="#07979d" stroke="#07979d" stroke-width="0.2"/>
      </g>
    </g>
    <g id="Group_4291" data-name="Group 4291" transform="translate(14.91 2.153)">
      <g id="Group_4290" data-name="Group 4290">
        <path id="Path_377" data-name="Path 377" d="M339.441,50.3,336.4,48.545a.444.444,0,0,0-.666.385v3.509a.444.444,0,0,0,.666.385l3.039-1.755a.444.444,0,0,0,0-.769Zm-2.817,1.37V49.7l1.707.985Z" transform="translate(-335.736 -48.486)" fill="#07979d" stroke="#07979d" stroke-width="0.2"/>
      </g>
    </g>
    <g id="Group_4293" data-name="Group 4293" transform="translate(4.642 4.663)">
      <g id="Group_4292" data-name="Group 4292">
        <path id="Path_378" data-name="Path 378" d="M109.4,105h-4.441a.444.444,0,1,0,0,.888H109.4a.444.444,0,1,0,0-.888Z" transform="translate(-104.512 -105)" fill="#07979d" stroke="#07979d" stroke-width="0.2"/>
      </g>
    </g>
    <g id="Group_4295" data-name="Group 4295" transform="translate(9.082 7.149)">
      <g id="Group_4294" data-name="Group 4294">
        <path id="Path_379" data-name="Path 379" d="M205.269,161.13a.444.444,0,1,0,.13.314A.447.447,0,0,0,205.269,161.13Z" transform="translate(-204.511 -161)" fill="#07979d" stroke="#07979d" stroke-width="0.2"/>
      </g>
    </g>
    <g id="Group_4297" data-name="Group 4297" transform="translate(4.642 7.149)">
      <g id="Group_4296" data-name="Group 4296">
        <path id="Path_380" data-name="Path 380" d="M107.731,161h-2.775a.444.444,0,1,0,0,.888h2.775a.444.444,0,0,0,0-.888Z" transform="translate(-104.512 -161)" fill="#07979d" stroke="#07979d" stroke-width="0.2"/>
      </g>
    </g>
  </g>
</svg>
