<svg xmlns="http://www.w3.org/2000/svg" width="20.533" height="16.777" viewBox="0 0 20.533 16.777">
  <g id="digital-photography" transform="translate(0 -55.969)">
    <g id="Group_4265" data-name="Group 4265" transform="translate(0 55.969)">
      <path id="Path_346" data-name="Path 346" d="M18.8,58.843H16.076L15.581,57.2a1.731,1.731,0,0,0-1.657-1.232H10.259A1.731,1.731,0,0,0,8.6,57.2l-.494,1.642H1.731A1.731,1.731,0,0,0,0,60.573V71.016a1.731,1.731,0,0,0,1.731,1.731H18.8a1.731,1.731,0,0,0,1.731-1.731V60.573A1.731,1.731,0,0,0,18.8,58.843ZM12.08,70.319A4.615,4.615,0,1,1,16.7,65.7,4.615,4.615,0,0,1,12.08,70.319Z" transform="translate(0 -55.969)" fill="#07979d"/>
      <path id="Path_347" data-name="Path 347" d="M276.947,260.147a2.885,2.885,0,1,0,2.885,2.885A2.885,2.885,0,0,0,276.947,260.147Zm2.009,2.772c-.272.272-.949.035-1.512-.528s-.8-1.24-.528-1.512.949-.035,1.512.528S279.227,262.647,278.956,262.919Z" transform="translate(-264.867 -253.297)" fill="#07979d"/>
      <path id="Path_348" data-name="Path 348" d="M77.545,92.531a.764.764,0,0,0-.764-.764H75.136a.764.764,0,0,0-.764.764v.385h3.173v-.385Z" transform="translate(-71.877 -90.566)" fill="#07979d"/>
    </g>
  </g>
</svg>
