<svg xmlns="http://www.w3.org/2000/svg" width="18.468" height="17.066" viewBox="0 0 18.468 17.066">
  <g id="document" transform="translate(0 -19.5)">
    <path id="Path_299" data-name="Path 299" d="M17.929,394.5H.539a.539.539,0,0,0-.539.539,3.057,3.057,0,0,0,3.054,3.054h12.36a3.057,3.057,0,0,0,3.054-3.054A.539.539,0,0,0,17.929,394.5Z" transform="translate(0 -361.527)" fill="#07979d"/>
    <path id="Path_300" data-name="Path 300" d="M352,55.713v1.034h1.034Z" transform="translate(-339.354 -34.912)" fill="#07979d"/>
    <path id="Path_301" data-name="Path 301" d="M360.326,20.039a.539.539,0,0,0-.539-.539h-1.573l2.112,2.112Z" transform="translate(-345.344)" fill="#07979d"/>
    <path id="Path_302" data-name="Path 302" d="M106.569,22.913h-2.874a.539.539,0,0,1-.539-.539V19.5H95.539a.539.539,0,0,0-.539.539V31.9h11.569Zm-8.875-2.3H101a.539.539,0,1,1,0,1.078H97.695a.539.539,0,1,1,0-1.078Zm0,2.156H101a.539.539,0,1,1,0,1.078H97.695a.539.539,0,1,1,0-1.078Zm6.18,8.084h-6.18a.539.539,0,1,1,0-1.078h6.18a.539.539,0,0,1,0,1.078Zm0-2.156h-6.18a.539.539,0,1,1,0-1.078h6.18a.539.539,0,0,1,0,1.078Zm0-2.156h-6.18a.539.539,0,1,1,0-1.078h6.18a.539.539,0,0,1,0,1.078Z" transform="translate(-91.587)" fill="#07979d"/>
    <path id="Path_303" data-name="Path 303" d="M448.151,70.813a.539.539,0,0,0-.539-.539H447V80.845h1.15Z" transform="translate(-430.941 -48.95)" fill="#07979d"/>
    <path id="Path_304" data-name="Path 304" d="M36.078,70.274h-.539a.539.539,0,0,0-.539.539V80.845h1.078Z" transform="translate(-33.742 -48.95)" fill="#07979d"/>
  </g>
</svg>
