<svg xmlns="http://www.w3.org/2000/svg" width="18.691" height="21" viewBox="0 0 18.691 21">
  <g id="XMLID_2_" transform="translate(-25.274)">
    <g id="Group_4262" data-name="Group 4262" transform="translate(25.274)">
      <g id="Group_4261" data-name="Group 4261" transform="translate(0)">
        <path id="Path_297" data-name="Path 297" d="M40.547,281.087a4.567,4.567,0,0,1-3.7,1.886H34.72a1.7,1.7,0,0,1-1.6-1.121,5.4,5.4,0,0,1-.86-.34,5.792,5.792,0,0,1-1.607-1.189,6.86,6.86,0,0,0-5.38,6.7v.429a1.067,1.067,0,0,0,1.067,1.067H42.9a1.067,1.067,0,0,0,1.067-1.067v-.429A6.855,6.855,0,0,0,40.547,281.087Z" transform="translate(-25.274 -267.516)" fill="#07979d"/>
        <path id="Path_298" data-name="Path 298" d="M92.823,10.607a1.215,1.215,0,0,0,1.065-.629l.017.044,0,.013a4.742,4.742,0,0,0,2.674,2.815,1.7,1.7,0,0,1,1.44-.8h2.13a1.192,1.192,0,0,0,.583-.157,2.407,2.407,0,0,0,.688-.795,6.141,6.141,0,0,0,.533-1.126,1.221,1.221,0,0,0,.336.387v.522a2.143,2.143,0,0,1-2.14,2.14h-2.13a.729.729,0,0,0,0,1.458h2.13a3.6,3.6,0,0,0,3.6-3.6v-.522a1.213,1.213,0,0,0,.486-.972V6.351a1.213,1.213,0,0,0-.5-.985,5.829,5.829,0,0,0-11.621,0,1.213,1.213,0,0,0-.5.985V9.392A1.216,1.216,0,0,0,92.823,10.607Zm5.1-9.149A4.377,4.377,0,0,1,102.272,5.4a1.22,1.22,0,0,0-.341.422,4.16,4.16,0,0,0-8.013-.007l0,.007a1.219,1.219,0,0,0-.341-.422A4.377,4.377,0,0,1,97.923,1.458Z" transform="translate(-88.578)" fill="#07979d"/>
      </g>
    </g>
  </g>
</svg>
