<svg xmlns="http://www.w3.org/2000/svg" width="74" height="74"><defs><filter id="a" x="0" y="0" width="74" height="74" filterUnits="userSpaceOnUse"><feOffset dy="3"/><feGaussianBlur stdDeviation="3" result="blur"/><feFlood flood-opacity=".161"/><feComposite operator="in" in2="blur"/><feComposite in="SourceGraphic"/></filter></defs><g data-name="Group 3717"><g transform="translate(0 -.003)" filter="url(#a)"><circle data-name="Ellipse 51" cx="28" cy="28" r="28" transform="translate(9 6)" fill="#fff"/></g><g data-name="Group 3714"><g data-name="Group 3713"><path data-name="Path 4714" d="M24.473 33.297a2.393 2.393 0 01.625-3.827 2.4 2.4 0 011.072-3.211 2.414 2.414 0 01-.197-1.608 2.462 2.462 0 012.426-1.87h9.826a6.978 6.978 0 012.833.7 2.682 2.682 0 012.515-1.77h3.211a2.678 2.678 0 012.676 2.676v8.564a2.678 2.678 0 01-2.676 2.676h-5.348a.535.535 0 01-.535-.535v-.2l-.128.059-3.084 6.68v3.63a.538.538 0 01-.2.419 3.371 3.371 0 01-1.941.652c-1.239 0-3.211-1.96-3.211-4.282a15.39 15.39 0 01.852-4.282h-6.616a2.769 2.769 0 01-2.789-2.43 2.658 2.658 0 01.689-2.041zm1.144.431a1.6 1.6 0 00-.762 1.515 1.69 1.69 0 001.718 1.454h7.37a.534.534 0 01.5.726 16.667 16.667 0 00-1.035 4.626c0 1.753 1.554 3.211 2.141 3.211a2.265 2.265 0 001.07-.29v-3.456a.529.529 0 01.05-.225l3.211-6.958a.534.534 0 01.246-.254l1.07-.535a.534.534 0 01.774.478v.535h4.817a1.608 1.608 0 001.606-1.606v-8.562a1.608 1.608 0 00-1.606-1.606h-3.214a1.608 1.608 0 00-1.6 1.606.535.535 0 01-.331.495.541.541 0 01-.583-.116 5.074 5.074 0 00-2.832-.914h-9.828a1.384 1.384 0 00-1.38 1.032 1.323 1.323 0 00.388 1.276.535.535 0 01-.306.922 1.327 1.327 0 00-.764 2.29.535.535 0 01-.306.922 1.325 1.325 0 00-.453 2.5.536.536 0 01.036.932z" fill="#1e8991" stroke="#1e8991"/></g></g><g data-name="Group 3716"><g data-name="Group 3715"><path data-name="Path 4715" d="M41.436 23.852a.535.535 0 01.535.535v9.634a.535.535 0 01-1.07 0v-9.634a.535.535 0 01.535-.535z" fill="#1e8991" stroke="#1e8991"/></g></g></g></svg>