<svg xmlns="http://www.w3.org/2000/svg" width="137.624" height="138.623"><g data-name="Component 7 – 1"><path d="M86.246 14.694C57.878-10.85 58.727 20.187 50.26 43.104s-62.327 23.728-33.96 49.27 67.02 28.863 86.337 7.409 11.975-59.547-16.392-85.09z" fill="#fff" opacity=".5"/><path data-name="Path 18" d="M60.68 73.914l2.4-15.368h10.567l2.4 15.368-7.684 15.368zm7.684-7.684a3.362 3.362 0 103.362 3.362 3.362 3.362 0 00-3.362-3.362z" fill="#086ff6"/><path data-name="Path 19" d="M61.913 41.256l1.289 17.289h10.446l1.517-17.289z" fill="#086ff6"/><path data-name="Path 20" d="M65.002 69.592a3.362 3.362 0 013.362-3.362v-7.683h-5.283l-2.4 15.368 7.684 15.368V72.954a3.362 3.362 0 01-3.363-3.362z" fill="#59ea8f"/><path data-name="Path 21" d="M61.913 41.256l1.289 17.289h5.163V41.256z" fill="#59ea8f"/><path data-name="Path 22" d="M81.327 94.025H55.398a.9.9 0 110-1.8h25.929a.9.9 0 110 1.8z" fill="#687f82"/><g data-name="Group 13" fill="#59ea8f"><path data-name="Rectangle 15" d="M50.595 90.723h4.803v4.803h-4.803z"/><path data-name="Rectangle 16" d="M81.332 90.723h4.803v4.803h-4.803z"/></g><path data-name="Path 23" d="M68.364 92.104a23.018 23.018 0 01-22.992-22.992.9.9 0 111.8 0 21.192 21.192 0 0042.383 0 .9.9 0 111.8 0 23.019 23.019 0 01-22.991 22.992z" fill="#404143"/><path data-name="Path 24" d="M67.559 89.685a.9.9 0 001.611 0l7.684-15.368a.9.9 0 00.084-.542l-2.384-15.26 1.507-17.18a.9.9 0 00-.893-.979H61.912a.9.9 0 00-.9.967l1.256 16.833a.9.9 0 00-.078.249l-2.4 15.368a.9.9 0 00.084.542zm.809-17.629a2.461 2.461 0 112.461-2.461 2.464 2.464 0 01-2.461 2.461zm5.817-29.9l-1.359 15.488h-8.785l-1.158-15.488h11.3zm-10.333 17.29h9.024l2.238 14.323-5.85 11.7V73.756a4.262 4.262 0 10-1.8 0v11.71l-5.85-11.7z"/><path data-name="Path 25" d="M86.134 89.823h-4.8a.9.9 0 00-.9.9v1.5H56.298v-1.5a.9.9 0 00-.9-.9h-4.8a.9.9 0 00-.9.9v4.8a.9.9 0 00.9.9h4.8a.9.9 0 00.9-.9v-1.5h24.133v1.5a.9.9 0 00.9.9h4.8a.9.9 0 00.9-.9v-4.8a.9.9 0 00-.897-.9zm-31.637 4.8h-3v-3h3zm30.737 0h-3v-3h3z" fill="#404143"/></g></svg>