<svg xmlns="http://www.w3.org/2000/svg" width="17.741" height="11.412"><g data-name="73Fcqh.tif"><g data-name="Group 410"><g data-name="Group 409"><path data-name="Path 292" d="M16.179 6.028H1.796a1.416 1.416 0 01-.444-.01 1.986 1.986 0 01-.421-.271 1.616 1.616 0 01.4-.227 2.165 2.165 0 01.509-.012h14.494c-.228-.257-.363-.425-.513-.576-1.145-1.148-2.3-2.285-3.43-3.447-.138-.141-.148-.408-.216-.616a1.736 1.736 0 01.57.243c1.431 1.4 2.837 2.836 4.269 4.239.328.322.293.529-.017.834-1.431 1.406-2.837 2.835-4.269 4.239-.13.127-.378.134-.573.2.07-.192.086-.434.215-.565 1.289-1.3 2.6-2.581 3.9-3.867z" fill="#07979d" stroke="#20979d"/></g></g></g></svg>