<svg xmlns="http://www.w3.org/2000/svg" width="68.737" height="68.603"><defs><linearGradient id="a" y1=".502" x2="1.002" y2=".502" gradientUnits="objectBoundingBox"><stop offset="0" stop-color="#4b9fa3"/><stop offset="1" stop-color="#62b796"/></linearGradient></defs><path d="M68.737 8.537v7.905a2.68 2.68 0 11-5.36 0V9.781l-19.543 19.54a7.936 7.936 0 01-11.369 0l-3.151-3.151a2.818 2.818 0 00-1.873-.884 2.8 2.8 0 00-1.941.914l-.023.024L19.72 32a2.68 2.68 0 11-3.8-3.781l5.743-5.769a8.141 8.141 0 015.762-2.524h.059A8.162 8.162 0 0133.1 22.38l3.151 3.151a2.732 2.732 0 001.844.828h.043a2.728 2.728 0 001.9-.828L59.722 5.858h-7.063a2.68 2.68 0 010-5.36H60.7a8.048 8.048 0 018.037 8.039zM6.086 38.427L.757 43.921A2.68 2.68 0 004.6 47.652l5.329-5.494a2.68 2.68 0 00-3.847-3.732zm12.4 1.732a2.68 2.68 0 00-2.68 2.68v23.582a2.68 2.68 0 002.68 2.68 2.68 2.68 0 002.68-2.68V42.838a2.68 2.68 0 00-2.675-2.679zm10.451-5.9a2.68 2.68 0 00-2.68 2.68v29.482a2.68 2.68 0 105.36 0V36.943a2.68 2.68 0 00-2.675-2.68zM7.915 52.218A2.68 2.68 0 005.226 54.9v11.521a2.68 2.68 0 002.68 2.68 2.68 2.68 0 002.68-2.68V54.9a2.68 2.68 0 00-2.671-2.682zm42.054-19.7A2.68 2.68 0 0047.3 35.2v31.22a2.68 2.68 0 002.68 2.68 2.68 2.68 0 002.68-2.68V35.2a2.68 2.68 0 00-2.691-2.678zm10.595-9.108a2.68 2.68 0 00-2.68 2.68v40.331a2.68 2.68 0 002.68 2.68 2.68 2.68 0 002.68-2.68V26.09a2.68 2.68 0 00-2.68-2.68zm-21.17 14.2a2.68 2.68 0 00-2.68 2.68v26.131a2.68 2.68 0 002.68 2.68 2.68 2.68 0 002.68-2.68V40.293a2.68 2.68 0 00-2.681-2.68z" transform="translate(-.001 -.498)" fill="url(#a)"/></svg>