<svg xmlns="http://www.w3.org/2000/svg" width="74.47" height="74.449"><path d="M11.934 14.438a1.236 1.236 0 01.009 1.748 27.74 27.74 0 00-.378.388 1.236 1.236 0 11-1.783-1.712c.134-.141.269-.279.406-.417a1.236 1.236 0 011.746-.007zm54.12 10.391a1.236 1.236 0 00-.655 1.624 32.772 32.772 0 11-57.348-5.524 1.235 1.235 0 10-2.047-1.379 35.23 35.23 0 1061.672 5.942 1.236 1.236 0 00-1.621-.659zM35.228 66.431a1.236 1.236 0 000-2.471 24.715 24.715 0 117.218-48.359 1.236 1.236 0 00.721-2.364 27.189 27.189 0 10-7.939 53.194zm5.271-.536a1.27 1.27 0 00.251-.025q.676-.141 1.338-.313a1.235 1.235 0 10-.621-2.391c-.4.1-.808.2-1.216.282a1.236 1.236 0 00.249 2.446zm33.922-54.787a1.236 1.236 0 01-.313 1.217L59.591 26.841a1.218 1.218 0 01-.129.105 27.182 27.182 0 01-11.387 36.262 1.217 1.217 0 01-.583.148 1.236 1.236 0 01-.586-2.324 24.7 24.7 0 009.622-34.293l-5.753-1.3-2.08 2.08-7.167 7.17a7.779 7.779 0 11-6.3-3.228 1.236 1.236 0 010 2.471 5.323 5.323 0 104.524 2.533l-3.651 3.653a1.236 1.236 0 11-1.748-1.747l11.684-11.686a16.515 16.515 0 103.678 4.5 1.236 1.236 0 112.158-1.2 19.094 19.094 0 11-4.084-5.049l1.239-1.24-1.73-7.672a1.237 1.237 0 01.331-1.146l4-4a32.782 32.782 0 00-35.408 1.672 1.236 1.236 0 11-1.435-2.012 35.251 35.251 0 0138.648-1.461L62.146.365a1.235 1.235 0 012.079.6l1.711 7.572 7.571 1.713a1.234 1.234 0 01.914.861zm-3.645 1.059l-6.148-1.388a1.236 1.236 0 01-.933-.933l-1.389-6.147-12.447 12.445 1.559 6.906 6.185 1.4.027.006.7.157z" fill="#fff"/></svg>