<svg xmlns="http://www.w3.org/2000/svg" width="16.942" height="16.252"><path data-name="Path 4675" d="M4.01 16.253h-.04c-.1-.021-.193-.04-.288-.065a1.212 1.212 0 01-.822-1.629q.638-1.971 1.28-3.939c.113-.347.077-.458-.211-.667l-1.314-.955q-1.03-.748-2.061-1.5a1.175 1.175 0 01-.527-1.25 1.2 1.2 0 011.285-.974h4.133c.358 0 .458-.073.568-.41l.648-2c.214-.66.426-1.321.644-1.979a1.2 1.2 0 011.606-.8 1.29 1.29 0 01.75.883c.414 1.289.834 2.577 1.253 3.864.124.383.2.44.606.44h4.093a1.242 1.242 0 011.143.576 1.2 1.2 0 01-.383 1.655q-1.66 1.212-3.326 2.416c-.338.246-.368.346-.237.747.426 1.313.856 2.626 1.276 3.941a1.2 1.2 0 01-.842 1.581l-.245.061h-.04a2.508 2.508 0 01-1.209-.62q-1.458-1.063-2.92-2.12c-.3-.219-.421-.221-.718 0l-2.871 2.085a2.769 2.769 0 01-1.231.659z" fill="#cebc19"/></svg>