<svg xmlns="http://www.w3.org/2000/svg" width="159.175" height="160.018"><g data-name="Component 8 – 1"><path d="M98.623 17.318c-33.435-30.105-31.779 5.75-41.1 32.03s-71.742 26.062-38.31 56.164 78.312 34.763 100.24 10.408 12.603-68.5-20.83-98.602z" fill="#a7e7eb"/><g data-name="001---Degree" stroke="#000" stroke-width="1.5"><path d="M94.759 72.564c-3.809-1.734-11.835-1.8-13-1.8s-9.191.066-13 1.8v-8.712c.6-.77 5.316-2.088 13-2.088s12.4 1.318 13 2.088zm-13 4.2c-7.4 0-12.047-1.222-12.916-2 .869-.778 5.518-2 12.916-2s12.047 1.222 12.916 2c-.869.778-5.516 2-12.916 2zm22-7h-2v-3a1 1 0 012 0zm0-5.856v-4.287l6 2.143zM81.773 51.764l19.986 7.142v5.042a3.006 3.006 0 00-1.531 1.216l-3.469 1.242v-2.642c0-3.888-13.465-4-15-4s-15 .112-15 4v2.641l-13-4.641z" fill="#086ff6"/><path data-name="Shape" d="M84.959 84.734a21.06 21.06 0 01.721 4.677 6.939 6.939 0 00-6.961.647 27.016 27.016 0 00-.687-5.332q1.817.038 3.727.038c1.093 0 2.154-.012 3.2-.03zm-2.2 16.03a5 5 0 115-5 5 5 0 01-5 5zm-29-9a28.047 28.047 0 011-8.5 28.047 28.047 0 011 8.5 28.047 28.047 0 01-1 8.5 28.047 28.047 0 01-1-8.5zm3.023 8.671a33.163 33.163 0 00.977-8.671 33.17 33.17 0 00-.977-8.672 175.454 175.454 0 0019.161 1.583 25.742 25.742 0 01.816 7.089c0 .145 0 .283-.006.422a6.928 6.928 0 00-.322 6.552l-.044.106a174.274 174.274 0 00-19.6 1.591zm22.384 7.329l-.73-1.68a1 1 0 00-1.311-.52l-1.683.744 2.345-5.622a6.993 6.993 0 003.532 1.93zm9.227-2.2a1 1 0 00-1.311.52l-.74 1.663-2.144-5.133a7 7 0 003.535-1.931l2.34 5.6zm20.166-4.85a161.95 161.95 0 00-19.4-1.8l-.071-.172a6.959 6.959 0 00-1.348-7.886 27.834 27.834 0 00-.714-6.161 166.923 166.923 0 0021.533-1.882c.464.788 1.2 3.9 1.2 8.951s-.741 8.162-1.2 8.95z" fill="#59ea8f"/></g></g></svg>