<svg xmlns="http://www.w3.org/2000/svg" width="24.083" height="23.933"><defs><linearGradient id="a" x1=".5" x2=".5" y2="1" gradientUnits="objectBoundingBox"><stop offset="0" stop-color="#4b9fa3"/><stop offset="1" stop-color="#62b796"/></linearGradient></defs><g data-name="Group 3237"><g data-name="Group 3236"><path data-name="Path 4682" d="M51.572 4.11L49.3 1.839a1.2 1.2 0 00-1.7 0L32.134 17.3s-.005.01-.009.014a.387.387 0 00-.068.1.28.28 0 00-.013.027l-.007.014-1.7 5.11a.4.4 0 00.506.506l5.108-1.7s.009 0 .014-.007l.027-.013a.387.387 0 00.1-.068s.01 0 .014-.009L51.572 5.812a1.2 1.2 0 000-1.702zM31.35 22.061l1.244-3.731 2.489 2.489zm4.474-1.636l-2.839-2.839L45.612 4.961 46.747 6.1l-7.517 7.514a.4.4 0 10.558.577l.01-.01 7.517-7.517L48.45 7.8zM51 5.245l-1.983 1.987L47.6 5.814l-1.42-1.42 1.987-1.987a.4.4 0 01.568 0L51 4.677a.4.4 0 010 .568z" transform="translate(-28.794 -1.486)" fill="url(#a)"/></g></g><g data-name="Group 3239"><g data-name="Group 3238"><path data-name="Path 4683" d="M23.681 462.513H.4a.4.4 0 100 .8h23.28a.4.4 0 100-.8z" transform="translate(0 -439.382)" fill="url(#a)"/></g></g><g data-name="Group 3241"><g data-name="Group 3240"><path data-name="Path 4684" d="M236.443 414.513H224.4a.4.4 0 000 .8h12.041a.4.4 0 100-.8z" transform="translate(-212.761 -393.79)" fill="url(#a)"/></g></g><g data-name="Group 3243"><g data-name="Group 3242"><path data-name="Path 4685" d="M266.837 358.513H256.4a.4.4 0 100 .8h10.436a.4.4 0 000-.8z" transform="translate(-243.156 -340.6)" fill="url(#a)"/></g></g></svg>