<svg xmlns="http://www.w3.org/2000/svg" width="74" height="74"><defs><filter id="a" x="0" y="0" width="74" height="74" filterUnits="userSpaceOnUse"><feOffset dy="3"/><feGaussianBlur stdDeviation="3" result="blur"/><feFlood flood-opacity=".161"/><feComposite operator="in" in2="blur"/><feComposite in="SourceGraphic"/></filter><filter id="b" x="16.151" y="17.628" width="41.428" height="38.954" filterUnits="userSpaceOnUse"><feOffset dy="3"/><feGaussianBlur stdDeviation="3" result="blur-2"/><feFlood flood-opacity=".161"/><feComposite operator="in" in2="blur-2"/><feComposite in="SourceGraphic"/></filter></defs><g data-name="Group 3718"><g filter="url(#a)" transform="translate(.003 -.003)"><circle data-name="Ellipse 50" cx="28" cy="28" r="28" transform="translate(9 6)" fill="#fff"/></g><g filter="url(#b)" transform="translate(.003 -.003)"><path data-name="heart" d="M36.864 44.084a1.315 1.315 0 01-.867-.326 260.72 260.72 0 00-2.55-2.193h0a47.428 47.428 0 01-5.572-5.235 8.348 8.348 0 01-2.225-5.46 7.01 7.01 0 011.779-4.787 6.031 6.031 0 014.486-1.953 5.641 5.641 0 013.524 1.216 7.21 7.21 0 011.425 1.484 7.21 7.21 0 011.425-1.488 5.641 5.641 0 013.524-1.212 6.031 6.031 0 014.486 1.953 7.01 7.01 0 011.779 4.787 8.347 8.347 0 01-2.228 5.46 47.423 47.423 0 01-5.568 5.226c-.772.658-1.647 1.4-2.555 2.2a1.316 1.316 0 01-.867.325zm-4.949-18.64a4.732 4.732 0 00-3.52 1.529 5.7 5.7 0 00-1.431 3.9 7.024 7.024 0 001.922 4.626 46.673 46.673 0 005.409 5.065h0c.774.659 1.651 1.407 2.563 2.2.918-.8 1.8-1.548 2.572-2.209a46.684 46.684 0 005.408-5.065 7.024 7.024 0 001.926-4.62 5.7 5.7 0 00-1.431-3.9 4.731 4.731 0 00-3.52-1.529 4.357 4.357 0 00-2.72.942 6.375 6.375 0 00-1.517 1.757.829.829 0 01-1.425 0 6.369 6.369 0 00-1.515-1.754 4.357 4.357 0 00-2.72-.942zm0 0" fill="#1e8991" stroke="#1e8991"/></g></g></svg>