<svg xmlns="http://www.w3.org/2000/svg" width="137.624" height="138.623"><g data-name="Component 6 – 1"><path d="M86.246 14.694C57.878-10.85 58.727 20.187 50.26 43.104s-62.327 23.728-33.96 49.27 67.02 28.863 86.337 7.409 11.975-59.547-16.392-85.09z" fill="#d1e1f7" opacity=".4"/><path data-name="Path 26" d="M51.964 93.878a.711.711 0 01-1.006 0l-3.033-3.033a.711.711 0 010-1.006l3.832-3.824 4.031 4.031z" fill="#086ff6"/><path data-name="Path 27" d="M57.808 88.027l-2.019 2.019-4.032-4.031 2.019-2.019 2.021-2.02 4.032 4.032z" fill="#086ff6" opacity=".55"/><path data-name="Path 28" d="M89.089 52.713l-1 3.018-2.018-2.019z" fill="#656d78"/><path data-name="Path 29" d="M88.09 55.731l-1 3.011h-4.052v-4.01l.021-.021 3.011-1z" fill="#086ff6" opacity=".41"/><path data-name="Path 30" d="M87.091 58.742l-12.622 12.63-8.077 8.077-6.565 6.558-4.032-4.032 6.558-6.565 8.077-8.077 12.608-12.601v4.01z" fill="#086ff6"/><path data-name="Path 31" d="M88.59 85.502l1.941 1.941-8.07 8.07-16.07-16.064 8.077-8.077 2.012 2.019 2.019 2.019 2.022 2.02 2.019 2.012 2.019 2.019 2.019 2.019z" fill="#59ea8f"/><path data-name="Path 32" d="M68.411 65.322l2.019 2.012-8.077 8.077-16.062-16.069 8.07-8.07 1.941 1.934 2.019 2.019 2.02 2.019 2.012 2.019 2.019 2.019 2.019 2.02z" fill="#59ea8f"/><path data-name="Path 33" d="M51.46 94.796a1.422 1.422 0 01-1.009-.417.713.713 0 011.009-1.009.713.713 0 111.009 1.009 1.421 1.421 0 01-1.009.417z"/><path data-name="Path 34" d="M47.928 91.561a.712.712 0 01-.5-.209 1.428 1.428 0 010-2.018.713.713 0 111.009 1.009.714.714 0 01-.5 1.218z"/><path data-name="Path 35" d="M50.955 94.588a.712.712 0 01-.5-.209l-3.035-3.027a.713.713 0 111.009-1.009l3.031 3.028a.714.714 0 01-.5 1.218z" fill="#404143"/><path data-name="Path 36" d="M51.964 94.588a.714.714 0 01-.5-1.218l35.125-35.129A.714.714 0 0187.6 59.25L52.469 94.379a.712.712 0 01-.5.209z" fill="#404143"/><path data-name="Path 37" d="M47.928 90.551a.714.714 0 01-.5-1.218l35.125-35.129a.713.713 0 111.009 1.009L48.433 90.342a.712.712 0 01-.5.209z" fill="#404143"/><path data-name="Path 38" d="M55.79 90.762a.712.712 0 01-.5-.209l-4.04-4.041a.713.713 0 011.009-1.009l4.036 4.037a.714.714 0 01-.5 1.218z" fill="#404143"/><path data-name="Path 39" d="M59.829 86.724a.712.712 0 01-.5-.209l-4.037-4.037a.713.713 0 011.009-1.009l4.037 4.037a.714.714 0 01-.5 1.218z" fill="#404143"/><path data-name="Path 40" d="M57.81 88.743a.712.712 0 01-.5-.209l-.5-.5a.713.713 0 111.009-1.009l.5.5a.714.714 0 01-.5 1.218z" fill="#404143"/><path data-name="Path 41" d="M54.274 85.211a.712.712 0 01-.5-.209l-.5-.5a.713.713 0 011-1.014l.5.5a.714.714 0 01-.5 1.218z" fill="#404143"/><path data-name="Path 42" d="M87.097 59.458a.722.722 0 01-.224-.036.714.714 0 01-.453-.9l2-6.034a.714.714 0 111.355.449l-2 6.034a.715.715 0 01-.678.487z" fill="#404143"/><path data-name="Path 43" d="M83.058 55.422a.714.714 0 01-.224-1.391l6.034-2a.715.715 0 01.45 1.357l-6.034 2a.709.709 0 01-.225.036z" fill="#404143"/><path data-name="Path 44" d="M88.092 56.441a.712.712 0 01-.5-.209l-2.023-2.018a.713.713 0 111.009-1.009l2.019 2.018a.714.714 0 01-.5 1.218z" fill="#404143"/><path data-name="Path 45" d="M87.094 59.458h-4.056a.714.714 0 110-1.427h4.057a.714.714 0 010 1.427z" fill="#404143"/><path data-name="Path 46" d="M83.038 59.459a.713.713 0 01-.714-.714v-4.036a.714.714 0 011.427 0v4.035a.714.714 0 01-.713.715z" fill="#404143"/><path data-name="Path 47" d="M82.458 96.225a.712.712 0 01-.5-.209l-16.07-16.065a.713.713 0 111.009-1.009l15.561 15.561 7.064-7.064-15.56-15.56a.713.713 0 111.009-1.009l16.065 16.064a.713.713 0 010 1.009l-8.073 8.073a.714.714 0 01-.5.209z" fill="#404143"/><path data-name="Path 48" d="M62.355 76.122a.712.712 0 01-.5-.209L45.786 59.849a.713.713 0 010-1.009l8.073-8.073a.713.713 0 011.009 0l16.066 16.066a.713.713 0 11-1.009 1.009L54.364 52.28l-7.065 7.065 15.56 15.56a.714.714 0 01-.5 1.218z" fill="#404143"/><path data-name="Path 49" d="M55.292 54.932a.714.714 0 01-.5-1.218l1.009-1.009a.713.713 0 011.009 1.009l-1.013 1.009a.712.712 0 01-.5.209z" fill="#404143"/><path data-name="Path 50" d="M56.3 57.959a.714.714 0 01-.5-1.218l2.019-2.019a.713.713 0 011.009 1.009l-2.023 2.019a.712.712 0 01-.5.209z" fill="#404143"/><path data-name="Path 51" d="M59.328 58.969a.714.714 0 01-.5-1.218l1.005-1.009a.714.714 0 011.01 1.009l-1.01 1.009a.712.712 0 01-.5.209z" fill="#404143"/><path data-name="Path 52" d="M60.338 61.997a.714.714 0 01-.5-1.218l2.019-2.019a.713.713 0 011.009 1.009l-2.028 2.019a.711.711 0 01-.5.209z" fill="#404143"/><path data-name="Path 53" d="M63.365 63.005a.714.714 0 01-.5-1.218l1.009-1.009a.713.713 0 011.009 1.009l-1.009 1.009a.71.71 0 01-.5.209z" fill="#404143"/><path data-name="Path 54" d="M64.373 66.029a.714.714 0 01-.5-1.218l2.019-2.019a.713.713 0 111.009 1.009l-2.023 2.028a.712.712 0 01-.5.209z" fill="#404143"/><path data-name="Path 55" d="M67.402 67.041a.714.714 0 01-.5-1.218l1-1.004a.713.713 0 011.013 1l-1.013 1.013a.712.712 0 01-.5.209z" fill="#404143"/><path data-name="Path 56" d="M75.474 75.114a.714.714 0 01-.5-1.218l1.01-1.009a.713.713 0 011.009 1.009l-1.01 1.009a.712.712 0 01-.509.209z" fill="#404143"/><path data-name="Path 57" d="M76.483 78.142a.714.714 0 01-.5-1.218l2.019-2.019a.713.713 0 011.009 1.009l-2.019 2.019a.711.711 0 01-.5.209z" fill="#404143"/><path data-name="Path 58" d="M79.511 79.15a.714.714 0 01-.5-1.218l1.009-1.009a.713.713 0 011.009 1.009l-1.009 1.009a.71.71 0 01-.509.209z" fill="#404143"/><path data-name="Path 59" d="M80.519 82.178a.714.714 0 01-.5-1.218l2.017-2.019a.713.713 0 011.007 1.007l-2.019 2.019a.71.71 0 01-.5.209z" fill="#404143"/><path data-name="Path 60" d="M83.548 83.188a.714.714 0 01-.505-1.218l1.009-1.01a.714.714 0 111.01 1.009l-1.009 1.01a.713.713 0 01-.505.209z" fill="#404143"/><path data-name="Path 61" d="M84.555 86.215a.714.714 0 01-.5-1.218l2.019-2.018a.713.713 0 011.009 1.009l-2.019 2.018a.712.712 0 01-.509.209z" fill="#404143"/><path data-name="Path 62" d="M87.583 87.224a.714.714 0 01-.5-1.218l1.009-1.009a.713.713 0 011.008 1.009l-1.012 1.011a.712.712 0 01-.505.207z" fill="#404143"/></g></svg>