<svg xmlns="http://www.w3.org/2000/svg" width="812" height="431.266"><g opacity=".5" fill="#086ff6"><path data-name="Path 13" d="M165.335 406.426a1.725 1.725 0 012.363.162l17.812 19.652a1.56 1.56 0 01-.165 2.262 1.725 1.725 0 01-2.36-.158L165.17 408.69a1.56 1.56 0 01.165-2.263z"/><path data-name="Path 14" d="M164.34 428.755a1.573 1.573 0 01-.086-2.278l18.403-19.06a1.71 1.71 0 012.358-.076 1.573 1.573 0 01.087 2.276l-18.402 19.06a1.71 1.71 0 01-2.36.078z"/></g><g data-name="Ellipse 44" transform="translate(778)" fill="none" stroke="#086ff6" stroke-width="4" opacity=".5"><circle cx="17" cy="17" r="17" stroke="none"/><circle cx="17" cy="17" r="15"/></g><g data-name="Path 207" fill="none" opacity=".5"><path d="M17 91a17 17 0 11-17 17 17 17 0 0117-17z"/><path d="M17 95a12.915 12.915 0 00-9.192 3.808A12.915 12.915 0 004 108c0 3.472 1.352 6.737 3.808 9.192A12.915 12.915 0 0017 121c3.472 0 6.737-1.352 9.192-3.808A12.915 12.915 0 0030 108c0-3.472-1.352-6.737-3.808-9.192A12.915 12.915 0 0017 95m0-4c9.389 0 17 7.611 17 17s-7.611 17-17 17-17-7.611-17-17 7.611-17 17-17z" fill="#086ff6"/></g></svg>