<svg xmlns="http://www.w3.org/2000/svg" width="18.774" height="23.406" viewBox="0 0 18.774 23.406">
  <g id="marketing" transform="translate(-50.724)">
    <path id="Path_400" data-name="Path 400" d="M215.438,8.933v.685h1.37V.03h-1.37V.715a2.052,2.052,0,0,1-2.055,2.055h-2.055V6.878h2.055A2.052,2.052,0,0,1,215.438,8.933Z" transform="translate(-153.272 0)" fill="#07979d"/>
    <path id="Path_401" data-name="Path 401" d="M121.329,60.658h2.739v4.109h-2.739Z" transform="translate(-67.381 -57.889)" fill="#07979d"/>
    <path id="Path_402" data-name="Path 402" d="M181.329,150.658h1.37V153.4h-1.37Z" transform="translate(-124.642 -143.78)" fill="#07979d"/>
    <path id="Path_403" data-name="Path 403" d="M69.5,243.872l-3.224-3.214H60.8v4.109h-1.37v-4.109H53.948l-3.224,3.214.968.968,2.255-2.255v10.491H66.275V242.585l2.255,2.255Z" transform="translate(0 -229.671)" fill="#07979d"/>
    <path id="Path_404" data-name="Path 404" d="M0,0H3.063V1.37H0Z" transform="translate(65.276 2.844) rotate(-26.565)" fill="#07979d"/>
    <path id="Path_405" data-name="Path 405" d="M0,0H1.37V3.063H0Z" transform="translate(65.277 6.813) rotate(-63.435)" fill="#07979d"/>
  </g>
</svg>
