<svg xmlns="http://www.w3.org/2000/svg" width="22.602" height="22.34" viewBox="0 0 22.602 22.34">
  <g id="XMLID_4651_" transform="translate(0 -2.948)">
    <path id="XMLID_4653_" d="M5.983,237.047a5.98,5.98,0,0,0-3.63,10.735v-.143a3.631,3.631,0,0,1,1.775-3.118,2.518,2.518,0,1,1,3.711,0,3.631,3.631,0,0,1,1.775,3.118v.143a5.98,5.98,0,0,0-3.63-10.735Z" transform="translate(0 -223.724)" fill="#07979d"/>
    <path id="XMLID_4672_" d="M85.391,424.138a2.3,2.3,0,0,0-2.3,2.3v.914a5.977,5.977,0,0,0,4.6,0v-.914A2.3,2.3,0,0,0,85.391,424.138Z" transform="translate(-79.409 -402.524)" fill="#07979d"/>
    <path id="XMLID_4675_" d="M110.559,341.69a1.188,1.188,0,1,0-1.188,1.189A1.19,1.19,0,0,0,110.559,341.69Z" transform="translate(-103.388 -322.595)" fill="#07979d"/>
    <path id="XMLID_167_" d="M270,123.913a7.277,7.277,0,0,1,1.3,3.535h1.36V116.8H270Z" transform="translate(-258.034 -108.807)" fill="#07979d"/>
    <path id="XMLID_166_" d="M182.659,165.717v-3.67H180v2.271A7.3,7.3,0,0,1,182.659,165.717Z" transform="translate(-172.023 -152.048)" fill="#07979d"/>
    <path id="XMLID_109_" d="M360,84.431h2.659V71.8H360Z" transform="translate(-344.046 -65.802)" fill="#07979d"/>
    <path id="XMLID_108_" d="M449,27.047V41.672h2.7V27.047Z" transform="translate(-429.102 -23.031)" fill="#07979d"/>
    <path id="XMLID_43_" d="M26.953,7.179l1.88,1.88L34,3.888l-.94-.94-4.23,4.23L26.953,5.3,23.91,8.341l.94.94Z" transform="translate(-22.85)" fill="#07979d"/>
  </g>
</svg>
