<svg xmlns="http://www.w3.org/2000/svg" width="91" height="199.493"><g opacity=".2" fill="#1e8991"><circle data-name="Ellipse 4" cx="3" cy="3" r="3" transform="rotate(90 45.5 45.5)"/><circle data-name="Ellipse 4" cx="3" cy="3" r="3" transform="rotate(90 37 54)"/><circle data-name="Ellipse 4" cx="3" cy="3" r="3" transform="rotate(90 28.5 62.5)"/><circle data-name="Ellipse 4" cx="3" cy="3" r="3" transform="rotate(90 21.313 69.687)"/><circle data-name="Ellipse 4" cx="3" cy="3" r="3" transform="rotate(90 13.251 77.749)"/><circle data-name="Ellipse 4" cx="3" cy="3" r="3" transform="rotate(90 5.189 85.811)"/><circle data-name="Ellipse 4" cx="3" cy="3" r="3" transform="rotate(90 -2.874 93.874)"/><circle data-name="Ellipse 4" cx="3" cy="3" r="3" transform="rotate(90 -10.936 101.936)"/><circle data-name="Ellipse 4" cx="3" cy="3" r="3" transform="rotate(90 -18.998 109.998)"/><circle data-name="Ellipse 4" cx="3" cy="3" r="3" transform="rotate(90 -27.06 118.06)"/><circle data-name="Ellipse 4" cx="3" cy="3" r="3" transform="rotate(90 -34.247 125.246)"/><circle data-name="Ellipse 4" cx="3" cy="3" r="3" transform="rotate(90 -42.747 133.746)"/><circle data-name="Ellipse 4" cx="3" cy="3" r="3" transform="rotate(90 -51.247 142.246)"/><circle data-name="Ellipse 4" cx="3" cy="3" r="3" transform="rotate(90 11.5 11.5)"/><circle data-name="Ellipse 4" cx="3" cy="3" r="3" transform="rotate(90 3 20)"/><circle data-name="Ellipse 4" cx="3" cy="3" r="3" transform="rotate(90 -5.5 28.5)"/><circle data-name="Ellipse 4" cx="3" cy="3" r="3" transform="rotate(90 -12.687 35.687)"/><circle data-name="Ellipse 4" cx="3" cy="3" r="3" transform="rotate(90 -20.749 43.749)"/><circle data-name="Ellipse 4" cx="3" cy="3" r="3" transform="rotate(90 -28.811 51.811)"/><circle data-name="Ellipse 4" cx="3" cy="3" r="3" transform="rotate(90 -36.874 59.873)"/><circle data-name="Ellipse 4" cx="3" cy="3" r="3" transform="rotate(90 37 37)"/><circle data-name="Ellipse 4" cx="3" cy="3" r="3" transform="rotate(90 28.5 45.5)"/><circle data-name="Ellipse 4" cx="3" cy="3" r="3" transform="rotate(90 20 54)"/><circle data-name="Ellipse 4" cx="3" cy="3" r="3" transform="rotate(90 12.813 61.187)"/><circle data-name="Ellipse 4" cx="3" cy="3" r="3" transform="rotate(90 4.751 69.249)"/><circle data-name="Ellipse 4" cx="3" cy="3" r="3" transform="rotate(90 -3.311 77.311)"/><circle data-name="Ellipse 4" cx="3" cy="3" r="3" transform="rotate(90 -11.374 85.374)"/><circle data-name="Ellipse 4" cx="3" cy="3" r="3" transform="rotate(90 -19.436 93.436)"/><circle data-name="Ellipse 4" cx="3" cy="3" r="3" transform="rotate(90 -27.498 101.498)"/><circle data-name="Ellipse 4" cx="3" cy="3" r="3" transform="rotate(90 -35.56 109.56)"/><circle data-name="Ellipse 4" cx="3" cy="3" r="3" transform="rotate(90 -42.747 116.746)"/><circle data-name="Ellipse 4" cx="3" cy="3" r="3" transform="rotate(90 -51.247 125.246)"/><circle data-name="Ellipse 4" cx="3" cy="3" r="3" transform="rotate(90 -59.747 133.746)"/><circle data-name="Ellipse 4" cx="3" cy="3" r="3" transform="rotate(90 3 3)"/><circle data-name="Ellipse 4" cx="3" cy="3" r="3" transform="rotate(90 -5.5 11.5)"/><circle data-name="Ellipse 4" cx="3" cy="3" r="3" transform="rotate(90 -14 20)"/><circle data-name="Ellipse 4" cx="3" cy="3" r="3" transform="rotate(90 -21.187 27.186)"/><circle data-name="Ellipse 4" cx="3" cy="3" r="3" transform="rotate(90 -29.249 35.249)"/><circle data-name="Ellipse 4" cx="3" cy="3" r="3" transform="rotate(90 -37.311 43.311)"/><circle data-name="Ellipse 4" cx="3" cy="3" r="3" transform="rotate(90 -45.374 51.373)"/><circle data-name="Ellipse 4" cx="3" cy="3" r="3" transform="rotate(90 28.5 28.5)"/><circle data-name="Ellipse 4" cx="3" cy="3" r="3" transform="rotate(90 20 37)"/><circle data-name="Ellipse 4" cx="3" cy="3" r="3" transform="rotate(90 11.5 45.5)"/><circle data-name="Ellipse 4" cx="3" cy="3" r="3" transform="rotate(90 4.313 52.687)"/><circle data-name="Ellipse 4" cx="3" cy="3" r="3" transform="rotate(90 -3.749 60.749)"/><circle data-name="Ellipse 4" cx="3" cy="3" r="3" transform="rotate(90 -11.811 68.811)"/><circle data-name="Ellipse 4" cx="3" cy="3" r="3" transform="rotate(90 -19.874 76.874)"/><circle data-name="Ellipse 4" cx="3" cy="3" r="3" transform="rotate(90 -27.936 84.936)"/><circle data-name="Ellipse 4" cx="3" cy="3" r="3" transform="rotate(90 -35.998 92.998)"/><circle data-name="Ellipse 4" cx="3" cy="3" r="3" transform="rotate(90 -44.06 101.06)"/><circle data-name="Ellipse 4" cx="3" cy="3" r="3" transform="rotate(90 -51.247 108.246)"/><circle data-name="Ellipse 4" cx="3" cy="3" r="3" transform="rotate(90 -59.747 116.746)"/><circle data-name="Ellipse 4" cx="3" cy="3" r="3" transform="rotate(90 -68.247 125.246)"/><circle data-name="Ellipse 4" cx="3" cy="3" r="3" transform="rotate(90 -44.936 67.936)"/><circle data-name="Ellipse 4" cx="3" cy="3" r="3" transform="rotate(90 -52.998 75.998)"/><circle data-name="Ellipse 4" cx="3" cy="3" r="3" transform="rotate(90 -61.06 84.06)"/><circle data-name="Ellipse 4" cx="3" cy="3" r="3" transform="rotate(90 -68.247 91.246)"/><circle data-name="Ellipse 4" cx="3" cy="3" r="3" transform="rotate(90 -76.747 99.746)"/><circle data-name="Ellipse 4" cx="3" cy="3" r="3" transform="rotate(90 -85.247 108.246)"/><circle data-name="Ellipse 4" cx="3" cy="3" r="3" transform="rotate(90 20 20)"/><circle data-name="Ellipse 4" cx="3" cy="3" r="3" transform="rotate(90 11.5 28.5)"/><circle data-name="Ellipse 4" cx="3" cy="3" r="3" transform="rotate(90 3 37)"/><circle data-name="Ellipse 4" cx="3" cy="3" r="3" transform="rotate(90 -4.187 44.187)"/><circle data-name="Ellipse 4" cx="3" cy="3" r="3" transform="rotate(90 -12.249 52.249)"/><circle data-name="Ellipse 4" cx="3" cy="3" r="3" transform="rotate(90 -20.311 60.311)"/><circle data-name="Ellipse 4" cx="3" cy="3" r="3" transform="rotate(90 -28.374 68.374)"/><circle data-name="Ellipse 4" cx="3" cy="3" r="3" transform="rotate(90 -36.436 76.436)"/><circle data-name="Ellipse 4" cx="3" cy="3" r="3" transform="rotate(90 -44.498 84.498)"/><circle data-name="Ellipse 4" cx="3" cy="3" r="3" transform="rotate(90 -52.56 92.56)"/><circle data-name="Ellipse 4" cx="3" cy="3" r="3" transform="rotate(90 -59.747 99.746)"/><circle data-name="Ellipse 4" cx="3" cy="3" r="3" transform="rotate(90 -68.247 108.246)"/><circle data-name="Ellipse 4" cx="3" cy="3" r="3" transform="rotate(90 -76.747 116.746)"/><circle data-name="Ellipse 4" cx="3" cy="3" r="3" transform="rotate(90 -53.436 59.435)"/><circle data-name="Ellipse 4" cx="3" cy="3" r="3" transform="rotate(90 -61.498 67.498)"/><circle data-name="Ellipse 4" cx="3" cy="3" r="3" transform="rotate(90 -69.56 75.56)"/><circle data-name="Ellipse 4" cx="3" cy="3" r="3" transform="rotate(90 -76.747 82.746)"/><circle data-name="Ellipse 4" cx="3" cy="3" r="3" transform="rotate(90 -85.247 91.246)"/><circle data-name="Ellipse 4" cx="3" cy="3" r="3" transform="rotate(90 -93.747 99.746)"/></g></svg>