<svg xmlns="http://www.w3.org/2000/svg" width="27.005" height="27.004" viewBox="0 0 27.005 27.004">
  <g id="network" transform="translate(0 -0.004)">
    <g id="Group_4329" data-name="Group 4329" transform="translate(4.052 8.556)">
      <g id="Group_4328" data-name="Group 4328">
        <circle id="Ellipse_51" data-name="Ellipse 51" cx="0.9" cy="0.9" r="0.9" fill="#07979d"/>
      </g>
    </g>
    <g id="Group_4331" data-name="Group 4331" transform="translate(3.151 13.056)">
      <g id="Group_4330" data-name="Group 4330">
        <path id="Path_444" data-name="Path 444" d="M62.857,247.479H60.246a.478.478,0,0,0-.495.457v1.9a4.885,4.885,0,0,0,3.6,0v-1.9A.478.478,0,0,0,62.857,247.479Z" transform="translate(-59.751 -247.479)" fill="#07979d"/>
      </g>
    </g>
    <g id="Group_4333" data-name="Group 4333" transform="translate(14.853 2.705)">
      <g id="Group_4332" data-name="Group 4332">
        <circle id="Ellipse_52" data-name="Ellipse 52" cx="0.9" cy="0.9" r="0.9" fill="#07979d"/>
      </g>
    </g>
    <g id="Group_4335" data-name="Group 4335" transform="translate(13.953 7.206)">
      <g id="Group_4334" data-name="Group 4334">
        <path id="Path_445" data-name="Path 445" d="M267.657,136.546h-2.611a.478.478,0,0,0-.495.457v1.9a4.885,4.885,0,0,0,3.6,0V137A.478.478,0,0,0,267.657,136.546Z" transform="translate(-264.551 -136.546)" fill="#07979d"/>
      </g>
    </g>
    <g id="Group_4337" data-name="Group 4337" transform="translate(20.704 14.407)">
      <g id="Group_4336" data-name="Group 4336">
        <circle id="Ellipse_53" data-name="Ellipse 53" cx="0.9" cy="0.9" r="0.9" fill="#07979d"/>
      </g>
    </g>
    <g id="Group_4339" data-name="Group 4339" transform="translate(19.804 18.907)">
      <g id="Group_4338" data-name="Group 4338">
        <path id="Path_446" data-name="Path 446" d="M378.59,358.413h-2.611a.478.478,0,0,0-.495.457v1.9a4.885,4.885,0,0,0,3.6,0v-1.9A.478.478,0,0,0,378.59,358.413Z" transform="translate(-375.484 -358.413)" fill="#07979d"/>
      </g>
    </g>
    <g id="Group_4341" data-name="Group 4341" transform="translate(0 0.004)">
      <g id="Group_4340" data-name="Group 4340" transform="translate(0 0)">
        <path id="Path_447" data-name="Path 447" d="M21.6,11.706c-.06,0-.119.007-.178.009L19.517,8.161A4.915,4.915,0,0,0,20.69,5.216l2.831,1.367a1.781,1.781,0,0,0-.117.623,1.8,1.8,0,1,0,1.8-1.8,1.783,1.783,0,0,0-1.156.432L20.638,4.191A4.948,4.948,0,0,0,10.893,4a5.178,5.178,0,0,0-.085.747L8.141,7.025A4.925,4.925,0,0,0,5.4,5.878V3.541a1.8,1.8,0,1,0-.9,0V5.878a4.946,4.946,0,0,0-2.25,9.072V13.513a1.378,1.378,0,0,1,1.395-1.357H6.257a1.378,1.378,0,0,1,1.395,1.357V14.95a4.956,4.956,0,0,0,2.167-3.288l2.031,1.583a1.838,1.838,0,1,0,.557-.707L9.89,10.577A4.922,4.922,0,0,0,8.776,7.666l2.111-1.807A4.962,4.962,0,0,0,13.052,9.1V7.662A1.378,1.378,0,0,1,14.447,6.3h2.611a1.378,1.378,0,0,1,1.395,1.357v.472a.458.458,0,0,0,.252.409l1.771,3.3a4.956,4.956,0,0,0-3.823,4.816,4.9,4.9,0,0,0,.274,1.595l-1.822,1.367a4.946,4.946,0,0,0-9.231,1.989H3.537a1.8,1.8,0,1,0,0,.9H5.88A4.949,4.949,0,0,0,8.1,26.2V24.765A1.378,1.378,0,0,1,9.5,23.408h2.611A1.378,1.378,0,0,1,13.5,24.765V26.2a4.962,4.962,0,0,0,2.118-3.041l2.95,1.424a1.781,1.781,0,0,0-.117.623,1.8,1.8,0,1,0,1.8-1.8,1.783,1.783,0,0,0-1.156.432l-3.355-1.62c0-.055.01-.108.01-.163a4.923,4.923,0,0,0-.27-1.6L17.3,19.1A5,5,0,0,0,18.9,20.8V19.364A1.378,1.378,0,0,1,20.3,18.007H22.91A1.378,1.378,0,0,1,24.3,19.364V20.8a4.947,4.947,0,0,0-2.7-9.095Zm-16.652-.45a1.8,1.8,0,1,1,1.8-1.8A1.8,1.8,0,0,1,4.952,11.256Zm10.8-5.851a1.8,1.8,0,1,1,1.8-1.8A1.8,1.8,0,0,1,15.753,5.405ZM10.8,22.508a1.8,1.8,0,1,1,1.8-1.8A1.8,1.8,0,0,1,10.8,22.508Zm10.8-5.4a1.8,1.8,0,1,1,1.8-1.8A1.8,1.8,0,0,1,21.6,17.107Z" transform="translate(0 -0.004)" fill="#07979d"/>
      </g>
    </g>
    <g id="Group_4343" data-name="Group 4343" transform="translate(9.902 19.807)">
      <g id="Group_4342" data-name="Group 4342">
        <circle id="Ellipse_54" data-name="Ellipse 54" cx="0.9" cy="0.9" r="0.9" fill="#07979d"/>
      </g>
    </g>
    <g id="Group_4345" data-name="Group 4345" transform="translate(9.002 24.308)">
      <g id="Group_4344" data-name="Group 4344">
        <path id="Path_448" data-name="Path 448" d="M173.79,460.813h-2.611a.478.478,0,0,0-.495.457v1.9a4.885,4.885,0,0,0,3.6,0v-1.9A.478.478,0,0,0,173.79,460.813Z" transform="translate(-170.684 -460.813)" fill="#07979d"/>
      </g>
    </g>
  </g>
</svg>
