<svg xmlns="http://www.w3.org/2000/svg" width="21.721" height="21.727" viewBox="0 0 21.721 21.727">
  <g id="newspaper" transform="translate(-0.063)">
    <path id="Path_481" data-name="Path 481" d="M125.969,0V20.092a1.629,1.629,0,1,1-3.258,0V3.937a.679.679,0,0,0-.679-.679H108.863V0Z" transform="translate(-104.184)" fill="#07979d"/>
    <path id="Path_482" data-name="Path 482" d="M17.61,125.837a2.991,2.991,0,0,1-.254-.52c-.269-.727-.188.253-.188-16.517H.063v15.477a1.631,1.631,0,0,0,1.629,1.629C18.894,125.906,17.673,125.94,17.61,125.837Zm-9.469-1.945a.679.679,0,0,1-.679.679H2.077a.679.679,0,0,1-.679-.679v-5.385a.679.679,0,0,1,.679-.679H7.462a.679.679,0,0,1,.679.679Zm7.014.679h-5a.679.679,0,1,1,0-1.358h5a.679.679,0,1,1,0,1.358Zm0-2.692h-5a.679.679,0,1,1,0-1.358h5a.679.679,0,1,1,0,1.358Zm0-2.693h-5a.679.679,0,1,1,0-1.358h5a.679.679,0,1,1,0,1.358Zm.679-3.371a.679.679,0,0,1-.679.679H2.077a.679.679,0,0,1-.679-.679v-5a.679.679,0,0,1,.679-.679H15.155a.679.679,0,0,1,.679.679Z" transform="translate(0 -104.184)" fill="#07979d"/>
    <path id="Path_483" data-name="Path 483" d="M63.533,172.27h11.72v3.643H63.533Z" transform="translate(-60.777 -164.962)" fill="#07979d"/>
    <path id="Path_484" data-name="Path 484" d="M63.533,353.6H67.56v4.027H63.533Z" transform="translate(-60.777 -338.599)" fill="#07979d"/>
  </g>
</svg>
