<svg xmlns="http://www.w3.org/2000/svg" width="312" height="312"><defs><filter id="a" x="0" y="0" width="312" height="312" filterUnits="userSpaceOnUse"><feOffset dx="10" dy="20"/><feGaussianBlur stdDeviation="28" result="blur"/><feFlood flood-color="#1e8991" flood-opacity=".329"/><feComposite operator="in" in2="blur"/><feComposite in="SourceGraphic"/></filter></defs><g filter="url(#a)"><rect data-name="Rectangle 6" width="144" height="144" rx="26" transform="translate(74 64)" fill="#1e8991"/></g><g transform="translate(-280 -1694)" opacity=".2" fill="#1e8991"><circle data-name="Ellipse 4" cx="3" cy="3" r="3" transform="rotate(90 -604 1122.5)"/><circle data-name="Ellipse 4" cx="3" cy="3" r="3" transform="rotate(90 -612.5 1131)"/><circle data-name="Ellipse 4" cx="3" cy="3" r="3" transform="rotate(90 -621 1139.5)"/><circle data-name="Ellipse 4" cx="3" cy="3" r="3" transform="rotate(90 -628.187 1146.687)"/><circle data-name="Ellipse 4" cx="3" cy="3" r="3" transform="rotate(90 -636.249 1154.749)"/><circle data-name="Ellipse 4" cx="3" cy="3" r="3" transform="rotate(90 -644.311 1162.811)"/><circle data-name="Ellipse 4" cx="3" cy="3" r="3" transform="rotate(90 -652.374 1170.874)"/><circle data-name="Ellipse 4" cx="3" cy="3" r="3" transform="rotate(90 -660.436 1178.936)"/><circle data-name="Ellipse 4" cx="3" cy="3" r="3" transform="rotate(90 -668.498 1186.998)"/><circle data-name="Ellipse 4" cx="3" cy="3" r="3" transform="rotate(90 -676.56 1195.06)"/><circle data-name="Ellipse 4" cx="3" cy="3" r="3" transform="rotate(90 -683.747 1202.246)"/><circle data-name="Ellipse 4" cx="3" cy="3" r="3" transform="rotate(90 -692.247 1210.746)"/><circle data-name="Ellipse 4" cx="3" cy="3" r="3" transform="rotate(90 -700.747 1219.246)"/><circle data-name="Ellipse 4" cx="3" cy="3" r="3" transform="rotate(90 -638 1088.5)"/><circle data-name="Ellipse 4" cx="3" cy="3" r="3" transform="rotate(90 -646.5 1097)"/><circle data-name="Ellipse 4" cx="3" cy="3" r="3" transform="rotate(90 -655 1105.5)"/><circle data-name="Ellipse 4" cx="3" cy="3" r="3" transform="rotate(90 -662.187 1112.687)"/><circle data-name="Ellipse 4" cx="3" cy="3" r="3" transform="rotate(90 -670.249 1120.749)"/><circle data-name="Ellipse 4" cx="3" cy="3" r="3" transform="rotate(90 -678.311 1128.811)"/><circle data-name="Ellipse 4" cx="3" cy="3" r="3" transform="rotate(90 -686.374 1136.874)"/><circle data-name="Ellipse 4" cx="3" cy="3" r="3" transform="rotate(90 -612.5 1114)"/><circle data-name="Ellipse 4" cx="3" cy="3" r="3" transform="rotate(90 -621 1122.5)"/><circle data-name="Ellipse 4" cx="3" cy="3" r="3" transform="rotate(90 -629.5 1131)"/><circle data-name="Ellipse 4" cx="3" cy="3" r="3" transform="rotate(90 -636.687 1138.187)"/><circle data-name="Ellipse 4" cx="3" cy="3" r="3" transform="rotate(90 -644.749 1146.249)"/><circle data-name="Ellipse 4" cx="3" cy="3" r="3" transform="rotate(90 -652.811 1154.311)"/><circle data-name="Ellipse 4" cx="3" cy="3" r="3" transform="rotate(90 -660.874 1162.374)"/><circle data-name="Ellipse 4" cx="3" cy="3" r="3" transform="rotate(90 -668.936 1170.436)"/><circle data-name="Ellipse 4" cx="3" cy="3" r="3" transform="rotate(90 -676.998 1178.498)"/><circle data-name="Ellipse 4" cx="3" cy="3" r="3" transform="rotate(90 -685.06 1186.56)"/><circle data-name="Ellipse 4" cx="3" cy="3" r="3" transform="rotate(90 -692.247 1193.746)"/><circle data-name="Ellipse 4" cx="3" cy="3" r="3" transform="rotate(90 -700.747 1202.246)"/><circle data-name="Ellipse 4" cx="3" cy="3" r="3" transform="rotate(90 -709.247 1210.746)"/><circle data-name="Ellipse 4" cx="3" cy="3" r="3" transform="rotate(90 -646.5 1080)"/><circle data-name="Ellipse 4" cx="3" cy="3" r="3" transform="rotate(90 -655 1088.5)"/><circle data-name="Ellipse 4" cx="3" cy="3" r="3" transform="rotate(90 -663.5 1097)"/><circle data-name="Ellipse 4" cx="3" cy="3" r="3" transform="rotate(90 -670.687 1104.187)"/><circle data-name="Ellipse 4" cx="3" cy="3" r="3" transform="rotate(90 -678.749 1112.249)"/><circle data-name="Ellipse 4" cx="3" cy="3" r="3" transform="rotate(90 -686.811 1120.311)"/><circle data-name="Ellipse 4" cx="3" cy="3" r="3" transform="rotate(90 -694.874 1128.374)"/><circle data-name="Ellipse 4" cx="3" cy="3" r="3" transform="rotate(90 -621 1105.5)"/><circle data-name="Ellipse 4" cx="3" cy="3" r="3" transform="rotate(90 -629.5 1114)"/><circle data-name="Ellipse 4" cx="3" cy="3" r="3" transform="rotate(90 -638 1122.5)"/><circle data-name="Ellipse 4" cx="3" cy="3" r="3" transform="rotate(90 -645.187 1129.687)"/><circle data-name="Ellipse 4" cx="3" cy="3" r="3" transform="rotate(90 -653.249 1137.749)"/><circle data-name="Ellipse 4" cx="3" cy="3" r="3" transform="rotate(90 -661.311 1145.811)"/><circle data-name="Ellipse 4" cx="3" cy="3" r="3" transform="rotate(90 -669.374 1153.874)"/><circle data-name="Ellipse 4" cx="3" cy="3" r="3" transform="rotate(90 -677.436 1161.936)"/><circle data-name="Ellipse 4" cx="3" cy="3" r="3" transform="rotate(90 -685.498 1169.998)"/><circle data-name="Ellipse 4" cx="3" cy="3" r="3" transform="rotate(90 -693.56 1178.06)"/><circle data-name="Ellipse 4" cx="3" cy="3" r="3" transform="rotate(90 -700.747 1185.246)"/><circle data-name="Ellipse 4" cx="3" cy="3" r="3" transform="rotate(90 -709.247 1193.746)"/><circle data-name="Ellipse 4" cx="3" cy="3" r="3" transform="rotate(90 -717.747 1202.246)"/><circle data-name="Ellipse 4" cx="3" cy="3" r="3" transform="rotate(90 -694.436 1144.936)"/><circle data-name="Ellipse 4" cx="3" cy="3" r="3" transform="rotate(90 -702.498 1152.998)"/><circle data-name="Ellipse 4" cx="3" cy="3" r="3" transform="rotate(90 -710.56 1161.06)"/><circle data-name="Ellipse 4" cx="3" cy="3" r="3" transform="rotate(90 -717.747 1168.246)"/><circle data-name="Ellipse 4" cx="3" cy="3" r="3" transform="rotate(90 -726.247 1176.746)"/><circle data-name="Ellipse 4" cx="3" cy="3" r="3" transform="rotate(90 -734.747 1185.246)"/><circle data-name="Ellipse 4" cx="3" cy="3" r="3" transform="rotate(90 -629.5 1097)"/><circle data-name="Ellipse 4" cx="3" cy="3" r="3" transform="rotate(90 -638 1105.5)"/><circle data-name="Ellipse 4" cx="3" cy="3" r="3" transform="rotate(90 -646.5 1114)"/><circle data-name="Ellipse 4" cx="3" cy="3" r="3" transform="rotate(90 -653.687 1121.187)"/><circle data-name="Ellipse 4" cx="3" cy="3" r="3" transform="rotate(90 -661.749 1129.249)"/><circle data-name="Ellipse 4" cx="3" cy="3" r="3" transform="rotate(90 -669.811 1137.311)"/><circle data-name="Ellipse 4" cx="3" cy="3" r="3" transform="rotate(90 -677.874 1145.374)"/><circle data-name="Ellipse 4" cx="3" cy="3" r="3" transform="rotate(90 -685.936 1153.436)"/><circle data-name="Ellipse 4" cx="3" cy="3" r="3" transform="rotate(90 -693.998 1161.498)"/><circle data-name="Ellipse 4" cx="3" cy="3" r="3" transform="rotate(90 -702.06 1169.56)"/><circle data-name="Ellipse 4" cx="3" cy="3" r="3" transform="rotate(90 -709.247 1176.746)"/><circle data-name="Ellipse 4" cx="3" cy="3" r="3" transform="rotate(90 -717.747 1185.246)"/><circle data-name="Ellipse 4" cx="3" cy="3" r="3" transform="rotate(90 -726.247 1193.746)"/><circle data-name="Ellipse 4" cx="3" cy="3" r="3" transform="rotate(90 -702.936 1136.436)"/><circle data-name="Ellipse 4" cx="3" cy="3" r="3" transform="rotate(90 -710.998 1144.498)"/><circle data-name="Ellipse 4" cx="3" cy="3" r="3" transform="rotate(90 -719.06 1152.56)"/><circle data-name="Ellipse 4" cx="3" cy="3" r="3" transform="rotate(90 -726.247 1159.746)"/><circle data-name="Ellipse 4" cx="3" cy="3" r="3" transform="rotate(90 -734.747 1168.246)"/><circle data-name="Ellipse 4" cx="3" cy="3" r="3" transform="rotate(90 -743.247 1176.746)"/></g><path d="M120.935 113.438a1.236 1.236 0 01.009 1.748 27.74 27.74 0 00-.378.388 1.236 1.236 0 11-1.783-1.712c.134-.141.269-.279.406-.417a1.236 1.236 0 011.746-.007zm54.12 10.391a1.236 1.236 0 00-.655 1.624 32.772 32.772 0 11-57.348-5.524 1.235 1.235 0 10-2.047-1.379 35.23 35.23 0 1061.672 5.942 1.236 1.236 0 00-1.621-.659zm-30.826 41.602a1.236 1.236 0 000-2.471 24.715 24.715 0 117.218-48.359 1.236 1.236 0 00.721-2.364 27.189 27.189 0 10-7.939 53.194zm5.271-.536a1.27 1.27 0 00.251-.025q.676-.141 1.338-.313a1.235 1.235 0 10-.621-2.391c-.4.1-.808.2-1.216.282a1.236 1.236 0 00.249 2.446zm33.922-54.787a1.236 1.236 0 01-.313 1.217l-14.517 14.516a1.218 1.218 0 01-.129.105 27.182 27.182 0 01-11.387 36.262 1.217 1.217 0 01-.583.148 1.236 1.236 0 01-.586-2.324 24.7 24.7 0 009.622-34.293l-5.753-1.3-2.08 2.08-7.167 7.17a7.779 7.779 0 11-6.3-3.228 1.236 1.236 0 010 2.471 5.323 5.323 0 104.524 2.533l-3.651 3.653a1.236 1.236 0 11-1.748-1.747l11.684-11.686a16.515 16.515 0 103.678 4.5 1.236 1.236 0 112.158-1.2 19.094 19.094 0 11-4.084-5.049l1.239-1.24-1.73-7.672a1.237 1.237 0 01.331-1.146l4-4a32.782 32.782 0 00-35.408 1.672 1.236 1.236 0 11-1.435-2.012 35.251 35.251 0 0138.648-1.461l8.712-8.712a1.235 1.235 0 012.079.6l1.711 7.572 7.571 1.713a1.234 1.234 0 01.914.861zm-3.645 1.059l-6.148-1.388a1.236 1.236 0 01-.933-.933l-1.389-6.147-12.447 12.445 1.559 6.906 6.185 1.4.027.006.7.157z" fill="#fff"/></svg>