<svg xmlns="http://www.w3.org/2000/svg" width="22.525" height="25.5"><defs><linearGradient id="a" x1=".5" x2=".5" y2="1" gradientUnits="objectBoundingBox"><stop offset="0" stop-color="#1f8a91"/><stop offset=".533" stop-color="#44a394"/><stop offset="1" stop-color="#62b796"/></linearGradient></defs><g transform="translate(-39.988 -16)" fill="url(#a)"><path data-name="Path 4700" d="M45.089 21.525h9.35a.425.425 0 100-.85h-9.35a.425.425 0 000 .85z"/><path data-name="Path 4701" d="M45.089 24.075h9.35a.425.425 0 100-.85h-9.35a.425.425 0 100 .85z"/><path data-name="Path 4702" d="M45.089 26.625h9.35a.425.425 0 100-.85h-9.35a.425.425 0 100 .85z"/><path data-name="Path 4703" d="M45.089 29.175h9.35a.425.425 0 100-.85h-9.35a.425.425 0 100 .85z"/><path data-name="Path 4704" d="M45.089 31.725h3.4a.425.425 0 000-.85h-3.4a.425.425 0 000 .85z"/><path data-name="Path 4705" d="M61.883 26.041a1.276 1.276 0 00-1.745.455l-1.025 1.749V17.7a.425.425 0 00-.425-.425h-3.223a16.664 16.664 0 00-1.328-1.257.424.424 0 00-.123-.018H41.689a.425.425 0 00-.425.425v1.329a1.7 1.7 0 000 3.292V22a1.7 1.7 0 000 3.292v.958a1.7 1.7 0 000 3.292v.533a1.7 1.7 0 000 3.292v2.6a.425.425 0 00.425.425h.425v1.275a.425.425 0 00.425.425h10.8l-.291.5a.422.422 0 00-.052.145v.016l-.34 2.255a.425.425 0 00.681.4l1.808-1.4c.116-.09.172-.145.163-.219l.989-1.688h2.395a.425.425 0 00.425-.425v-4.387l3.225-5.5a1.276 1.276 0 00-.459-1.748zm-.752.689a.425.425 0 01.474.626l-.215.367-.733-.43.215-.367a.422.422 0 01.259-.196zm-6.4 12.36L54 38.66l5.587-9.533.733.43zm-.29-21.639l1.524 1.524h-1.526zm5.574 10.942l.215-.367.733.43-.215.367zm-1.751-10.268V29.6a.427.427 0 00.008.082l-.858 1.464V19.4a.424.424 0 00-.124-.3l-.974-.974zm-16.15-1.275h11.475v2.55a.425.425 0 00.425.425h2.55V32.6l-1.731 2.95H42.114v-2.179a1.7 1.7 0 001.221-1.222.425.425 0 00-.823-.212.847.847 0 01-.4.523v-2.914a1.7 1.7 0 001.221-1.222.425.425 0 10-.823-.212.847.847 0 01-.4.523V25.3a1.7 1.7 0 001.221-1.222.425.425 0 10-.823-.212.847.847 0 01-.4.523v-3.34a1.7 1.7 0 001.221-1.222.425.425 0 10-.823-.212.847.847 0 01-.4.523zm-1.275 2.55a.85.85 0 01.425-.735v1.47a.85.85 0 01-.425-.735zm0 4.25a.85.85 0 01.425-.735v1.47a.85.85 0 01-.425-.735zm0 4.25a.85.85 0 01.425-.735v1.47a.85.85 0 01-.425-.735zm0 3.825a.85.85 0 01.425-.735v1.47a.85.85 0 01-.425-.735zm2.125 5.525v-.85h11.371l-.5.85zm10.777 2.25l.384.225-.473.367zm4.523-2.246h-1.472l1.472-2.511z"/></g></svg>