<svg xmlns="http://www.w3.org/2000/svg" width="19.913" height="19.913" viewBox="0 0 19.913 19.913">
  <g id="prototype" transform="translate(0.001 0)">
    <path id="Path_500" data-name="Path 500" d="M0,18.162a1.746,1.746,0,0,0,3.393.583H16.519a1.746,1.746,0,1,0,2.226-2.226V6.417a.583.583,0,1,0-1.167,0V9.334H14.662a.583.583,0,1,0,0,1.167h2.917V16.52a1.749,1.749,0,0,0-1.059,1.059H10.578V13.418a.583.583,0,1,0-1.167,0v4.162H3.392A1.749,1.749,0,0,0,2.333,16.52V10.5H6.494a.583.583,0,1,0,0-1.167H2.333V3.392A1.749,1.749,0,0,0,3.392,2.333H9.411V5.25a.583.583,0,0,0,1.167,0V2.333h2.917a.583.583,0,0,0,0-1.167H3.392A1.746,1.746,0,1,0,1.166,3.392V16.52A1.747,1.747,0,0,0,0,18.162Zm0,0" fill="#07979d"/>
    <path id="Path_501" data-name="Path 501" d="M177.305,208.879a.574.574,0,0,0-.141.228l-.781,2.344-.728.728a.583.583,0,1,0,.825.825l.728-.728,2.344-.781a.574.574,0,0,0,.228-.141l.7-.7L178,208.183Zm0,0" transform="translate(-168.66 -200.087)" fill="#07979d"/>
    <path id="Path_502" data-name="Path 502" d="M427.1,3.364A1.751,1.751,0,0,0,424.623.889l-.413.413,2.476,2.476Zm0,0" transform="translate(-407.713 -0.363)" fill="#07979d"/>
    <path id="Path_503" data-name="Path 503" d="M269.378,47.823,266.9,45.348l-5.507,5.508,2.475,2.475Zm0,0" transform="translate(-251.229 -43.585)" fill="#07979d"/>
  </g>
</svg>
