<svg xmlns="http://www.w3.org/2000/svg" width="24.32" height="23.879" viewBox="0 0 24.32 23.879">
  <g id="qa" transform="translate(0 -0.5)">
    <path id="Path_463" data-name="Path 463" d="M8.251,14.4c3.824,0,7.122-2.183,8.016-5.31A5.833,5.833,0,0,0,16.5,7.448C16.5,3.617,12.8.5,8.251.5S0,3.617,0,7.448a6.146,6.146,0,0,0,1.444,3.916.434.434,0,0,1,.07.429L.341,14.885l3.338-1.467a.433.433,0,0,1,.369.01,9.168,9.168,0,0,0,3.613.949c.2.017.395.021.591.021ZM5.646,7.014C5.646,5.1,6.814,3.54,8.251,3.54S10.857,5.1,10.857,7.014A4.225,4.225,0,0,1,10.275,9.2l.806.483a.434.434,0,1,1-.447.744L9.721,9.88a2.171,2.171,0,0,1-1.47.609c-1.437,0-2.606-1.559-2.606-3.474Zm0,0" fill="#07979d"/>
    <path id="Path_464" data-name="Path 464" d="M282.42,280.285l-.78,2.183H283.2Zm0,0" transform="translate(-266.352 -264.597)" fill="#07979d"/>
    <path id="Path_465" data-name="Path 465" d="M122.415,77.494l-.468-.281a.434.434,0,0,1,.447-.744l.621.373a3.387,3.387,0,0,0,.458-1.737c0-1.412-.8-2.606-1.737-2.606S120,73.693,120,75.106s.8,2.606,1.737,2.606A1.228,1.228,0,0,0,122.415,77.494Zm0,0" transform="translate(-113.486 -68.092)" fill="#07979d"/>
    <path id="Path_466" data-name="Path 466" d="M152.251,183.205a9.489,9.489,0,0,0,3.882-.817.434.434,0,0,1,.363,0l3.593,1.677-1.349-3.145a.435.435,0,0,1,.078-.464,6.187,6.187,0,0,0,1.685-4.2c0-3.537-3.19-6.514-7.324-6.9-.018.053-.043.1-.061.154-.038.1-.077.2-.119.3s-.09.207-.139.308-.1.2-.148.293-.107.194-.164.29-.115.19-.174.283-.124.182-.189.272-.13.181-.2.269-.14.171-.212.256-.147.17-.225.253-.155.16-.235.238-.162.159-.246.235-.171.149-.258.222-.174.147-.265.217-.186.137-.281.2-.185.13-.281.2-.2.126-.3.187-.194.118-.294.174-.217.113-.326.168-.2.1-.3.151-.232.1-.348.148-.206.087-.312.127c-.122.046-.248.087-.372.126-.106.035-.21.072-.316.1-.13.038-.265.07-.4.1-.1.026-.208.056-.314.079-.143.031-.289.055-.434.08-.1.017-.2.038-.3.053-.164.024-.331.038-.5.054-.087.008-.169.021-.256.027q-.384.025-.773.025c-.1,0-.191,0-.286,0a5.861,5.861,0,0,0-.148,1.306c0,3.831,3.7,6.948,8.251,6.948Zm-2.58-3.186,2.171-6.08a.434.434,0,0,1,.818,0l2.171,6.08a.434.434,0,1,1-.818.292l-.673-1.883h-2.179l-.673,1.883a.434.434,0,0,1-.818-.292Zm0,0" transform="translate(-136.183 -159.689)" fill="#07979d"/>
  </g>
</svg>
