<svg xmlns="http://www.w3.org/2000/svg" width="18.6" height="17.333" viewBox="0 0 18.6 17.333">
  <path id="relations" d="M16.662,13.722a2.046,2.046,0,0,0-.7.128l-2.32-2.161a4.747,4.747,0,0,0,0-6.045l2.32-2.161a2.046,2.046,0,0,0,.7.128A1.877,1.877,0,0,0,18.6,1.806a1.942,1.942,0,0,0-3.875,0,1.686,1.686,0,0,0,.137.657l-2.32,2.162a5.7,5.7,0,0,0-6.485,0L3.738,2.462a1.686,1.686,0,0,0,.137-.657A1.877,1.877,0,0,0,1.937,0,1.877,1.877,0,0,0,0,1.806,1.877,1.877,0,0,0,1.937,3.611a2.046,2.046,0,0,0,.7-.128l2.32,2.162a4.746,4.746,0,0,0,0,6.044l-2.32,2.162a2.03,2.03,0,0,0-.7-.129,1.81,1.81,0,1,0,0,3.611,1.877,1.877,0,0,0,1.937-1.806,1.686,1.686,0,0,0-.137-.657l2.32-2.162a5.7,5.7,0,0,0,6.485,0l2.32,2.162a1.68,1.68,0,0,0-.137.656,1.942,1.942,0,1,0,1.937-1.806ZM9.3,5.056A1.5,1.5,0,0,1,10.85,6.5,1.5,1.5,0,0,1,9.3,7.945,1.5,1.5,0,0,1,7.75,6.5,1.5,1.5,0,0,1,9.3,5.056Zm-2.519,6.5a.563.563,0,0,1-.581-.542v-.361A2.064,2.064,0,0,1,8.331,8.667h1.937A2.064,2.064,0,0,1,12.4,10.653v.361a.563.563,0,0,1-.581.542Z" fill="#07979d"/>
</svg>
