<svg id="settings_2_" data-name="settings (2)" xmlns="http://www.w3.org/2000/svg" width="25.6" height="25.6" viewBox="0 0 25.6 25.6">
  <path id="Path_367" data-name="Path 367" d="M309.375,3.235l1.118-1.118-1.061-1.061-1.118,1.118A3.724,3.724,0,0,0,307,1.626V0h-1.5V1.626a3.725,3.725,0,0,0-1.315.549l-1.118-1.118-1.061,1.061,1.118,1.118a3.724,3.724,0,0,0-.549,1.315H301v1.5h1.576a3.724,3.724,0,0,0,.549,1.315l-1.118,1.118,1.061,1.061,1.118-1.118a3.725,3.725,0,0,0,1.315.549V10.55H307V8.974a3.724,3.724,0,0,0,1.315-.549l1.118,1.118,1.061-1.061-1.118-1.118a3.724,3.724,0,0,0,.549-1.315h1.626V4.55h-1.626a3.724,3.724,0,0,0-.549-1.315ZM307,6.05h-1.5V4.55H307Z" transform="translate(-285.95)" fill="#07979d"/>
  <path id="Path_368" data-name="Path 368" d="M283.524,233.27l.248,1.48a9.716,9.716,0,0,0,8.126-9.615,9.846,9.846,0,0,0-.135-1.624l-1.48.249a8.259,8.259,0,0,1-6.76,9.511Z" transform="translate(-269.348 -212.334)" fill="#07979d"/>
  <path id="Path_369" data-name="Path 369" d="M73.31,62.5a8.277,8.277,0,0,1,1.376.114l.249-1.48A9.843,9.843,0,0,0,73.31,61,9.716,9.716,0,0,0,63.7,69.126l1.48.248A8.22,8.22,0,0,1,73.31,62.5Z" transform="translate(-60.51 -57.95)" fill="#07979d"/>
  <circle id="Ellipse_48" data-name="Ellipse 48" cx="0.5" cy="0.5" r="0.5" transform="translate(6 18.6)" fill="#07979d"/>
  <path id="Path_370" data-name="Path 370" d="M1.5,252.5l1.654-.941a5.413,5.413,0,0,0,2.146,1.2v1.794h3v-1.794a5.223,5.223,0,0,0,2.1-1.2l1.654.941,1.5-2.6L11.9,248.96a4.835,4.835,0,0,0,0-2.42l1.654-.941-1.5-2.6-1.654.941a5.222,5.222,0,0,0-2.1-1.2V241h-3v1.744a5.414,5.414,0,0,0-2.146,1.2L1.5,243,0,245.6l1.654.941a4.836,4.836,0,0,0,0,2.421L0,249.9Zm5.3-7a2.25,2.25,0,1,1-2.25,2.25A2.253,2.253,0,0,1,6.8,245.5Z" transform="translate(0 -228.95)" fill="#07979d"/>
</svg>
