<svg id="smartphone" xmlns="http://www.w3.org/2000/svg" width="24" height="24" viewBox="0 0 24 24">
  <path id="Path_325" data-name="Path 325" d="M6.284,19.838a.75.75,0,0,1-.122-1.054c.793-1,2.044-2.2,1.167-3.949a.748.748,0,0,1,.141-.866l1.81-1.81a1.643,1.643,0,0,0,.157-2.138L4.259,14.8a.75.75,0,1,1-1.018-1.1L8.608,8.744a1.246,1.246,0,0,1,1.732.036,3.141,3.141,0,0,1,0,4.44L8.885,14.675c.812,2.365-.6,3.839-1.547,5.041a.751.751,0,0,1-1.054.122Z" fill="#07979d"/>
  <path id="Path_326" data-name="Path 326" d="M8.75,24h-8A.75.75,0,0,1,0,23.25V15.312a6.717,6.717,0,0,1,2.536-5.273L4.882,8.164a.75.75,0,0,1,.936,1.172L3.472,11.211a5.226,5.226,0,0,0-1.972,4.1V22.5H8V21.252a.75.75,0,0,1,.75-.75,1.752,1.752,0,0,0,1.75-1.75V16.5a.75.75,0,0,1,1.5,0v2.252a3.256,3.256,0,0,1-2.5,3.163V23.25A.75.75,0,0,1,8.75,24Z" fill="#07979d"/>
  <path id="Path_327" data-name="Path 327" d="M12,5H7.5A2.5,2.5,0,0,0,5,7.5v5.6l2-1.85V7.5A.5.5,0,0,1,7.5,7H12Z" fill="#07979d"/>
  <path id="Path_328" data-name="Path 328" d="M20,11.775v.475a2.006,2.006,0,0,0,2,2v.25a.5.5,0,0,1-.5.5H8.2a3.261,3.261,0,0,1,.16,1.03,3.554,3.554,0,0,1-.14.97H21.5A2.5,2.5,0,0,0,24,14.5V10.382Z" fill="#07979d"/>
  <path id="Path_329" data-name="Path 329" d="M19,0l5,2.231L19,4.462,14,2.231Z" fill="#07979d"/>
  <path id="Path_330" data-name="Path 330" d="M20,5.658V9.515l4-1.784V3.873Z" fill="#07979d"/>
  <path id="Path_331" data-name="Path 331" d="M18,5.658,14,3.873V7.731l4,1.784Z" fill="#07979d"/>
</svg>
