<svg xmlns="http://www.w3.org/2000/svg" width="28.219" height="23.531" viewBox="0 0 28.219 23.531">
  <g id="strategy" transform="translate(0 -24.669)">
    <path id="Path_449" data-name="Path 449" d="M217.755,41.116a3.952,3.952,0,1,0,3.952,3.952A3.957,3.957,0,0,0,217.755,41.116Zm0,6.251a2.3,2.3,0,1,1,2.3-2.3A2.3,2.3,0,0,1,217.755,47.367Z" transform="translate(-193.489 -14.884)" fill="#07979d"/>
    <path id="Path_450" data-name="Path 450" d="M8.465,31.551a.827.827,0,0,0,1.17,0l2.15-2.15,2.15,2.15a.827.827,0,0,0,1.17-1.17l-2.15-2.15,2.15-2.15a.827.827,0,1,0-1.17-1.17l-2.15,2.15-2.15-2.15a.827.827,0,0,0-1.17,1.17l2.15,2.15-2.15,2.15a.827.827,0,0,0,0,1.17Z" transform="translate(-7.441)" fill="#07979d"/>
    <path id="Path_451" data-name="Path 451" d="M130.229,197.6a.828.828,0,0,0-1.17,0l-2.15,2.15-2.15-2.15a.827.827,0,0,0-1.17,1.17l2.15,2.15-2.15,2.15a.827.827,0,0,0,1.17,1.17l2.15-2.15,2.15,2.15a.827.827,0,1,0,1.17-1.17l-2.15-2.15,2.15-2.15A.827.827,0,0,0,130.229,197.6Z" transform="translate(-111.628 -156.281)" fill="#07979d"/>
    <path id="Path_452" data-name="Path 452" d="M18.665,48.285l-3.336-2.9a.827.827,0,0,0-1.085,1.248l1.769,1.538A14.446,14.446,0,0,0,5.982,53.89a15.884,15.884,0,0,0-2.492,5,3.952,3.952,0,1,0,1.68.165,14.4,14.4,0,0,1,2.178-4.228,12.69,12.69,0,0,1,8.9-5.018L14.6,51.7a.827.827,0,0,0,1.248,1.085l2.9-3.336a.827.827,0,0,0-.082-1.167ZM6.251,62.813a2.3,2.3,0,1,1-2.3-2.3A2.3,2.3,0,0,1,6.251,62.813Z" transform="translate(0 -18.564)" fill="#07979d"/>
  </g>
</svg>
