<svg xmlns="http://www.w3.org/2000/svg" width="25.969" height="25.969" viewBox="0 0 25.969 25.969">
  <g id="translate" transform="translate(0)">
    <path id="Path_485" data-name="Path 485" d="M168.066,208.867h-9.779a2.8,2.8,0,0,0-2.8,2.8v5.313l-2.534,1.81a.761.761,0,0,0,0,1.238l2.564,1.831a2.8,2.8,0,0,0,2.767,2.385h9.779a2.8,2.8,0,0,0,2.8-2.8v-9.779a2.8,2.8,0,0,0-2.8-2.8Zm-3.288,10.691c-.179,0-.318-.057-.358-.212l-.31-1.084h-1.866l-.309,1.084c-.041.155-.179.212-.359.212-.285,0-.668-.179-.668-.44a.468.468,0,0,1,.016-.082l1.573-5.126a.662.662,0,0,1,.676-.359c.31,0,.611.114.685.359l1.573,5.126a.36.36,0,0,1,.016.082c0,.252-.383.44-.668.44Zm0,0" transform="translate(-144.895 -198.273)" fill="#07979d"/>
    <path id="Path_486" data-name="Path 486" d="M346.375,330.881h1.418l-.709-2.5Zm0,0" transform="translate(-328.807 -311.723)" fill="#07979d"/>
    <path id="Path_487" data-name="Path 487" d="M9.072,13.392a4.3,4.3,0,0,1,.952-2.7,4.082,4.082,0,0,1-2.337-.733,4.081,4.081,0,0,1-2.338.733.429.429,0,0,1,0-.858,3.23,3.23,0,0,0,1.664-.46A4.092,4.092,0,0,1,5.941,7.013H5.35a.429.429,0,1,1,0-.858H7.258V5.113a.429.429,0,1,1,.858,0V6.155h1.909a.429.429,0,1,1,0,.858H9.434A4.092,4.092,0,0,1,8.361,9.373a3.225,3.225,0,0,0,1.664.46.429.429,0,0,1,.428.4,4.3,4.3,0,0,1,2.94-1.158h1.983V7.264l2.534-1.81a.761.761,0,0,0,0-1.238L15.345,2.385A2.8,2.8,0,0,0,12.577,0H2.8A2.8,2.8,0,0,0,0,2.8v9.779a2.8,2.8,0,0,0,2.8,2.8H9.072Zm0,0" transform="translate(0 0)" fill="#07979d"/>
    <path id="Path_488" data-name="Path 488" d="M135.066,140.1a3.239,3.239,0,0,0,.882-1.823h-1.763A3.242,3.242,0,0,0,135.066,140.1Zm0,0" transform="translate(-127.378 -131.264)" fill="#07979d"/>
  </g>
</svg>
