<svg xmlns="http://www.w3.org/2000/svg" width="19.857" height="18.237" viewBox="0 0 19.857 18.237">
  <g id="web-design" transform="translate(0 -20.894)">
    <path id="Path_352" data-name="Path 352" d="M161.374,211.106a1.888,1.888,0,0,0-1.75,1.815,6.92,6.92,0,0,1-.456,1.675h2.206a1.745,1.745,0,0,0,0-3.491Z" transform="translate(-152.995 -182.835)" fill="#07979d"/>
    <path id="Path_353" data-name="Path 353" d="M19.276,20.894H.582A.582.582,0,0,0,0,21.476V31.762H4.905a6.457,6.457,0,0,0,.569-1.816,3.474,3.474,0,0,1,.9-1.973,2.75,2.75,0,0,1,2.009-.866,2.922,2.922,0,0,1,.411.03l3.405-3.405A1.745,1.745,0,1,1,14.663,26.2l-3.405,3.405a2.926,2.926,0,0,1,.03.411,2.894,2.894,0,0,1-.583,1.745h9.153V21.476a.582.582,0,0,0-.582-.582Z" fill="#07979d"/>
    <path id="Path_354" data-name="Path 354" d="M258.191,114.923l3.036-3.036a.582.582,0,1,0-.823-.823l-3.036,3.036A2.931,2.931,0,0,1,258.191,114.923Z" transform="translate(-247.386 -86.509)" fill="#07979d"/>
    <path id="Path_355" data-name="Path 355" d="M0,333.239a.582.582,0,0,0,.582.582H19.276a.582.582,0,0,0,.582-.582v-2.133H0Z" transform="translate(0 -298.181)" fill="#07979d"/>
    <path id="Path_356" data-name="Path 356" d="M172.4,432.27h-.582v-1.164h-4.654v1.164h-.582a.582.582,0,1,0,0,1.164H172.4a.582.582,0,1,0,0-1.164Z" transform="translate(-159.562 -394.302)" fill="#07979d"/>
  </g>
</svg>
