<svg xmlns="http://www.w3.org/2000/svg" width="271.305" height="335.894"><g data-name="Group 7587"><g data-name="Group 33"><path data-name="Path 23" d="M139.125 326.47c7.629-.637 24.76-1.977 25.67-2.262.754-.232.824-.391.436-1.096a38.885 38.885 0 00-2.308-3.276q-14.572-21.048-29.148-42.088a9.607 9.607 0 00-.881-1.17.989.989 0 00-1.66.105 7.869 7.869 0 00-.614 1.053c-2.552 4.727-5.119 9.447-7.637 14.191a1.938 1.938 0 01-1.573 1.13c-3.576.583-7.144 1.218-10.713 1.84a10.261 10.261 0 00-1.192.266c-1.541.462-1.801 1.598-.63 2.733a5.292 5.292 0 00.659.544c2.88 2.003 5.502 4.337 8.297 6.45a1.493 1.493 0 01.67 1.194c.415 5.522.87 11.04 1.316 16.558.108 1.34.192 2.682.356 4.015.128 1.045.534 1.335 1.228 1.302 6.119-.517 11.92-1.004 17.724-1.489zm-14.146-33.86q3.499-6.503 7.011-12.991a3.655 3.655 0 01.28-.367l26.243 37.876c-.387.234-.558-.095-.753-.232q-16.165-11.405-32.313-22.834c-.876-.622-.896-.655-.468-1.451zm-10.968 4.788a3.683 3.683 0 01-1.244-.776c1.843-.31 3.562-.595 5.287-.888 1.364-.231 2.738-.42 4.085-.722a1.85 1.85 0 011.73.478c1.212.957 2.512 1.807 3.772 2.7l26.914 19.039a2.993 2.993 0 011.341 1.005 2.956 2.956 0 01-1.6-.734l-25.225-12.575q-7.534-3.758-15.064-7.527zm5.04 5.784q-2.38-1.905-4.747-3.826a3.614 3.614 0 01-1.295-1.04 3.294 3.294 0 011.603.734l14.91 7.413c2.174 1.084 4.338 2.19 6.507 3.288 1.696.626 3.236 1.579 4.866 2.342l.436.2-.197.218c-1.878-.816-3.81-1.514-5.614-2.495-4.555-1.967-16.257-6.66-16.474-6.833zm3.085 21.705q-.534-6.394-1.042-12.789-.192-2.375-.377-4.75a2.88 2.88 0 01.042-1.414l38.171 16.558a1.272 1.272 0 01-.93.302l-17.776 1.456q-8.523.714-17.044 1.46c-.949.08-.972.09-1.048-.822z" fill="#b49875"/></g><g data-name="Group 34"><path data-name="Path 24" d="M42.675 222.943a82.068 82.068 0 01-.945-4.275 1.561 1.561 0 011.147-1.905 1.625 1.625 0 011.78 1.387c.258 1.344.561 2.716.9 4.075l.123.492.002.008a1.5 1.5 0 11-2.88.728zm3.009 9.628a1.623 1.623 0 01.853-1.925 1.531 1.531 0 011.964 1.002 98.993 98.993 0 001.753 4.35 1.673 1.673 0 01-.683 2.185 1.508 1.508 0 01-2.003-.887 102.78 102.78 0 01-1.82-4.517 2.035 2.035 0 01-.064-.207zm-5.097-23.285a1.876 1.876 0 01-.054-.359 77.678 77.678 0 01-.106-4.877 1.467 1.467 0 011.516-1.547 1.72 1.72 0 011.474 1.78 74.204 74.204 0 00.1 4.641 1.494 1.494 0 01-1.406 1.67 1.647 1.647 0 01-1.524-1.307zm11.04 36.294a1.665 1.665 0 01.65-1.823 1.469 1.469 0 012.063.667 112.29 112.29 0 002.303 4.064 1.733 1.733 0 01-.388 2.289 1.452 1.452 0 01-2.081-.563 115.594 115.594 0 01-2.378-4.196 1.843 1.843 0 01-.168-.437zM41.34 195.13a1.847 1.847 0 01-.025-.783 41.859 41.859 0 011.152-4.719 1.382 1.382 0 011.897-.923 1.816 1.816 0 01.94 2.169 38.261 38.261 0 00-1.056 4.322 1.408 1.408 0 01-1.766 1.184 1.717 1.717 0 01-1.142-1.249zm17.767 62.505a1.7 1.7 0 01.491-1.708 1.424 1.424 0 012.107.365c.883 1.254 1.804 2.51 2.739 3.734a1.782 1.782 0 01-.122 2.342 1.413 1.413 0 01-2.113-.27c-.962-1.26-1.91-2.552-2.82-3.843a1.855 1.855 0 01-.284-.619zm-22.048-92.388q-.35-1.403-.664-2.814a1.577 1.577 0 011.086-1.951 1.6 1.6 0 011.816 1.323q.516 2.298 1.123 4.58l.008.03a1.494 1.494 0 11-2.874.75q-.254-.959-.494-1.917zm3.347 11.023a1.619 1.619 0 01.874-1.933 1.538 1.538 0 011.952 1.034 107.772 107.772 0 001.584 4.124l.105.255a1.665 1.665 0 01-.713 2.171 1.514 1.514 0 01-1.994-.919l-.115-.28a114.67 114.67 0 01-1.637-4.262 2.669 2.669 0 01-.056-.189zm-5.713-23.207c-.016-.065-.032-.129-.038-.197a123.909 123.909 0 01-.584-4.822 1.518 1.518 0 011.32-1.757 1.665 1.665 0 011.656 1.573c.157 1.559.348 3.132.565 4.674a1.537 1.537 0 01-1.244 1.824 1.618 1.618 0 01-1.675-1.298zm-1.171-14.269a1.883 1.883 0 01-.056-.41c-.04-1.605-.05-3.228-.028-4.826a1.466 1.466 0 011.518-1.543 1.721 1.721 0 011.475 1.782 114.39 114.39 0 00.028 4.685 1.483 1.483 0 01-1.453 1.617 1.654 1.654 0 01-1.486-1.308zm12.8 50.487a1.677 1.677 0 01.587-1.782 1.453 1.453 0 012.083.557 39.385 39.385 0 002.518 3.737 1.783 1.783 0 01-.116 2.341 1.413 1.413 0 01-2.115-.264 43.139 43.139 0 01-2.753-4.081 1.892 1.892 0 01-.205-.51zm21.517 79.363a1.732 1.732 0 01.357-1.58 1.394 1.394 0 012.116.08 122.868 122.868 0 003.112 3.365 1.813 1.813 0 01.136 2.358 1.387 1.387 0 01-2.115.012 126.86 126.86 0 01-3.201-3.462 1.832 1.832 0 01-.407-.775zm-21.49-86.191a1.759 1.759 0 01.246-1.44 23.946 23.946 0 013.072-3.536 1.411 1.411 0 012.114.248 1.783 1.783 0 01-.103 2.345 21.1 21.1 0 00-2.695 3.102 1.376 1.376 0 01-2.097.19 1.82 1.82 0 01-.536-.91zm-12.381-57.88a1.851 1.851 0 01-.05-.615c.14-1.588.311-3.188.508-4.756a1.424 1.424 0 011.689-1.312 1.767 1.767 0 011.278 1.957 125.654 125.654 0 00-.496 4.623 1.437 1.437 0 01-1.636 1.39 1.686 1.686 0 01-1.293-1.287zm21.647 74.915a1.8 1.8 0 01.111-1.209 1.369 1.369 0 012.019-.583l.313.197a14.779 14.779 0 003.332 1.51 1.794 1.794 0 011.132 2.06 1.4 1.4 0 01-1.787 1.147 17.843 17.843 0 01-4.004-1.817l-.366-.23a1.782 1.782 0 01-.746-1.076zm22.028 78.968a1.758 1.758 0 01.238-1.427 1.373 1.373 0 012.094-.213 110.124 110.124 0 003.437 2.924 1.83 1.83 0 01.403 2.335 1.37 1.37 0 01-2.079.312 109.299 109.299 0 01-3.544-3.016 1.807 1.807 0 01-.546-.915zm-41.65-167.833a1.855 1.855 0 01-.02-.813c.29-1.425.61-2.864.95-4.278l.062-.26 1.466.441 1.446.517-1.446-.517 1.429.593-.065.268a134.545 134.545 0 00-.924 4.146 1.4 1.4 0 01-1.788 1.148 1.72 1.72 0 01-1.11-1.245zm20.509 64.07a1.607 1.607 0 01.941-1.959c.426-.14.861-.266 1.29-.373a16.894 16.894 0 013.216-.482 1.671 1.671 0 011.643 1.59 1.513 1.513 0 01-1.335 1.74 14.189 14.189 0 00-2.712.407q-.554.138-1.1.32a1.558 1.558 0 01-1.91-1.136.605.605 0 01-.036-.105zM39.556 97.161a1.824 1.824 0 01.032-1.01 127.197 127.197 0 011.543-4.403 1.375 1.375 0 011.949-.795 1.827 1.827 0 01.825 2.22 113.822 113.822 0 00-1.5 4.275 1.38 1.38 0 01-1.914.883 1.752 1.752 0 01-.935-1.17zm48.882 189.683a1.792 1.792 0 01.127-1.241 1.369 1.369 0 012.032-.533c1.239.837 2.5 1.632 3.736 2.373a1.832 1.832 0 01.699 2.265 1.369 1.369 0 01-2.002.651 89.416 89.416 0 01-3.873-2.459 1.794 1.794 0 01-.72-1.057zm-20.349-85.209a1.593 1.593 0 011.015-1.981 10.659 10.659 0 003.421-1.575 1.451 1.451 0 012.083.555 1.74 1.74 0 01-.379 2.292 13.364 13.364 0 01-4.277 1.976 1.584 1.584 0 01-1.861-1.24zM44.611 84.404a1.8 1.8 0 01.104-1.193c.65-1.39 1.33-2.777 2.025-4.126a1.369 1.369 0 012.035-.52 1.838 1.838 0 01.583 2.3 111.545 111.545 0 00-1.97 4.014 1.369 1.369 0 01-2.014.605 1.778 1.778 0 01-.764-1.085zm24.342 91.705a1.79 1.79 0 01.123-1.232 1.368 1.368 0 012.028-.547 17.827 17.827 0 013.758 3.382 1.8 1.8 0 01-.01 2.353 1.4 1.4 0 01-2.116-.146 14.5 14.5 0 00-3.056-2.748 1.782 1.782 0 01-.729-1.068zm31.19 117.296a1.818 1.818 0 01.027-.991 1.38 1.38 0 011.904-.914 65.628 65.628 0 003.99 1.63 1.8 1.8 0 011.049 2.108 1.393 1.393 0 01-1.839 1.05 65.524 65.524 0 01-4.18-1.708 1.748 1.748 0 01-.952-1.18zM76.488 192.398a1.855 1.855 0 01-.034-.732 12.469 12.469 0 00-.085-4.121 1.557 1.557 0 011.17-1.886 1.63 1.63 0 011.766 1.415 16.2 16.2 0 01.101 5.343 1.417 1.417 0 01-1.726 1.255 1.707 1.707 0 01-1.194-1.28zM51.051 72.494a1.778 1.778 0 01.193-1.361c.8-1.288 1.627-2.57 2.468-3.802a1.375 1.375 0 012.09-.241 1.828 1.828 0 01.337 2.345 111.535 111.535 0 00-2.401 3.7 1.37 1.37 0 01-2.075.332 1.806 1.806 0 01-.612-.973zm7.705-10.9a1.746 1.746 0 01.298-1.509c.926-1.158 1.89-2.311 2.863-3.433a1.39 1.39 0 012.116.03 1.807 1.807 0 01.094 2.356 110.115 110.115 0 00-2.787 3.343 1.383 1.383 0 01-2.11.06 1.819 1.819 0 01-.474-.847zm8.827-9.775A1.716 1.716 0 0168 50.181a111.572 111.572 0 013.21-3.028 1.416 1.416 0 012.113.297 1.776 1.776 0 01-.139 2.338c-1.05.953-2.103 1.945-3.128 2.952a1.407 1.407 0 01-2.114-.21 1.851 1.851 0 01-.357-.71zm9.817-8.55a1.686 1.686 0 01.543-1.747c1.156-.89 2.337-1.762 3.512-2.596a1.45 1.45 0 012.083.55 1.739 1.739 0 01-.375 2.294 108.547 108.547 0 00-3.425 2.53 1.437 1.437 0 01-2.095-.468 1.839 1.839 0 01-.243-.562zm10.665-7.238a1.657 1.657 0 01.676-1.838 113.43 113.43 0 013.769-2.132 1.491 1.491 0 012.03.798 1.693 1.693 0 01-.602 2.218 103.33 103.33 0 00-3.674 2.079 1.476 1.476 0 01-2.05-.716 1.847 1.847 0 01-.148-.409zM99.45 30.19a1.628 1.628 0 01.826-1.914 109.959 109.959 0 013.986-1.645 1.538 1.538 0 011.948 1.043 1.649 1.649 0 01-.822 2.116 101.405 101.405 0 00-3.88 1.603 1.523 1.523 0 01-1.98-.96 1.873 1.873 0 01-.078-.243zm11.969-4.365a1.6 1.6 0 01.98-1.971c1.367-.404 2.762-.782 4.146-1.128a1.59 1.59 0 011.848 1.268 1.589 1.589 0 01-1.034 1.987c-1.348.336-2.71.707-4.038 1.099a1.572 1.572 0 01-1.886-1.193zm12.409-2.81l-.032-.125a1.556 1.556 0 011.176-1.885 97.878 97.878 0 014.265-.587 1.642 1.642 0 011.716 1.486 1.538 1.538 0 01-1.236 1.829c-1.376.16-2.772.352-4.153.571a1.608 1.608 0 01-1.737-1.288zm12.698-1.187a1.92 1.92 0 01-.051-.32 1.5 1.5 0 011.37-1.707 97.45 97.45 0 014.322-.024 1.694 1.694 0 011.555 1.691 1.488 1.488 0 01-1.425 1.64 103.82 103.82 0 00-4.21.02 1.639 1.639 0 01-1.561-1.3zm12.82.491a1.877 1.877 0 01-.055-.516 1.458 1.458 0 011.55-1.504c1.425.15 2.881.333 4.33.544a1.743 1.743 0 011.382 1.871 1.444 1.444 0 01-1.602 1.43 104.32 104.32 0 00-4.217-.53 1.672 1.672 0 01-1.39-1.296zm12.777 2.133a1.859 1.859 0 01-.04-.699 1.422 1.422 0 011.7-1.295c1.421.324 2.86.682 4.276 1.065a1.78 1.78 0 011.2 2.015 1.411 1.411 0 01-1.746 1.221 110.34 110.34 0 00-4.168-1.037 1.7 1.7 0 01-1.222-1.27zm12.569 3.656a1.842 1.842 0 01-.006-.874 1.4 1.4 0 011.829-1.068 108.52 108.52 0 014.174 1.589 1.813 1.813 0 01.993 2.142 1.386 1.386 0 01-1.87.982 106.098 106.098 0 00-4.061-1.544 1.733 1.733 0 01-1.06-1.227zm12.186 5.248a1.814 1.814 0 01.053-1.068 1.375 1.375 0 011.949-.795 95.22 95.22 0 013.991 2.161 1.832 1.832 0 01.737 2.254 1.37 1.37 0 01-1.984.692 88.126 88.126 0 00-3.862-2.093 1.76 1.76 0 01-.884-1.15zm11.502 7.009a1.781 1.781 0 01.154-1.29 1.368 1.368 0 012.051-.453 80.03 80.03 0 013.689 2.831 1.829 1.829 0 01.402 2.336 1.371 1.371 0 01-2.08.313 78.545 78.545 0 00-3.538-2.716 1.791 1.791 0 01-.678-1.021zm10.368 9.028a1.738 1.738 0 01.323-1.54 1.389 1.389 0 012.115.002 69.063 69.063 0 013.16 3.578 1.792 1.792 0 01-.04 2.35 1.4 1.4 0 01-2.117-.18 64.239 64.239 0 00-2.996-3.394 1.838 1.838 0 01-.445-.816zm8.474 11.182a1.676 1.676 0 01.592-1.79 1.453 1.453 0 012.086.566c.83 1.4 1.611 2.855 2.325 4.313a1.7 1.7 0 01-.578 2.228 1.487 1.487 0 01-2.037-.77 57.082 57.082 0 00-2.182-4.051 1.89 1.89 0 01-.207-.501zm5.71 13.069a1.6 1.6 0 01.964-1.966 1.566 1.566 0 011.895 1.166 60.98 60.98 0 011.216 4.79 1.571 1.571 0 01-1.11 1.934 1.6 1.6 0 01-1.802-1.349 58.163 58.163 0 00-1.14-4.493z" fill="#b49875"/></g></g></svg>