<svg xmlns="http://www.w3.org/2000/svg" width="19.198" height="19.203"><defs><linearGradient id="a" x1=".5" x2=".5" y2="1" gradientUnits="objectBoundingBox"><stop offset="0" stop-color="#1f8a91"/><stop offset=".533" stop-color="#44a394"/><stop offset="1" stop-color="#62b796"/></linearGradient></defs><path data-name="Icon ionic-ios-settings" d="M22.114 14.1a2.471 2.471 0 011.585-2.3 9.793 9.793 0 00-1.185-2.86 2.5 2.5 0 01-1 .215 2.465 2.465 0 01-2.255-3.47A9.763 9.763 0 0016.4 4.5a2.468 2.468 0 01-4.61 0 9.792 9.792 0 00-2.85 1.185 2.465 2.465 0 01-2.255 3.47 2.422 2.422 0 01-1-.215A10.009 10.009 0 004.5 11.8a2.47 2.47 0 010 4.61 9.792 9.792 0 001.19 2.854 2.466 2.466 0 013.255 3.255A9.85 9.85 0 0011.8 23.7a2.464 2.464 0 014.6 0 9.792 9.792 0 002.855-1.185 2.468 2.468 0 013.255-3.255 9.85 9.85 0 001.185-2.855 2.482 2.482 0 01-1.581-2.305zm-7.969 3.995a4 4 0 114-4 4 4 0 01-4.001 3.999z" transform="translate(-4.5 -4.5)" fill="url(#a)"/></svg>