<svg xmlns="http://www.w3.org/2000/svg" width="24.919" height="23.278" viewBox="0 0 24.919 23.278">
  <g id="_3d-modeling" data-name="3d-modeling" transform="translate(0.1 -16.887)">
    <g id="Group_4348" data-name="Group 4348" transform="translate(0 16.987)">
      <path id="Path_467" data-name="Path 467" d="M23.457,16.987H1.26A1.262,1.262,0,0,0,0,18.247V33.924a1.262,1.262,0,0,0,1.26,1.262H7.779v1.888H5.355a1.5,1.5,0,0,0-1.5,1.5v1.014a.483.483,0,0,0,.483.483H20.377a.483.483,0,0,0,.483-.483V38.568a1.5,1.5,0,0,0-1.5-1.5H16.94V35.185h6.517a1.263,1.263,0,0,0,1.261-1.262V18.247a1.262,1.262,0,0,0-1.261-1.26ZM19.894,38.568V39.1H4.825v-.531a.531.531,0,0,1,.53-.53H19.363a.531.531,0,0,1,.531.53Zm-3.919-1.5H8.744V35.185h7.23Zm7.483-2.853H1.26a.3.3,0,0,1-.295-.3v-.971h9.225a.483.483,0,0,0,0-.966H.966V18.247a.3.3,0,0,1,.295-.295h22.2a.3.3,0,0,1,.3.295v13.74H14.526a.483.483,0,0,0,0,.966h9.227v.971A.3.3,0,0,1,23.457,34.22Z" transform="translate(0 -16.987)" fill="#07979d" stroke="#07979d" stroke-width="0.2"/>
      <path id="Path_468" data-name="Path 468" d="M309.562,220.46h-6.543a.483.483,0,0,0-.483.483v3.005a.483.483,0,0,0,.483.483h6.543a.483.483,0,0,0,.483-.483v-3.005A.483.483,0,0,0,309.562,220.46Zm-.483,3.005H303.5v-2.04h5.577v2.04Z" transform="translate(-287.93 -210.637)" fill="#07979d" stroke="#07979d" stroke-width="0.2"/>
      <path id="Path_469" data-name="Path 469" d="M51.312,66.266h-.069a5.026,5.026,0,0,0-.364-.876l.047-.048a.9.9,0,0,0,0-1.278l-.831-.831a.894.894,0,0,0-.64-.266h0a.894.894,0,0,0-.638.265l-.048.048a5.053,5.053,0,0,0-.876-.363V62.85a.9.9,0,0,0-.9-.9H45.815a.9.9,0,0,0-.9.9v.068a5.056,5.056,0,0,0-.876.363l-.048-.048a.9.9,0,0,0-.639-.265h0a.893.893,0,0,0-.636.264l-.834.832a.9.9,0,0,0,0,1.277l.049.049a4.99,4.99,0,0,0-.363.875h-.068a.9.9,0,0,0-.9.9v1.177a.9.9,0,0,0,.9.9h.068a4.994,4.994,0,0,0,.363.875l-.05.05a.909.909,0,0,0,0,1.277l.833.832a.906.906,0,0,0,1.277,0l.048-.048a5.025,5.025,0,0,0,.876.363v.068a.9.9,0,0,0,.9.9h1.177a.9.9,0,0,0,.9-.9V72.6a5.019,5.019,0,0,0,.876-.363l.048.048a.9.9,0,0,0,1.277,0l.832-.832a.9.9,0,0,0,0-1.278l-.048-.048a5.023,5.023,0,0,0,.364-.875h.069a.9.9,0,0,0,.9-.9V67.169A.9.9,0,0,0,51.312,66.266Zm-.063,2.019h-.377a.483.483,0,0,0-.471.377,4.07,4.07,0,0,1-.534,1.285.483.483,0,0,0,.067.6l.267.267-.744.744-.266-.266a.483.483,0,0,0-.6-.067,4.066,4.066,0,0,1-1.286.532.483.483,0,0,0-.377.471V72.6H45.878v-.377a.483.483,0,0,0-.377-.471,4.066,4.066,0,0,1-1.286-.532.483.483,0,0,0-.6.067l-.266.266-.745-.744.267-.266a.483.483,0,0,0,.067-.6,4.042,4.042,0,0,1-.533-1.284.483.483,0,0,0-.471-.377h-.377V67.232h.377a.483.483,0,0,0,.471-.377,4.041,4.041,0,0,1,.533-1.284.483.483,0,0,0-.066-.6L42.6,64.7l.744-.743.266.266a.483.483,0,0,0,.6.067,4.1,4.1,0,0,1,1.287-.534.483.483,0,0,0,.376-.471v-.377h1.052v.377a.483.483,0,0,0,.376.471,4.1,4.1,0,0,1,1.287.534.483.483,0,0,0,.6-.067l.266-.266.743.743-.267.268a.483.483,0,0,0-.066.6,4.071,4.071,0,0,1,.534,1.285.483.483,0,0,0,.471.377h.377v1.053Z" transform="translate(-38.632 -59.775)" fill="#07979d" stroke="#07979d" stroke-width="0.2"/>
      <path id="Path_470" data-name="Path 470" d="M108.268,116.615a.487.487,0,0,0-.23-.356l-2.332-1.405a.483.483,0,0,0-.5,0l-2.333,1.405a.489.489,0,0,0-.234.414v2.747a.483.483,0,0,0,.234.414l2.333,1.405a.488.488,0,0,0,.5,0l2.332-1.405a.483.483,0,0,0,.234-.413v-2.747A.493.493,0,0,0,108.268,116.615Zm-2.811-.785,1.4.842-1.4.842-1.4-.842Zm-1.85,1.7,1.368.824v1.619l-1.368-.824Zm3.7,1.62-1.366.824V118.35l1.366-.823Z" transform="translate(-97.686 -110.062)" fill="#07979d" stroke="#07979d" stroke-width="0.2"/>
      <path id="Path_471" data-name="Path 471" d="M347.919,83.718h4.375a.483.483,0,1,0,0-.966h-4.375a.483.483,0,1,0,0,.966Z" transform="translate(-330.662 -79.577)" fill="#07979d" stroke="#07979d" stroke-width="0.2"/>
      <path id="Path_472" data-name="Path 472" d="M303.02,83.718h0a.483.483,0,1,0-.485-.483A.482.482,0,0,0,303.022,83.718Z" transform="translate(-287.931 -79.577)" fill="#07979d" stroke="#07979d" stroke-width="0.2"/>
      <path id="Path_473" data-name="Path 473" d="M347.89,127.031h4.374a.483.483,0,0,0,0-.966H347.89a.483.483,0,1,0,0,.966Z" transform="translate(-330.635 -120.799)" fill="#07979d" stroke="#07979d" stroke-width="0.2"/>
      <path id="Path_474" data-name="Path 474" d="M302.99,127.031h0a.483.483,0,1,0-.484-.483A.482.482,0,0,0,302.991,127.031Z" transform="translate(-287.902 -120.799)" fill="#07979d" stroke="#07979d" stroke-width="0.2"/>
      <path id="Path_475" data-name="Path 475" d="M347.834,170.345h4.375a.483.483,0,1,0,0-.966h-4.375a.483.483,0,0,0,0,.966Z" transform="translate(-330.581 -162.022)" fill="#07979d" stroke="#07979d" stroke-width="0.2"/>
      <path id="Path_476" data-name="Path 476" d="M302.935,170.345h0a.483.483,0,1,0-.485-.483A.482.482,0,0,0,302.937,170.345Z" transform="translate(-287.85 -162.022)" fill="#07979d" stroke="#07979d" stroke-width="0.2"/>
      <path id="Path_477" data-name="Path 477" d="M246.468,327.7a.483.483,0,1,0,0,.966h0a.483.483,0,1,0,0-.966Z" transform="translate(-234.109 -312.695)" fill="#07979d" stroke="#07979d" stroke-width="0.2"/>
    </g>
  </g>
</svg>
