<svg id="analysis" xmlns="http://www.w3.org/2000/svg" width="21.098" height="21.098" viewBox="0 0 21.098 21.098">
  <path id="Path_361" data-name="Path 361" d="M20.48,19.862H1.236V.618A.618.618,0,0,0,0,.618V20.48a.618.618,0,0,0,.618.618H20.48a.618.618,0,1,0,0-1.236Z" fill="#07979d"/>
  <path id="Path_362" data-name="Path 362" d="M60.618,335.986h2.514a.618.618,0,0,0,.618-.618v-3.75a.618.618,0,0,0-.618-.618H60.618a.618.618,0,0,0-.618.618v3.75A.618.618,0,0,0,60.618,335.986Z" transform="translate(-57.528 -317.36)" fill="#07979d"/>
  <path id="Path_363" data-name="Path 363" d="M181.618,271a.618.618,0,0,0-.618.618v6.222a.618.618,0,0,0,.618.618h2.472a.618.618,0,0,0,.618-.618v-6.222a.618.618,0,0,0-.618-.618Z" transform="translate(-173.541 -259.833)" fill="#07979d"/>
  <path id="Path_364" data-name="Path 364" d="M301.618,211a.618.618,0,0,0-.618.618v8.695a.618.618,0,0,0,.618.618h2.472a.618.618,0,0,0,.618-.618v-8.695a.618.618,0,0,0-.618-.618Z" transform="translate(-288.597 -202.305)" fill="#07979d"/>
  <path id="Path_365" data-name="Path 365" d="M424.132,151h-2.514a.618.618,0,0,0-.618.618v11.167a.618.618,0,0,0,.618.618h2.514a.618.618,0,0,0,.618-.618V151.618A.618.618,0,0,0,424.132,151Z" transform="translate(-403.652 -144.778)" fill="#07979d"/>
  <path id="Path_366" data-name="Path 366" d="M60.069,40.564a.619.619,0,0,0,.837.252L75.3,33.088l-.363.726a.618.618,0,0,0,1.106.553l1.236-2.472A.618.618,0,0,0,76.725,31H73.635a.618.618,0,0,0,0,1.236h.639L60.32,39.727A.619.619,0,0,0,60.069,40.564Z" transform="translate(-57.523 -29.723)" fill="#07979d"/>
</svg>
