<svg xmlns="http://www.w3.org/2000/svg" width="1197.497" height="971.175"><path data-name="Path 1" d="M709.019 163.982c-102.5-1.6-215.967-84.237-305.587-110-82.857-23.817-175.8-22.276-251.291 19.359-35.428 19.539-66.04 47.282-90.759 79.311-55.834 72.344-80.521 173.605-44.443 257.565 45.07 104.888 163.68 152.278 256.838 218.266a610.708 610.708 0 01170.9 184.878c20.656 34.634 38.28 71.878 66.682 100.506 39.645 39.958 97.61 58.96 153.87 57.194s110.745-22.915 157.888-53.67c71.258-46.487 129.181-115.519 209.294-144.167 46.063-16.473 100.317-20.345 133.419-56.366 12.217-13.294 20.307-30 25.23-47.369 21.874-77.157-16.952-156.554-42.318-232.632a711.058 711.058 0 01-36.176-204.921c-1.817-65.663 4.381-136.042-29.522-192.3-54.745-90.838-144.1-3.115-193.715 40.98a398.6 398.6 0 01-118.083 72.604c-20.059 7.923-40.906 11.1-62.227 10.762z" fill="#58aa82" opacity=".05"/></svg>