<svg xmlns="http://www.w3.org/2000/svg" width="24.394" height="21.206" viewBox="0 0 24.394 21.206">
  <g id="community" transform="translate(0.001 -32.855)">
    <g id="Group_4317" data-name="Group 4317" transform="translate(-0.001 32.855)">
      <g id="Group_4316" data-name="Group 4316" transform="translate(0 0)">
        <circle id="Ellipse_49" data-name="Ellipse 49" cx="2.848" cy="2.848" r="2.848" transform="translate(9.304)" fill="#07979d"/>
        <path id="Path_429" data-name="Path 429" d="M32.89,175.612l-2.655-.554a2.174,2.174,0,0,0-2.27.962,9.771,9.771,0,0,0-1.476-.607v-1.579a2.176,2.176,0,0,0-2.167-2.171H21.608a2.175,2.175,0,0,0-2.17,2.171v1.587a9.6,9.6,0,0,0-1.469.605,2.175,2.175,0,0,0-2.272-.968l-2.657.554a2.179,2.179,0,0,0-1.679,2.571l.667,3.186a2.176,2.176,0,0,0,2.567,1.68l.841-.176a6.145,6.145,0,0,0,1.748,1.68,10.639,10.639,0,0,0,5.78,1.579c3.33,0,6.2-1.339,7.52-3.262l.854.179a2.176,2.176,0,0,0,2.566-1.68l.668-3.186A2.181,2.181,0,0,0,32.89,175.612Zm-9.927,9.432a9.515,9.515,0,0,1-5.183-1.4,5.462,5.462,0,0,1-1.175-1.016l.644-.135a2.176,2.176,0,0,0,1.681-2.568l-.6-2.864a8.181,8.181,0,0,1,1.1-.492v.522a2.176,2.176,0,0,0,2.17,2.169h2.714a2.176,2.176,0,0,0,2.167-2.169v-.55a8.257,8.257,0,0,1,1.115.488l-.606,2.9a2.179,2.179,0,0,0,1.682,2.568l.65.136A8.455,8.455,0,0,1,22.963,185.044Z" transform="translate(-10.767 -164.926)" fill="#07979d"/>
        <circle id="Ellipse_50" data-name="Ellipse 50" cx="2.848" cy="2.848" r="2.848" transform="translate(18.697 3.745)" fill="#07979d"/>
        <path id="Path_430" data-name="Path 430" d="M3.432,115.625A2.849,2.849,0,1,0,.06,113.418,2.854,2.854,0,0,0,3.432,115.625Z" transform="translate(0.001 -106.243)" fill="#07979d"/>
      </g>
    </g>
  </g>
</svg>
