<svg xmlns="http://www.w3.org/2000/svg" width="22" height="22" viewBox="0 0 22 22">
  <path id="content-marketing" d="M13.32,22H5.156A5.162,5.162,0,0,1,0,16.844V5.156A5.162,5.162,0,0,1,5.156,0H16.844A5.162,5.162,0,0,1,22,5.156v8.229a.859.859,0,1,1-1.719,0V5.156a3.441,3.441,0,0,0-3.437-3.437H5.156A3.441,3.441,0,0,0,1.719,5.156V16.844a3.441,3.441,0,0,0,3.438,3.438H13.32a.859.859,0,0,1,0,1.719ZM17.7,5.414a.859.859,0,0,0-.859-.859H8.98a.859.859,0,0,0,0,1.719h7.863A.859.859,0,0,0,17.7,5.414Zm0,3.438a.859.859,0,0,0-.859-.859H5.156a.859.859,0,0,0,0,1.719H16.844A.859.859,0,0,0,17.7,8.852ZM9.109,12.289a.859.859,0,0,0-.859-.859H5.156a.859.859,0,0,0,0,1.719H8.25A.859.859,0,0,0,9.109,12.289ZM4.3,5.328A1.074,1.074,0,1,0,5.371,4.254,1.074,1.074,0,0,0,4.3,5.328ZM21.081,21.081a3.14,3.14,0,0,0,0-4.436l-3.012-3.012a6.2,6.2,0,0,0-3.177-1.7l-2.435-.487a.859.859,0,0,0-1.011,1.011l.487,2.435a6.2,6.2,0,0,0,1.7,3.177l3.012,3.012a3.137,3.137,0,0,0,4.436,0Zm-6.526-7.463a4.481,4.481,0,0,1,2.3,1.23l3.012,3.012a1.418,1.418,0,1,1-2.005,2.005l-3.012-3.012a4.482,4.482,0,0,1-1.23-2.3l-.234-1.171Z" fill="#07979d"/>
</svg>
