<svg xmlns="http://www.w3.org/2000/svg" width="19.482" height="22.167" viewBox="0 0 19.482 22.167">
  <g id="headphones" transform="translate(-31)">
    <g id="Group_4307" data-name="Group 4307" transform="translate(33.598 9.092)">
      <g id="Group_4306" data-name="Group 4306">
        <path id="Path_416" data-name="Path 416" d="M92.948,210A1.95,1.95,0,0,0,91,211.948v5.282a1.948,1.948,0,0,0,3.9,0v-5.282A1.95,1.95,0,0,0,92.948,210Z" transform="translate(-91 -210)" fill="#07979d"/>
      </g>
    </g>
    <g id="Group_4309" data-name="Group 4309" transform="translate(31 10.493)">
      <g id="Group_4308" data-name="Group 4308">
        <path id="Path_417" data-name="Path 417" d="M32.3,242.913a3.222,3.222,0,0,1,.055-.547A1.944,1.944,0,0,0,31,244.212V246.9a1.944,1.944,0,0,0,1.354,1.846,3.222,3.222,0,0,1-.055-.547Z" transform="translate(-31 -242.366)" fill="#07979d"/>
      </g>
    </g>
    <g id="Group_4311" data-name="Group 4311" transform="translate(38.793 9.092)">
      <g id="Group_4310" data-name="Group 4310">
        <path id="Path_418" data-name="Path 418" d="M218.144,210a1.95,1.95,0,0,0-1.948,1.948v5.282a1.95,1.95,0,0,0,1.948,1.948,1.922,1.922,0,0,0,.558-.091,1.944,1.944,0,0,1-1.857,1.39h-2.068a1.948,1.948,0,1,0,0,1.3h2.068a3.251,3.251,0,0,0,3.247-3.247v-6.581A1.95,1.95,0,0,0,218.144,210Z" transform="translate(-211 -210)" fill="#07979d"/>
      </g>
    </g>
    <g id="Group_4313" data-name="Group 4313" transform="translate(49.128 10.493)">
      <g id="Group_4312" data-name="Group 4312">
        <path id="Path_419" data-name="Path 419" d="M449.722,242.366a3.222,3.222,0,0,1,.055.547v5.282a3.222,3.222,0,0,1-.055.547,1.944,1.944,0,0,0,1.354-1.846v-2.684A1.944,1.944,0,0,0,449.722,242.366Z" transform="translate(-449.722 -242.366)" fill="#07979d"/>
      </g>
    </g>
    <g id="Group_4315" data-name="Group 4315" transform="translate(31)">
      <g id="Group_4314" data-name="Group 4314">
        <path id="Path_420" data-name="Path 420" d="M40.741,0A9.752,9.752,0,0,0,31,9.741v.017a3.216,3.216,0,0,1,1.329-.6,8.432,8.432,0,0,1,16.825,0,3.217,3.217,0,0,1,1.329.6V9.741A9.752,9.752,0,0,0,40.741,0Z" transform="translate(-31 0)" fill="#07979d"/>
      </g>
    </g>
  </g>
</svg>
