<svg xmlns="http://www.w3.org/2000/svg" width="35.801" height="33.948"><defs><filter id="a" x="0" y="0" width="35.801" height="33.948" filterUnits="userSpaceOnUse"><feOffset dy="3"/><feGaussianBlur stdDeviation="3" result="blur"/><feFlood flood-opacity=".161"/><feComposite operator="in" in2="blur"/><feComposite in="SourceGraphic"/></filter></defs><g filter="url(#a)"><path data-name="heart" d="M17.9 21.448a.985.985 0 01-.65-.244 210.121 210.121 0 00-1.91-1.643h0a35.53 35.53 0 01-4.174-3.918A6.254 6.254 0 019.5 11.549a5.251 5.251 0 011.333-3.586A4.518 4.518 0 0114.194 6.5a4.226 4.226 0 012.64.911A5.4 5.4 0 0117.9 8.526a5.4 5.4 0 011.068-1.115 4.226 4.226 0 012.64-.911 4.518 4.518 0 013.361 1.463 5.251 5.251 0 011.331 3.586 6.253 6.253 0 01-1.666 4.093 35.526 35.526 0 01-4.171 3.915c-.578.493-1.234 1.051-1.914 1.646a.986.986 0 01-.649.244zM14.194 7.484a3.545 3.545 0 00-2.638 1.146 4.272 4.272 0 00-1.072 2.919 5.262 5.262 0 001.44 3.465 34.964 34.964 0 004.052 3.794h0c.58.494 1.236 1.054 1.92 1.652.688-.6 1.346-1.16 1.926-1.654a34.973 34.973 0 004.052-3.794 5.262 5.262 0 001.44-3.465 4.272 4.272 0 00-1.069-2.917 3.544 3.544 0 00-2.637-1.146 3.264 3.264 0 00-2.038.706 4.776 4.776 0 00-1.136 1.31.621.621 0 01-1.067 0 4.771 4.771 0 00-1.136-1.31 3.264 3.264 0 00-2.037-.706zm0 0" fill="#1e8991" stroke="#1e8991"/></g></svg>