<svg xmlns="http://www.w3.org/2000/svg" width="18.5" height="16.414"><g data-name="Group 4260"><g data-name="Group 4259" fill="#3c9d93"><path data-name="Path 5299" d="M15.071 12.999l-3.394-4.758h1.975a5.447 5.447 0 00-10.858-.677c-.41 3.141 1.6 5.466 5.382 6.19v2.558c-3.015.734-7.172-2.6-8-6.4A8.245 8.245 0 1116.495 8.2h2z"/><path data-name="Path 5300" d="M7.533 4.819h1.354c0 1.205.009 2.377-.012 3.547 0 .139-.151.294-.263.411-.615.643-1.24 1.277-1.941 2l-.9-1.129a11.98 11.98 0 01.927-.846 2.074 2.074 0 00.846-2.064 17.325 17.325 0 01-.011-1.919z"/></g></g></svg>