<svg xmlns="http://www.w3.org/2000/svg" width="7.856" height="10.002"><g data-name="5Rarx7.tif"><g data-name="Group 984" fill="red"><path data-name="Path 1300" d="M3.931 2.86h2.981a.361.361 0 01.409.4v5.651a1.066 1.066 0 01-1.089 1.087h-4.6a1.071 1.071 0 01-1.1-1.1v-5.64a.364.364 0 01.4-.4h2.992zm.536 3.39V4.519a.747.747 0 00-.014-.177.538.538 0 00-1.063.137v3.54a.513.513 0 00.011.111.538.538 0 001.066-.116V6.25zm-1.856-.011V4.508a.545.545 0 00-.53-.583.536.536 0 00-.547.576v3.507a.626.626 0 00.014.143.539.539 0 001.063-.125V6.239zm3.714 0V4.497a.7.7 0 00-.019-.177.539.539 0 00-1.059.137c-.005.264 0 .528 0 .792v2.75a.535.535 0 00.235.469.537.537 0 00.844-.451l-.001-1.778z"/><path data-name="Path 1301" d="M3.096 1.099a.654.654 0 01-.244-.56.532.532 0 01.522-.532c.368-.008.737-.006 1.1 0a.506.506 0 01.492.354.605.605 0 01-.138.651c-.024.022-.049.042-.1.086h2.555a.537.537 0 01.567.511.529.529 0 01-.531.554H.537a.529.529 0 01-.2-1.023.785.785 0 01.251-.04h2.378z"/></g></g></svg>