<svg xmlns="http://www.w3.org/2000/svg" width="61.2" height="61.2"><defs><linearGradient id="a" x1=".5" x2=".5" y2="1" gradientUnits="objectBoundingBox"><stop offset="0" stop-color="#4b9fa3"/><stop offset="1" stop-color="#62b796"/></linearGradient></defs><path data-name="Path 189" d="M173.252 10.661v7.983H136V8h34.591a2.669 2.669 0 012.661 2.661z" transform="translate(-113.383 -6.67)" fill="url(#a)"/><g data-name="Group 233" fill="url(#a)"><path data-name="Path 190" d="M57.209 0H3.991A4 4 0 000 3.991v53.218A4 4 0 003.991 61.2h53.218a4 4 0 003.991-3.991V3.991A4 4 0 0057.209 0zM13.3 2.661h7.983v7.983H13.3zM2.661 3.991a1.332 1.332 0 011.33-1.33h6.652v7.983H2.661zm55.878 53.218a1.332 1.332 0 01-1.33 1.33H3.991a1.332 1.332 0 01-1.33-1.33V13.3h55.878zm0-46.565H23.948V2.661h33.261a1.332 1.332 0 011.33 1.33z"/><path data-name="Path 191" d="M45.235 39.913v9.313a1.332 1.332 0 01-1.33 1.33h-5.323a1.33 1.33 0 000 2.661h5.322a4 4 0 003.991-3.991v-8.762l4.932-4.932a1.329 1.329 0 000-1.881l-4.932-4.932v-6.1a4 4 0 00-3.991-3.993h-5.322a1.33 1.33 0 000 2.661h5.322a1.332 1.332 0 011.33 1.33v6.652a1.327 1.327 0 00.39.941l4.381 4.381-4.381 4.381a1.327 1.327 0 00-.389.941z"/><path data-name="Path 192" d="M13.304 40.464v8.762a4 4 0 003.991 3.991h5.322a1.33 1.33 0 000-2.661h-5.322a1.332 1.332 0 01-1.33-1.33v-9.313a1.327 1.327 0 00-.39-.941l-4.381-4.381 4.381-4.381a1.327 1.327 0 00.39-.941v-6.652a1.332 1.332 0 011.33-1.33h5.322a1.33 1.33 0 100-2.661h-5.322a4 4 0 00-3.991 3.991v6.1l-4.932 4.932a1.329 1.329 0 000 1.881z"/></g></svg>