<svg xmlns="http://www.w3.org/2000/svg" width="73.364" height="73.364"><path data-name="Path 4722" d="M36.682 7.487a5.9 5.9 0 105.9 5.9 5.9 5.9 0 00-5.9-5.9zm0 9.644a3.747 3.747 0 113.747-3.747 3.751 3.751 0 01-3.747 3.747zm-14.106 16.08a4.669 4.669 0 00-3.321-1.411h-.035a4.7 4.7 0 00-4.607 3.762l-2.269-2.221a3.473 3.473 0 01-1.009-2.015l-1.71-12.865A4.833 4.833 0 000 19.1v18.479a7.482 7.482 0 001.774 4.834l14.541 17.143a3.626 3.626 0 01.86 2.343v10.39a1.075 1.075 0 002.149 0V61.9a5.78 5.78 0 00-1.37-3.734L3.413 41.023a5.33 5.33 0 01-1.264-3.444V19.1a2.684 2.684 0 015.345-.353L9.2 31.612a5.631 5.631 0 001.64 3.268l7.319 7.164 2.593 2.538a1.075 1.075 0 101.5-1.536l-4.82-4.718a2.552 2.552 0 113.607-3.612l9.943 10.13a7.151 7.151 0 012.059 5.038v22.4a1.075 1.075 0 002.149 0v-22.4a9.289 9.289 0 00-2.67-6.544zm39.964-18.4a2.743 2.743 0 000-3.515 32.087 32.087 0 00-11.206-8.228A35.74 35.74 0 0036.682 0 31.353 31.353 0 0021.57 3.276a1.075 1.075 0 00.9 1.95A32.353 32.353 0 0126.6 3.65a17.012 17.012 0 00-2.986 9.733 17.139 17.139 0 002.448 8.917 32.933 32.933 0 01-3.162-1.218 29.922 29.922 0 01-10.453-7.671.61.61 0 010-.708 28.764 28.764 0 015.777-5.091 1.075 1.075 0 10-1.2-1.785 30.917 30.917 0 00-6.2 5.473 2.743 2.743 0 000 3.515 32.086 32.086 0 0011.206 8.23 35.738 35.738 0 0014.652 3.068 35.741 35.741 0 0014.652-3.068 32.088 32.088 0 0011.206-8.231zm-25.858 9.153a34.593 34.593 0 01-7.25-.757 14.431 14.431 0 01-3.666-9.823 14.176 14.176 0 014.505-10.637 34.938 34.938 0 0112.808-.011A14.171 14.171 0 0147.6 13.383a14.432 14.432 0 01-3.666 9.823 34.6 34.6 0 01-7.252.758zM47.3 22.3a17.14 17.14 0 002.446-8.914 17.01 17.01 0 00-2.991-9.74 32.831 32.831 0 013.7 1.387A29.924 29.924 0 0160.912 12.7a.61.61 0 010 .708 29.923 29.923 0 01-10.453 7.671A32.8 32.8 0 0147.3 22.3zm-8.058 38.69a1.075 1.075 0 00-1.075 1.075v10.224a1.075 1.075 0 002.149 0V62.062a1.075 1.075 0 00-1.072-1.075zM68.53 14.265a4.848 4.848 0 00-4.791 4.2l-1.711 12.864a3.473 3.473 0 01-1.009 2.015l-2.269 2.221a4.7 4.7 0 00-7.963-2.354L40.844 43.34a9.288 9.288 0 00-2.675 6.544v7.163a1.075 1.075 0 102.149 0v-7.163a7.15 7.15 0 012.059-5.038l9.943-10.13a2.552 2.552 0 113.607 3.612l-4.82 4.718a1.075 1.075 0 101.5 1.536l9.912-9.7a5.632 5.632 0 001.636-3.268l1.711-12.868a2.684 2.684 0 015.345.353v18.48a5.33 5.33 0 01-1.264 3.444L55.409 58.166a5.779 5.779 0 00-1.37 3.734v10.389a1.075 1.075 0 002.149 0V61.9a3.626 3.626 0 01.86-2.343l14.541-17.144a7.482 7.482 0 001.774-4.834V19.1a4.839 4.839 0 00-4.833-4.833z" fill="#fff"/></svg>