<svg xmlns="http://www.w3.org/2000/svg" width="50.778" height="60.933"><defs><linearGradient id="a" x1=".5" x2=".5" y2="1" gradientUnits="objectBoundingBox"><stop offset="0" stop-color="#4b9fa3"/><stop offset="1" stop-color="#62b796"/></linearGradient></defs><g transform="translate(-2)" fill="url(#a)"><path data-name="Path 194" d="M46.43 60.933H8.347A6.356 6.356 0 012 54.586V6.347A6.356 6.356 0 018.347 0H46.43a6.356 6.356 0 016.347 6.347v48.239a6.356 6.356 0 01-6.347 6.347zM8.347 2.539a3.813 3.813 0 00-3.808 3.808v48.239a3.813 3.813 0 003.808 3.808H46.43a3.813 3.813 0 003.808-3.808V6.347a3.813 3.813 0 00-3.808-3.808z"/><path data-name="Path 195" d="M43.891 30.467h-5.078a1.27 1.27 0 110-2.539h5.078a1.27 1.27 0 110 2.539z"/><path data-name="Path 196" d="M43.891 22.85h-5.078a1.27 1.27 0 110-2.539h5.078a1.27 1.27 0 110 2.539z"/><path data-name="Path 197" d="M43.891 38.083h-5.078a1.27 1.27 0 010-2.539h5.078a1.27 1.27 0 110 2.539z"/><path data-name="Path 198" d="M43.891 45.7h-5.078a1.27 1.27 0 110-2.539h5.078a1.27 1.27 0 110 2.539z"/><path data-name="Path 199" d="M43.892 53.317H10.886a1.27 1.27 0 110-2.539h33.006a1.27 1.27 0 110 2.539z"/><path data-name="Path 200" d="M22.311 45.7a12.694 12.694 0 1112.695-12.695A12.709 12.709 0 0122.311 45.7zm0-22.85a10.156 10.156 0 1010.156 10.155A10.166 10.166 0 0022.311 22.85z"/><path data-name="Path 201" d="M14.233 42.354a1.268 1.268 0 01-.9-2.166l7.712-7.708v-10.9a1.27 1.27 0 112.539 0v11.425a1.279 1.279 0 01-.371.9l-8.081 8.078a1.275 1.275 0 01-.899.371z"/></g></svg>