<svg xmlns="http://www.w3.org/2000/svg" width="11.533" height="22.151"><path data-name="Icon metro-dollar2" d="M11.533 14.648a4.7 4.7 0 01-1.23 3.257 5.308 5.308 0 01-3.2 1.687v2.163a.381.381 0 01-.4.4h-1.66a.4.4 0 01-.4-.4v-2.158a7.791 7.791 0 01-1.576-.383 7.591 7.591 0 01-2.169-1.143 7.045 7.045 0 01-.575-.464q-.154-.148-.216-.223a.375.375 0 01-.025-.507l1.273-1.669a.385.385 0 01.284-.148.306.306 0 01.3.111l.025.025a6.455 6.455 0 003 1.545 4.317 4.317 0 00.915.1 3 3 0 001.761-.532 1.731 1.731 0 00.766-1.512 1.253 1.253 0 00-.185-.655 2.316 2.316 0 00-.414-.519 3.393 3.393 0 00-.723-.464q-.494-.253-.816-.4t-.989-.4q-.482-.2-.76-.309t-.76-.328q-.482-.216-.773-.383t-.7-.439a4.353 4.353 0 01-.661-.525 7.7 7.7 0 01-.538-.606 3.024 3.024 0 01-.439-.717 4.958 4.958 0 01-.26-.822 4.29 4.29 0 01-.105-.964 4.227 4.227 0 011.213-2.989 5.656 5.656 0 013.152-1.656V.397a.4.4 0 01.4-.4h1.665a.381.381 0 01.4.4v2.174a6.875 6.875 0 011.366.284 7.92 7.92 0 011.075.414 5.956 5.956 0 01.785.464q.371.26.482.358t.185.173a.358.358 0 01.062.47l-1 1.8a.337.337 0 01-.284.2.394.394 0 01-.334-.087q-.037-.037-.179-.148t-.482-.328a6.379 6.379 0 00-.723-.4 5.521 5.521 0 00-.921-.321 4.124 4.124 0 00-1.057-.142 3.212 3.212 0 00-1.916.532 1.662 1.662 0 00-.637 1.965 1.391 1.391 0 00.365.513 5.447 5.447 0 00.488.408 4.354 4.354 0 00.692.383q.464.216.748.334t.865.34q.655.247 1 .389t.939.433a7.467 7.467 0 01.933.525 7.892 7.892 0 01.766.618 3.2 3.2 0 01.655.785 4.48 4.48 0 01.389.946 4.078 4.078 0 01.161 1.162z" fill="#1e8991"/></svg>