<svg xmlns="http://www.w3.org/2000/svg" width="56.103" height="62.6"><defs><linearGradient id="a" y1=".504" x2="1" y2=".504" gradientUnits="objectBoundingBox"><stop offset="0" stop-color="#4b9fa3"/><stop offset="1" stop-color="#62b796"/></linearGradient></defs><path d="M46.975 60.155a2.445 2.445 0 01-2.446 2.445h-8.178a9.792 9.792 0 01-9.781-9.781V9.781A9.792 9.792 0 0136.351 0h30.064A9.792 9.792 0 0176.2 9.781V24.82a2.445 2.445 0 11-4.891 0V9.781a4.9 4.9 0 00-4.891-4.891H36.351a4.9 4.9 0 00-4.891 4.891v43.038a4.9 4.9 0 004.891 4.891h8.178a2.445 2.445 0 012.446 2.445zM63.97 14.672H38.783a2.445 2.445 0 100 4.891H63.97a2.445 2.445 0 000-4.891zM66.415 26.9a2.445 2.445 0 00-2.445-2.445H38.783a2.445 2.445 0 000 4.891H63.97a2.445 2.445 0 002.445-2.446zm-27.632 7.334a2.445 2.445 0 100 4.891h15.3a2.445 2.445 0 000-4.891zm41.745 11.545l-13.4 13.372a2.444 2.444 0 01-1.075.626l-9.87 2.734a2.445 2.445 0 01-2.993-3.067l2.924-9.625a2.446 2.446 0 01.613-1.02L70.155 35.4a7.336 7.336 0 0110.373 10.379zm-7.392.468l-3.459-3.459-9.059 9.038-1.453 4.784 4.965-1.375zm3.934-7.384a2.448 2.448 0 00-3.458 0l-.472.471 3.46 3.459.474-.473a2.448 2.448 0 00-.005-3.457z" transform="translate(-26.57)" fill="url(#a)"/></svg>