<svg xmlns="http://www.w3.org/2000/svg" width="24" height="24"><path data-name="Path 4689" d="M12 3.457a.75.75 0 01-.75-.75V.75a.75.75 0 011.5 0v1.957a.75.75 0 01-.75.75z" fill="#1e8991"/><path data-name="Path 4690" d="M18.571 6.179a.751.751 0 01-.53-1.281l1.384-1.384a.75.75 0 011.061 1.061L19.1 5.959a.752.752 0 01-.529.22z" fill="#1e8991"/><path data-name="Path 4691" d="M23.25 12.75h-1.957a.75.75 0 110-1.5h1.957a.75.75 0 010 1.5z" fill="#1e8991"/><path data-name="Path 4692" d="M19.955 20.7a.744.744 0 01-.53-.22l-1.384-1.38a.75.75 0 011.059-1.06l1.384 1.384a.75.75 0 01-.531 1.281z" fill="#1e8991"/><path data-name="Path 4693" d="M4.045 20.7a.751.751 0 01-.53-1.281L4.9 18.04a.75.75 0 011.06 1.06l-1.384 1.385a.748.748 0 01-.531.215z" fill="#1e8991"/><path data-name="Path 4694" d="M2.707 12.75H.75a.75.75 0 010-1.5h1.957a.75.75 0 010 1.5z" fill="#1e8991"/><path data-name="Path 4695" d="M5.429 6.179a.744.744 0 01-.53-.22L3.515 4.575a.75.75 0 011.061-1.061L5.96 4.9a.75.75 0 01-.531 1.281z" fill="#1e8991"/><path data-name="Path 4696" d="M15 21v1.25A1.758 1.758 0 0113.25 24h-2.5A1.823 1.823 0 019 21.96V21z" fill="#1e8991"/><path data-name="Path 4697" d="M16.41 6.56a7 7 0 10-8.62 11.03 3.02 3.02 0 011.14 1.91v.01A.17.17 0 019 19.5h6a.09.09 0 01.05.01v-.01a3.336 3.336 0 011.28-2 7 7 0 00.08-10.94zm-.66 5.94a.755.755 0 01-.75-.75A2.748 2.748 0 0012.25 9a.75.75 0 010-1.5 4.259 4.259 0 014.25 4.25.755.755 0 01-.75.75z" fill="#1e8991"/><path data-name="Path 4698" d="M8.93 19.5H9a.17.17 0 00-.07.01z" fill="#1e8991"/><path data-name="Path 4699" d="M15.05 19.5v.01a.09.09 0 00-.05-.01z" fill="#1e8991"/></svg>