<svg data-name="Group 5" xmlns="http://www.w3.org/2000/svg" width="32.013" height="32.013"><g data-name="instagram (1)" fill="#fff"><path data-name="Path 7" d="M23.348 0H8.666A8.675 8.675 0 00.001 8.666v14.682a8.675 8.675 0 008.666 8.665h14.681a8.675 8.675 0 008.665-8.665V8.666A8.675 8.675 0 0023.348 0zm6.789 23.348a6.8 6.8 0 01-6.789 6.789H8.666a6.8 6.8 0 01-6.789-6.789V8.666a6.8 6.8 0 016.789-6.789h14.682a6.8 6.8 0 016.789 6.789zm0 0"/><path data-name="Path 8" d="M16.006 7.249a8.753 8.753 0 108.753 8.753 8.763 8.763 0 00-8.753-8.753zm0 15.63a6.877 6.877 0 116.877-6.877 6.884 6.884 0 01-6.877 6.881zm0 0"/><path data-name="Path 9" d="M24.969 4.144a2.587 2.587 0 102.587 2.587 2.589 2.589 0 00-2.587-2.587zm0 3.3a.71.71 0 11.71-.71.711.711 0 01-.71.706zm0 0"/></g></svg>