<svg xmlns="http://www.w3.org/2000/svg" width="312" height="312"><defs><filter id="a" x="0" y="0" width="312" height="312" filterUnits="userSpaceOnUse"><feOffset dx="10" dy="20"/><feGaussianBlur stdDeviation="28" result="blur"/><feFlood flood-color="#1e8991" flood-opacity=".329"/><feComposite operator="in" in2="blur"/><feComposite in="SourceGraphic"/></filter></defs><g filter="url(#a)"><rect data-name="Rectangle 6" width="144" height="144" rx="26" transform="translate(74 64)" fill="#1e8991"/></g><g data-name="work (1)"><g data-name="Group 245"><path data-name="Path 209" d="M170.637 161.762h-48.224a6.284 6.284 0 01-6.345-6.348v-30.455a6.284 6.284 0 016.345-6.345h48.224a6.284 6.284 0 016.345 6.345v30.455a6.284 6.284 0 01-6.345 6.348zm-48.224-40.61a3.9 3.9 0 00-3.807 3.807v30.455a3.9 3.9 0 003.807 3.81h48.224a3.9 3.9 0 003.808-3.81v-30.455a3.9 3.9 0 00-3.807-3.807z" fill="#fff"/></g><g data-name="Group 246"><path data-name="Path 210" d="M155.409 121.152a1.2 1.2 0 01-1.269-1.269v-5.076a1.2 1.2 0 00-1.267-1.269H140.18a1.2 1.2 0 00-1.269 1.269v5.076a1.2 1.2 0 01-1.269 1.269 1.2 1.2 0 01-1.269-1.269v-5.076A3.9 3.9 0 01140.18 111h12.693a3.9 3.9 0 013.8 3.807v5.076a1.2 1.2 0 01-1.264 1.269z" fill="#fff"/></g><g data-name="Group 247"><path data-name="Path 211" d="M146.527 141.457h-.508l-29.192-10.148a1.548 1.548 0 01-.759-1.781 1.548 1.548 0 011.777-.761l28.682 10.152 28.679-10.152a1.064 1.064 0 011.523.761 1.064 1.064 0 01-.761 1.523l-29.189 10.152c0 .254 0 .254-.254.254z" fill="#fff"/></g></g><g transform="translate(-280 -1694)" opacity=".2" fill="#1e8991"><circle data-name="Ellipse 4" cx="3" cy="3" r="3" transform="rotate(90 -604 1122.5)"/><circle data-name="Ellipse 4" cx="3" cy="3" r="3" transform="rotate(90 -612.5 1131)"/><circle data-name="Ellipse 4" cx="3" cy="3" r="3" transform="rotate(90 -621 1139.5)"/><circle data-name="Ellipse 4" cx="3" cy="3" r="3" transform="rotate(90 -628.187 1146.687)"/><circle data-name="Ellipse 4" cx="3" cy="3" r="3" transform="rotate(90 -636.249 1154.749)"/><circle data-name="Ellipse 4" cx="3" cy="3" r="3" transform="rotate(90 -644.311 1162.811)"/><circle data-name="Ellipse 4" cx="3" cy="3" r="3" transform="rotate(90 -652.374 1170.874)"/><circle data-name="Ellipse 4" cx="3" cy="3" r="3" transform="rotate(90 -660.436 1178.936)"/><circle data-name="Ellipse 4" cx="3" cy="3" r="3" transform="rotate(90 -668.498 1186.998)"/><circle data-name="Ellipse 4" cx="3" cy="3" r="3" transform="rotate(90 -676.56 1195.06)"/><circle data-name="Ellipse 4" cx="3" cy="3" r="3" transform="rotate(90 -683.747 1202.246)"/><circle data-name="Ellipse 4" cx="3" cy="3" r="3" transform="rotate(90 -692.247 1210.746)"/><circle data-name="Ellipse 4" cx="3" cy="3" r="3" transform="rotate(90 -700.747 1219.246)"/><circle data-name="Ellipse 4" cx="3" cy="3" r="3" transform="rotate(90 -638 1088.5)"/><circle data-name="Ellipse 4" cx="3" cy="3" r="3" transform="rotate(90 -646.5 1097)"/><circle data-name="Ellipse 4" cx="3" cy="3" r="3" transform="rotate(90 -655 1105.5)"/><circle data-name="Ellipse 4" cx="3" cy="3" r="3" transform="rotate(90 -662.187 1112.687)"/><circle data-name="Ellipse 4" cx="3" cy="3" r="3" transform="rotate(90 -670.249 1120.749)"/><circle data-name="Ellipse 4" cx="3" cy="3" r="3" transform="rotate(90 -678.311 1128.811)"/><circle data-name="Ellipse 4" cx="3" cy="3" r="3" transform="rotate(90 -686.374 1136.874)"/><circle data-name="Ellipse 4" cx="3" cy="3" r="3" transform="rotate(90 -612.5 1114)"/><circle data-name="Ellipse 4" cx="3" cy="3" r="3" transform="rotate(90 -621 1122.5)"/><circle data-name="Ellipse 4" cx="3" cy="3" r="3" transform="rotate(90 -629.5 1131)"/><circle data-name="Ellipse 4" cx="3" cy="3" r="3" transform="rotate(90 -636.687 1138.187)"/><circle data-name="Ellipse 4" cx="3" cy="3" r="3" transform="rotate(90 -644.749 1146.249)"/><circle data-name="Ellipse 4" cx="3" cy="3" r="3" transform="rotate(90 -652.811 1154.311)"/><circle data-name="Ellipse 4" cx="3" cy="3" r="3" transform="rotate(90 -660.874 1162.374)"/><circle data-name="Ellipse 4" cx="3" cy="3" r="3" transform="rotate(90 -668.936 1170.436)"/><circle data-name="Ellipse 4" cx="3" cy="3" r="3" transform="rotate(90 -676.998 1178.498)"/><circle data-name="Ellipse 4" cx="3" cy="3" r="3" transform="rotate(90 -685.06 1186.56)"/><circle data-name="Ellipse 4" cx="3" cy="3" r="3" transform="rotate(90 -692.247 1193.746)"/><circle data-name="Ellipse 4" cx="3" cy="3" r="3" transform="rotate(90 -700.747 1202.246)"/><circle data-name="Ellipse 4" cx="3" cy="3" r="3" transform="rotate(90 -709.247 1210.746)"/><circle data-name="Ellipse 4" cx="3" cy="3" r="3" transform="rotate(90 -646.5 1080)"/><circle data-name="Ellipse 4" cx="3" cy="3" r="3" transform="rotate(90 -655 1088.5)"/><circle data-name="Ellipse 4" cx="3" cy="3" r="3" transform="rotate(90 -663.5 1097)"/><circle data-name="Ellipse 4" cx="3" cy="3" r="3" transform="rotate(90 -670.687 1104.187)"/><circle data-name="Ellipse 4" cx="3" cy="3" r="3" transform="rotate(90 -678.749 1112.249)"/><circle data-name="Ellipse 4" cx="3" cy="3" r="3" transform="rotate(90 -686.811 1120.311)"/><circle data-name="Ellipse 4" cx="3" cy="3" r="3" transform="rotate(90 -694.874 1128.374)"/><circle data-name="Ellipse 4" cx="3" cy="3" r="3" transform="rotate(90 -621 1105.5)"/><circle data-name="Ellipse 4" cx="3" cy="3" r="3" transform="rotate(90 -629.5 1114)"/><circle data-name="Ellipse 4" cx="3" cy="3" r="3" transform="rotate(90 -638 1122.5)"/><circle data-name="Ellipse 4" cx="3" cy="3" r="3" transform="rotate(90 -645.187 1129.687)"/><circle data-name="Ellipse 4" cx="3" cy="3" r="3" transform="rotate(90 -653.249 1137.749)"/><circle data-name="Ellipse 4" cx="3" cy="3" r="3" transform="rotate(90 -661.311 1145.811)"/><circle data-name="Ellipse 4" cx="3" cy="3" r="3" transform="rotate(90 -669.374 1153.874)"/><circle data-name="Ellipse 4" cx="3" cy="3" r="3" transform="rotate(90 -677.436 1161.936)"/><circle data-name="Ellipse 4" cx="3" cy="3" r="3" transform="rotate(90 -685.498 1169.998)"/><circle data-name="Ellipse 4" cx="3" cy="3" r="3" transform="rotate(90 -693.56 1178.06)"/><circle data-name="Ellipse 4" cx="3" cy="3" r="3" transform="rotate(90 -700.747 1185.246)"/><circle data-name="Ellipse 4" cx="3" cy="3" r="3" transform="rotate(90 -709.247 1193.746)"/><circle data-name="Ellipse 4" cx="3" cy="3" r="3" transform="rotate(90 -717.747 1202.246)"/><circle data-name="Ellipse 4" cx="3" cy="3" r="3" transform="rotate(90 -694.436 1144.936)"/><circle data-name="Ellipse 4" cx="3" cy="3" r="3" transform="rotate(90 -702.498 1152.998)"/><circle data-name="Ellipse 4" cx="3" cy="3" r="3" transform="rotate(90 -710.56 1161.06)"/><circle data-name="Ellipse 4" cx="3" cy="3" r="3" transform="rotate(90 -717.747 1168.246)"/><circle data-name="Ellipse 4" cx="3" cy="3" r="3" transform="rotate(90 -726.247 1176.746)"/><circle data-name="Ellipse 4" cx="3" cy="3" r="3" transform="rotate(90 -734.747 1185.246)"/><circle data-name="Ellipse 4" cx="3" cy="3" r="3" transform="rotate(90 -629.5 1097)"/><circle data-name="Ellipse 4" cx="3" cy="3" r="3" transform="rotate(90 -638 1105.5)"/><circle data-name="Ellipse 4" cx="3" cy="3" r="3" transform="rotate(90 -646.5 1114)"/><circle data-name="Ellipse 4" cx="3" cy="3" r="3" transform="rotate(90 -653.687 1121.187)"/><circle data-name="Ellipse 4" cx="3" cy="3" r="3" transform="rotate(90 -661.749 1129.249)"/><circle data-name="Ellipse 4" cx="3" cy="3" r="3" transform="rotate(90 -669.811 1137.311)"/><circle data-name="Ellipse 4" cx="3" cy="3" r="3" transform="rotate(90 -677.874 1145.374)"/><circle data-name="Ellipse 4" cx="3" cy="3" r="3" transform="rotate(90 -685.936 1153.436)"/><circle data-name="Ellipse 4" cx="3" cy="3" r="3" transform="rotate(90 -693.998 1161.498)"/><circle data-name="Ellipse 4" cx="3" cy="3" r="3" transform="rotate(90 -702.06 1169.56)"/><circle data-name="Ellipse 4" cx="3" cy="3" r="3" transform="rotate(90 -709.247 1176.746)"/><circle data-name="Ellipse 4" cx="3" cy="3" r="3" transform="rotate(90 -717.747 1185.246)"/><circle data-name="Ellipse 4" cx="3" cy="3" r="3" transform="rotate(90 -726.247 1193.746)"/><circle data-name="Ellipse 4" cx="3" cy="3" r="3" transform="rotate(90 -702.936 1136.436)"/><circle data-name="Ellipse 4" cx="3" cy="3" r="3" transform="rotate(90 -710.998 1144.498)"/><circle data-name="Ellipse 4" cx="3" cy="3" r="3" transform="rotate(90 -719.06 1152.56)"/><circle data-name="Ellipse 4" cx="3" cy="3" r="3" transform="rotate(90 -726.247 1159.746)"/><circle data-name="Ellipse 4" cx="3" cy="3" r="3" transform="rotate(90 -734.747 1168.246)"/><circle data-name="Ellipse 4" cx="3" cy="3" r="3" transform="rotate(90 -743.247 1176.746)"/></g></svg>