<svg xmlns="http://www.w3.org/2000/svg" width="18.5" height="18.466"><path data-name="Path 5298" d="M8.909 0h.667c.323.036.648.056.967.11a8.988 8.988 0 017.144 5.459 8.834 8.834 0 01-.429 8.215 9.21 9.21 0 01-17.067-2.8C.108 10.533.063 10.076 0 9.621v-.762c.064-.462.11-.926.193-1.385A9.2 9.2 0 017.242.241C7.791.13 8.353.076 8.909 0zm2.572 5.958H7.005l-.228 2.663h4.929zm-4.652 3.9a.408.408 0 00-.018.088c.065.814.132 1.628.2 2.442.012.147.106.149.217.149h4.025c.164 0 .221-.056.236-.213.038-.411.1-.819.132-1.23s.046-.818.068-1.239zm6.082 0l-.222 2.676h3.214c.682 0 .686 0 .909-.652a7.453 7.453 0 00.416-2.024zm-11.66 0a8.186 8.186 0 00.591 2.471.284.284 0 00.313.209c1.143-.007 2.285 0 3.428 0 .075 0 .15-.006.211-.009l-.221-2.666zm4.322-1.245l.22-2.647c-.006 0-.02-.018-.033-.018-1.238 0-2.476-.006-3.713 0a.212.212 0 00-.155.107 7.655 7.655 0 00-.639 2.56zm7.337 0h4.319a8.113 8.113 0 00-.584-2.458.3.3 0 00-.334-.216c-1.134.007-2.269 0-3.4 0h-.219zm-5.619 5.152a.356.356 0 00-.005.086 8 8 0 001.033 2.667 2.791 2.791 0 00.5.565.572.572 0 00.839 0 2.726 2.726 0 00.618-.772c.3-.628.529-1.286.776-1.935a5.922 5.922 0 00.161-.608zm-.017-9.052h3.964c-.128-.44-.238-.86-.373-1.27a5.506 5.506 0 00-.848-1.693c-.547-.7-1.024-.7-1.556.016a5.157 5.157 0 00-.481.817 9.46 9.46 0 00-.706 2.134zm5.171 9.053a11.575 11.575 0 01-1.148 3.224 8.1 8.1 0 004.562-3.224zm-6.428.007H2.626a8.064 8.064 0 004.506 3.2c-.222-.538-.457-1.042-.638-1.563s-.317-1.076-.477-1.634zM7.134 1.535c-1.293.1-4.11 2.1-4.461 3.18a.78.78 0 00.094.011c1.032 0 2.064 0 3.1.005.166 0 .188-.087.222-.208.166-.587.317-1.179.514-1.755.142-.418.351-.819.535-1.229zm4.215-.005a11.99 11.99 0 011.068 3.068c.034.154.133.129.232.129h3a1.641 1.641 0 00.2-.029 7.918 7.918 0 00-4.499-3.164z" fill="#339892"/></svg>