<svg xmlns="http://www.w3.org/2000/svg" width="14.995" height="15.043"><g data-name="Group 4116" fill="#3c9d93"><path data-name="Path 5582" d="M.42 15.043c-.448-.314-.493-.415-.341-.947.4-1.423.818-2.843 1.227-4.265a.831.831 0 01.228-.362q3.126-3.112 6.247-6.23c.14-.14.22-.155.372-.006.589.576.594.569.018 1.145Q5.393 7.153 2.613 9.927a1.112 1.112 0 00-.3.5c-.205.728-.425 1.452-.633 2.18a.635.635 0 00.712.721c.706-.2 1.407-.422 2.114-.617a1.226 1.226 0 00.535-.38q2.931-2.929 5.857-5.865c.2-.2.324-.213.494.007s.559.378.531.635c-.024.219-.348.407-.545.6q-2.767 2.739-5.533 5.48a2.321 2.321 0 01-1.044.612c-1.369.39-2.727.819-4.1 1.18-.028.007-.049.039-.073.059z"/><path data-name="Path 5583" d="M14.999 3.544a3.432 3.432 0 01-.818 1.15c-.133.133-.206.155-.344.016q-1.763-1.774-3.539-3.535c-.142-.141-.113-.217.013-.347A2.723 2.723 0 0111.523 0h.267a2.423 2.423 0 011.083.662c.408.426.834.834 1.252 1.25a2.8 2.8 0 01.875 1.3z"/><path data-name="Path 5585" d="M10.372 5.519c-.01.107-.081.151-.135.2q-2.966 2.96-5.935 5.918c-.076.076-.154.2-.268.168s-.082-.175-.082-.264c0-.458-.322-.519-.663-.574-.092-.015-.224 0-.248-.119-.019-.094.089-.146.15-.207q2.964-2.964 5.925-5.93c.188-.189.306-.194.479 0 .2.224.424.425.636.639.054.059.1.121.141.169z"/><path data-name="Path 5586" d="M13.456 5.58a.808.808 0 01-.051.1.914.914 0 01-.068.073c-.692.76-.691.76-1.406.044-1.053-1.055-2.1-2.113-3.165-3.158-.182-.179-.193-.279.014-.433a4.442 4.442 0 00.514-.474c.119-.122.2-.125.327 0Q11.48 3.6 13.348 5.459c.04.035.068.079.108.121z"/></g></svg>