<svg xmlns="http://www.w3.org/2000/svg" width="35.241" height="39"><defs><linearGradient id="a" x1=".5" x2=".5" y2="1" gradientUnits="objectBoundingBox"><stop offset="0" stop-color="#1f8a91"/><stop offset=".533" stop-color="#44a394"/><stop offset="1" stop-color="#62b796"/></linearGradient></defs><path data-name="Icon material-share" d="M33.868 30.566a5.7 5.7 0 00-3.837 1.508l-13.96-8.125a6.409 6.409 0 00.176-1.37 6.409 6.409 0 00-.176-1.37l13.8-8.047a5.86 5.86 0 10-1.88-4.288 6.409 6.409 0 00.176 1.37l-13.8 8.047a5.874 5.874 0 100 8.575l13.94 8.145a5.523 5.523 0 00-.157 1.273 5.717 5.717 0 105.717-5.717z" transform="translate(-4.5 -3)" fill="url(#a)"/></svg>