<svg xmlns="http://www.w3.org/2000/svg" width="312" height="312"><defs><filter id="a" x="0" y="0" width="312" height="312" filterUnits="userSpaceOnUse"><feOffset dx="10" dy="20"/><feGaussianBlur stdDeviation="28" result="blur"/><feFlood flood-color="#59ea8f" flood-opacity=".29"/><feComposite operator="in" in2="blur"/><feComposite in="SourceGraphic"/></filter></defs><g transform="translate(-280 -1694)" opacity=".27" fill="#62b796"><circle data-name="Ellipse 4" cx="3" cy="3" r="3" transform="rotate(90 -604 1122.5)"/><circle data-name="Ellipse 4" cx="3" cy="3" r="3" transform="rotate(90 -612.5 1131)"/><circle data-name="Ellipse 4" cx="3" cy="3" r="3" transform="rotate(90 -621 1139.5)"/><circle data-name="Ellipse 4" cx="3" cy="3" r="3" transform="rotate(90 -628.187 1146.687)"/><circle data-name="Ellipse 4" cx="3" cy="3" r="3" transform="rotate(90 -636.249 1154.749)"/><circle data-name="Ellipse 4" cx="3" cy="3" r="3" transform="rotate(90 -644.311 1162.811)"/><circle data-name="Ellipse 4" cx="3" cy="3" r="3" transform="rotate(90 -652.374 1170.874)"/><circle data-name="Ellipse 4" cx="3" cy="3" r="3" transform="rotate(90 -660.436 1178.936)"/><circle data-name="Ellipse 4" cx="3" cy="3" r="3" transform="rotate(90 -668.498 1186.998)"/><circle data-name="Ellipse 4" cx="3" cy="3" r="3" transform="rotate(90 -676.56 1195.06)"/><circle data-name="Ellipse 4" cx="3" cy="3" r="3" transform="rotate(90 -683.747 1202.246)"/><circle data-name="Ellipse 4" cx="3" cy="3" r="3" transform="rotate(90 -692.247 1210.746)"/><circle data-name="Ellipse 4" cx="3" cy="3" r="3" transform="rotate(90 -700.747 1219.246)"/><circle data-name="Ellipse 4" cx="3" cy="3" r="3" transform="rotate(90 -638 1088.5)"/><circle data-name="Ellipse 4" cx="3" cy="3" r="3" transform="rotate(90 -646.5 1097)"/><circle data-name="Ellipse 4" cx="3" cy="3" r="3" transform="rotate(90 -655 1105.5)"/><circle data-name="Ellipse 4" cx="3" cy="3" r="3" transform="rotate(90 -662.187 1112.687)"/><circle data-name="Ellipse 4" cx="3" cy="3" r="3" transform="rotate(90 -670.249 1120.749)"/><circle data-name="Ellipse 4" cx="3" cy="3" r="3" transform="rotate(90 -678.311 1128.811)"/><circle data-name="Ellipse 4" cx="3" cy="3" r="3" transform="rotate(90 -686.374 1136.874)"/><circle data-name="Ellipse 4" cx="3" cy="3" r="3" transform="rotate(90 -612.5 1114)"/><circle data-name="Ellipse 4" cx="3" cy="3" r="3" transform="rotate(90 -621 1122.5)"/><circle data-name="Ellipse 4" cx="3" cy="3" r="3" transform="rotate(90 -629.5 1131)"/><circle data-name="Ellipse 4" cx="3" cy="3" r="3" transform="rotate(90 -636.687 1138.187)"/><circle data-name="Ellipse 4" cx="3" cy="3" r="3" transform="rotate(90 -644.749 1146.249)"/><circle data-name="Ellipse 4" cx="3" cy="3" r="3" transform="rotate(90 -652.811 1154.311)"/><circle data-name="Ellipse 4" cx="3" cy="3" r="3" transform="rotate(90 -660.874 1162.374)"/><circle data-name="Ellipse 4" cx="3" cy="3" r="3" transform="rotate(90 -668.936 1170.436)"/><circle data-name="Ellipse 4" cx="3" cy="3" r="3" transform="rotate(90 -676.998 1178.498)"/><circle data-name="Ellipse 4" cx="3" cy="3" r="3" transform="rotate(90 -685.06 1186.56)"/><circle data-name="Ellipse 4" cx="3" cy="3" r="3" transform="rotate(90 -692.247 1193.746)"/><circle data-name="Ellipse 4" cx="3" cy="3" r="3" transform="rotate(90 -700.747 1202.246)"/><circle data-name="Ellipse 4" cx="3" cy="3" r="3" transform="rotate(90 -709.247 1210.746)"/><circle data-name="Ellipse 4" cx="3" cy="3" r="3" transform="rotate(90 -646.5 1080)"/><circle data-name="Ellipse 4" cx="3" cy="3" r="3" transform="rotate(90 -655 1088.5)"/><circle data-name="Ellipse 4" cx="3" cy="3" r="3" transform="rotate(90 -663.5 1097)"/><circle data-name="Ellipse 4" cx="3" cy="3" r="3" transform="rotate(90 -670.687 1104.187)"/><circle data-name="Ellipse 4" cx="3" cy="3" r="3" transform="rotate(90 -678.749 1112.249)"/><circle data-name="Ellipse 4" cx="3" cy="3" r="3" transform="rotate(90 -686.811 1120.311)"/><circle data-name="Ellipse 4" cx="3" cy="3" r="3" transform="rotate(90 -694.874 1128.374)"/><circle data-name="Ellipse 4" cx="3" cy="3" r="3" transform="rotate(90 -621 1105.5)"/><circle data-name="Ellipse 4" cx="3" cy="3" r="3" transform="rotate(90 -629.5 1114)"/><circle data-name="Ellipse 4" cx="3" cy="3" r="3" transform="rotate(90 -638 1122.5)"/><circle data-name="Ellipse 4" cx="3" cy="3" r="3" transform="rotate(90 -645.187 1129.687)"/><circle data-name="Ellipse 4" cx="3" cy="3" r="3" transform="rotate(90 -653.249 1137.749)"/><circle data-name="Ellipse 4" cx="3" cy="3" r="3" transform="rotate(90 -661.311 1145.811)"/><circle data-name="Ellipse 4" cx="3" cy="3" r="3" transform="rotate(90 -669.374 1153.874)"/><circle data-name="Ellipse 4" cx="3" cy="3" r="3" transform="rotate(90 -677.436 1161.936)"/><circle data-name="Ellipse 4" cx="3" cy="3" r="3" transform="rotate(90 -685.498 1169.998)"/><circle data-name="Ellipse 4" cx="3" cy="3" r="3" transform="rotate(90 -693.56 1178.06)"/><circle data-name="Ellipse 4" cx="3" cy="3" r="3" transform="rotate(90 -700.747 1185.246)"/><circle data-name="Ellipse 4" cx="3" cy="3" r="3" transform="rotate(90 -709.247 1193.746)"/><circle data-name="Ellipse 4" cx="3" cy="3" r="3" transform="rotate(90 -717.747 1202.246)"/><circle data-name="Ellipse 4" cx="3" cy="3" r="3" transform="rotate(90 -694.436 1144.936)"/><circle data-name="Ellipse 4" cx="3" cy="3" r="3" transform="rotate(90 -702.498 1152.998)"/><circle data-name="Ellipse 4" cx="3" cy="3" r="3" transform="rotate(90 -710.56 1161.06)"/><circle data-name="Ellipse 4" cx="3" cy="3" r="3" transform="rotate(90 -717.747 1168.246)"/><circle data-name="Ellipse 4" cx="3" cy="3" r="3" transform="rotate(90 -726.247 1176.746)"/><circle data-name="Ellipse 4" cx="3" cy="3" r="3" transform="rotate(90 -734.747 1185.246)"/><circle data-name="Ellipse 4" cx="3" cy="3" r="3" transform="rotate(90 -629.5 1097)"/><circle data-name="Ellipse 4" cx="3" cy="3" r="3" transform="rotate(90 -638 1105.5)"/><circle data-name="Ellipse 4" cx="3" cy="3" r="3" transform="rotate(90 -646.5 1114)"/><circle data-name="Ellipse 4" cx="3" cy="3" r="3" transform="rotate(90 -653.687 1121.187)"/><circle data-name="Ellipse 4" cx="3" cy="3" r="3" transform="rotate(90 -661.749 1129.249)"/><circle data-name="Ellipse 4" cx="3" cy="3" r="3" transform="rotate(90 -669.811 1137.311)"/><circle data-name="Ellipse 4" cx="3" cy="3" r="3" transform="rotate(90 -677.874 1145.374)"/><circle data-name="Ellipse 4" cx="3" cy="3" r="3" transform="rotate(90 -685.936 1153.436)"/><circle data-name="Ellipse 4" cx="3" cy="3" r="3" transform="rotate(90 -693.998 1161.498)"/><circle data-name="Ellipse 4" cx="3" cy="3" r="3" transform="rotate(90 -702.06 1169.56)"/><circle data-name="Ellipse 4" cx="3" cy="3" r="3" transform="rotate(90 -709.247 1176.746)"/><circle data-name="Ellipse 4" cx="3" cy="3" r="3" transform="rotate(90 -717.747 1185.246)"/><circle data-name="Ellipse 4" cx="3" cy="3" r="3" transform="rotate(90 -726.247 1193.746)"/><circle data-name="Ellipse 4" cx="3" cy="3" r="3" transform="rotate(90 -702.936 1136.436)"/><circle data-name="Ellipse 4" cx="3" cy="3" r="3" transform="rotate(90 -710.998 1144.498)"/><circle data-name="Ellipse 4" cx="3" cy="3" r="3" transform="rotate(90 -719.06 1152.56)"/><circle data-name="Ellipse 4" cx="3" cy="3" r="3" transform="rotate(90 -726.247 1159.746)"/><circle data-name="Ellipse 4" cx="3" cy="3" r="3" transform="rotate(90 -734.747 1168.246)"/><circle data-name="Ellipse 4" cx="3" cy="3" r="3" transform="rotate(90 -743.247 1176.746)"/></g><g filter="url(#a)" data-name="Group 10"><rect data-name="Rectangle 6" width="144" height="144" rx="26" transform="translate(74 64)" fill="#62b796"/></g><g data-name="Group 253"><g data-name="Group 248"><path data-name="Path 218" d="M165.966 123.041a12.02 12.02 0 010-24.041 11.9 11.9 0 0112.02 12.02 11.9 11.9 0 01-12.02 12.021zm0-20.435a8.518 8.518 0 00-8.414 8.414 8.415 8.415 0 0016.829 0 8.518 8.518 0 00-8.415-8.414z" fill="#fff"/></g><g data-name="Group 249"><path data-name="Path 219" d="M165.966 172.324a12.02 12.02 0 010-24.041 12.02 12.02 0 110 24.041zm0-20.194a8.414 8.414 0 108.414 8.414 8.518 8.518 0 00-8.414-8.414z" fill="#fff"/></g><g data-name="Group 250"><path data-name="Path 220" d="M127.02 147.803a12.02 12.02 0 1112.02-12.02 12.215 12.215 0 01-12.02 12.02zm0-20.435a8.415 8.415 0 100 16.829 8.415 8.415 0 000-16.829z" fill="#fff"/></g><g data-name="Group 251"><path data-name="Rectangle 98" fill="#fff" d="M164.283 121.358h3.606v29.089h-3.606z"/></g><g data-name="Group 252"><path data-name="Rectangle 99" fill="#fff" d="M156.72 156.288l-23.402-11.79 1.622-3.22 23.402 11.79z"/></g></g></svg>