<svg xmlns="http://www.w3.org/2000/svg" width="30.025" height="24.386"><path data-name="Icon awesome-twitter" d="M26.939 6.077c.019.267.019.533.019.8 0 8.135-6.192 17.508-17.508 17.508A17.39 17.39 0 010 21.619a12.73 12.73 0 001.486.076 12.324 12.324 0 007.64-2.629 6.164 6.164 0 01-5.754-4.268 7.76 7.76 0 001.162.1 6.508 6.508 0 001.619-.21 6.154 6.154 0 01-4.934-6.039v-.076A6.2 6.2 0 004 9.354a6.163 6.163 0 01-1.9-8.235 17.491 17.491 0 0012.688 6.439 6.947 6.947 0 01-.152-1.41 6.16 6.16 0 0110.65-4.21A12.115 12.115 0 0029.192.452a6.137 6.137 0 01-2.705 3.391 12.336 12.336 0 003.544-.953 13.228 13.228 0 01-3.086 3.182z" fill="#1f878d" opacity=".5"/></svg>