<svg xmlns="http://www.w3.org/2000/svg" width="80.225" height="80.294"><defs><linearGradient id="a" x1=".5" x2=".5" y2="1" gradientUnits="objectBoundingBox"><stop offset="0" stop-color="#4b9fa3"/><stop offset="1" stop-color="#62b796"/></linearGradient></defs><path data-name="Path 187" d="M99.182 92.111A30.61 30.61 0 0087.51 90.22c-7.754 0-9.75-1.2-10.249-1.916-.53-.759.048-2.33.66-4 .87-2.369 1.953-5.316.355-8-1.363-2.286-4.358-3.789-9.355-4.685a13.389 13.389 0 00-.687-3.7l33.266-30.17a7.988 7.988 0 10-11.286-11.284l-30.18 33.258a13.012 13.012 0 00-11.863 1.816 8.762 8.762 0 00-1.479 1.4 11.233 11.233 0 00-2.548 7.67c-6.1.2-10.41.784-12.786 1.737a3.093 3.093 0 00-2.267 2.471c-.173 1.784 1.532 2.891 3.181 3.961.374.243.9.582 1.3.887a12.833 12.833 0 01-1.67.518c-5.271 1.317-8.475 4.557-7.973 8.061.359 2.5 3.3 8.245 22.578 7.48 13.371-.533 18.654.446 20.622 1.083l-.163.068c-.131.045-.412.12-.776.219-3.544.965-6.343 1.728-6.05 3.918.26 1.949 2.2 2.428 9.793 2.428h.054c.573.029 14.113.715 19.881.715 8.511 0 14.01-2.612 14.01-6.655 0-1.259-.607-3.633-4.7-5.389zm-6.376-63.294a4.488 4.488 0 116.34 6.34L72.338 59.483l-3.859-3.858zm-26.682 29.4l3.619 3.619-3.143 2.856c-.076-.111-.142-.229-.222-.338a12.934 12.934 0 00-3.1-3zM47.857 72.23a8.041 8.041 0 011.5-7.022 5.206 5.206 0 01.879-.844 9.538 9.538 0 0113.315 2.057 9.824 9.824 0 011.741 7.509 8.634 8.634 0 01-3.728 5.758c-4.14 2.729-11.466 2.49-16.027 2 2.394-2.275 3.217-5.588 2.32-9.458zm42.015 28.425c-5.679 0-19.563-.7-19.792-.713q-.735 0-1.375-.007c2.666-1.226 2.979-2.706 2.751-3.756-.292-1.342-1.068-4.909-25.084-3.952C33 92.761 27.7 89.839 27.4 87.748c-.192-1.343 1.759-3.27 5.359-4.17 2.189-.547 4.473-1.369 4.8-3.312.336-2.016-1.636-3.3-3.375-4.424-.22-.143-.5-.322-.766-.506a50.576 50.576 0 0111.23-1.243 5.492 5.492 0 01-2.088 5.537l-2.43 1.778a1.75 1.75 0 00.686 3.127 55.206 55.206 0 0010 .953c4.369 0 9.264-.624 12.684-2.879a12.045 12.045 0 005.1-7.481c4.494.847 6.12 2.061 6.667 2.977.743 1.247.073 3.068-.635 5-.854 2.32-1.82 4.95-.245 7.2 1.673 2.395 5.6 3.415 13.123 3.415 5.411 0 8.583.874 10.291 1.608 1.773.761 2.581 1.659 2.581 2.172 0 1.066-3.174 3.155-10.51 3.155z" transform="translate(-23.877 -23.861)" fill="url(#a)"/></svg>