<svg xmlns="http://www.w3.org/2000/svg" viewBox="0 0 23.81 23.81"><defs><style>.cls-2{fill:#fff}</style></defs><g id="Layer_2" data-name="Layer 2"><g id="Layer_1-2" data-name="Layer 1"><circle cx="11.9" cy="11.9" r="11.9" fill="#23757b"/><g id="Md440l"><g id="Group_4116" data-name="Group 4116"><path id="Path_5582" data-name="Path 5582" class="cls-2" d="M6.55 17.59c-.34-.24-.37-.32-.26-.72l.93-3.22a.62.62 0 01.17-.28q2.37-2.37 4.72-4.7c.11-.11.17-.12.29 0 .44.44.45.43 0 .87l-4.2 4.19a.83.83 0 00-.2.37c-.15.55-.32 1.1-.48 1.65a.48.48 0 00.41.54.29.29 0 00.13 0c.54-.15 1.06-.32 1.6-.46a.9.9 0 00.4-.29l4.43-4.44c.15-.15.25-.16.37 0s.43.29.41.48-.27.31-.42.45l-4.18 4.15a1.76 1.76 0 01-.79.46c-1 .29-2.06.62-3.1.89v.05z"/><path id="Path_5583" data-name="Path 5583" class="cls-2" d="M17.57 8.9a2.53 2.53 0 01-.62.87c-.1.1-.15.11-.26 0L14 7.11c-.11-.11-.09-.17 0-.27a2 2 0 01.91-.62h.21a1.76 1.76 0 01.81.5c.31.32.63.63.95.94a2.09 2.09 0 01.66 1z"/><path id="Path_5585" data-name="Path 5585" class="cls-2" d="M14.07 10.39c0 .08-.06.11-.1.15L9.49 15c-.06.06-.12.15-.21.13s-.06-.13-.06-.2c0-.35-.24-.39-.5-.43-.07 0-.17 0-.19-.09s.07-.11.12-.16l4.47-4.48c.15-.14.24-.15.37 0s.32.32.48.48z"/><path id="Path_5586" data-name="Path 5586" class="cls-2" d="M16.4 10.44v.07l-.06.06c-.52.57-.52.57-1.06 0-.79-.8-1.59-1.6-2.39-2.39-.14-.13-.15-.21 0-.33a2.57 2.57 0 00.39-.35c.09-.1.15-.1.25 0 .93.94 1.87 1.88 2.81 2.81z"/></g></g></g></g></svg>