<svg xmlns="http://www.w3.org/2000/svg" width="312" height="312"><defs><filter id="a" x="0" y="0" width="312" height="312" filterUnits="userSpaceOnUse"><feOffset dx="10" dy="20"/><feGaussianBlur stdDeviation="28" result="blur"/><feFlood flood-color="#00bcd4" flood-opacity=".231"/><feComposite operator="in" in2="blur"/><feComposite in="SourceGraphic"/></filter></defs><g filter="url(#a)"><path data-name="Path 204" d="M100 64h92a26 26 0 0126 26v92a26 26 0 01-26 26h-92a26 26 0 01-26-26V90a26 26 0 0126-26z" fill="#00bcd4"/></g><g transform="translate(-280 -1694)" opacity=".2" fill="#00bcd4"><circle data-name="Ellipse 4" cx="3" cy="3" r="3" transform="rotate(90 -604 1122.5)"/><circle data-name="Ellipse 4" cx="3" cy="3" r="3" transform="rotate(90 -612.5 1131)"/><circle data-name="Ellipse 4" cx="3" cy="3" r="3" transform="rotate(90 -621 1139.5)"/><circle data-name="Ellipse 4" cx="3" cy="3" r="3" transform="rotate(90 -628.187 1146.687)"/><circle data-name="Ellipse 4" cx="3" cy="3" r="3" transform="rotate(90 -636.249 1154.749)"/><circle data-name="Ellipse 4" cx="3" cy="3" r="3" transform="rotate(90 -644.311 1162.811)"/><circle data-name="Ellipse 4" cx="3" cy="3" r="3" transform="rotate(90 -652.374 1170.874)"/><circle data-name="Ellipse 4" cx="3" cy="3" r="3" transform="rotate(90 -660.436 1178.936)"/><circle data-name="Ellipse 4" cx="3" cy="3" r="3" transform="rotate(90 -668.498 1186.998)"/><circle data-name="Ellipse 4" cx="3" cy="3" r="3" transform="rotate(90 -676.56 1195.06)"/><circle data-name="Ellipse 4" cx="3" cy="3" r="3" transform="rotate(90 -683.747 1202.246)"/><circle data-name="Ellipse 4" cx="3" cy="3" r="3" transform="rotate(90 -692.247 1210.746)"/><circle data-name="Ellipse 4" cx="3" cy="3" r="3" transform="rotate(90 -700.747 1219.246)"/><circle data-name="Ellipse 4" cx="3" cy="3" r="3" transform="rotate(90 -638 1088.5)"/><circle data-name="Ellipse 4" cx="3" cy="3" r="3" transform="rotate(90 -646.5 1097)"/><circle data-name="Ellipse 4" cx="3" cy="3" r="3" transform="rotate(90 -655 1105.5)"/><circle data-name="Ellipse 4" cx="3" cy="3" r="3" transform="rotate(90 -662.187 1112.687)"/><circle data-name="Ellipse 4" cx="3" cy="3" r="3" transform="rotate(90 -670.249 1120.749)"/><circle data-name="Ellipse 4" cx="3" cy="3" r="3" transform="rotate(90 -678.311 1128.811)"/><circle data-name="Ellipse 4" cx="3" cy="3" r="3" transform="rotate(90 -686.374 1136.874)"/><circle data-name="Ellipse 4" cx="3" cy="3" r="3" transform="rotate(90 -612.5 1114)"/><circle data-name="Ellipse 4" cx="3" cy="3" r="3" transform="rotate(90 -621 1122.5)"/><circle data-name="Ellipse 4" cx="3" cy="3" r="3" transform="rotate(90 -629.5 1131)"/><circle data-name="Ellipse 4" cx="3" cy="3" r="3" transform="rotate(90 -636.687 1138.187)"/><circle data-name="Ellipse 4" cx="3" cy="3" r="3" transform="rotate(90 -644.749 1146.249)"/><circle data-name="Ellipse 4" cx="3" cy="3" r="3" transform="rotate(90 -652.811 1154.311)"/><circle data-name="Ellipse 4" cx="3" cy="3" r="3" transform="rotate(90 -660.874 1162.374)"/><circle data-name="Ellipse 4" cx="3" cy="3" r="3" transform="rotate(90 -668.936 1170.436)"/><circle data-name="Ellipse 4" cx="3" cy="3" r="3" transform="rotate(90 -676.998 1178.498)"/><circle data-name="Ellipse 4" cx="3" cy="3" r="3" transform="rotate(90 -685.06 1186.56)"/><circle data-name="Ellipse 4" cx="3" cy="3" r="3" transform="rotate(90 -692.247 1193.746)"/><circle data-name="Ellipse 4" cx="3" cy="3" r="3" transform="rotate(90 -700.747 1202.246)"/><circle data-name="Ellipse 4" cx="3" cy="3" r="3" transform="rotate(90 -709.247 1210.746)"/><circle data-name="Ellipse 4" cx="3" cy="3" r="3" transform="rotate(90 -646.5 1080)"/><circle data-name="Ellipse 4" cx="3" cy="3" r="3" transform="rotate(90 -655 1088.5)"/><circle data-name="Ellipse 4" cx="3" cy="3" r="3" transform="rotate(90 -663.5 1097)"/><circle data-name="Ellipse 4" cx="3" cy="3" r="3" transform="rotate(90 -670.687 1104.187)"/><circle data-name="Ellipse 4" cx="3" cy="3" r="3" transform="rotate(90 -678.749 1112.249)"/><circle data-name="Ellipse 4" cx="3" cy="3" r="3" transform="rotate(90 -686.811 1120.311)"/><circle data-name="Ellipse 4" cx="3" cy="3" r="3" transform="rotate(90 -694.874 1128.374)"/><circle data-name="Ellipse 4" cx="3" cy="3" r="3" transform="rotate(90 -621 1105.5)"/><circle data-name="Ellipse 4" cx="3" cy="3" r="3" transform="rotate(90 -629.5 1114)"/><circle data-name="Ellipse 4" cx="3" cy="3" r="3" transform="rotate(90 -638 1122.5)"/><circle data-name="Ellipse 4" cx="3" cy="3" r="3" transform="rotate(90 -645.187 1129.687)"/><circle data-name="Ellipse 4" cx="3" cy="3" r="3" transform="rotate(90 -653.249 1137.749)"/><circle data-name="Ellipse 4" cx="3" cy="3" r="3" transform="rotate(90 -661.311 1145.811)"/><circle data-name="Ellipse 4" cx="3" cy="3" r="3" transform="rotate(90 -669.374 1153.874)"/><circle data-name="Ellipse 4" cx="3" cy="3" r="3" transform="rotate(90 -677.436 1161.936)"/><circle data-name="Ellipse 4" cx="3" cy="3" r="3" transform="rotate(90 -685.498 1169.998)"/><circle data-name="Ellipse 4" cx="3" cy="3" r="3" transform="rotate(90 -693.56 1178.06)"/><circle data-name="Ellipse 4" cx="3" cy="3" r="3" transform="rotate(90 -700.747 1185.246)"/><circle data-name="Ellipse 4" cx="3" cy="3" r="3" transform="rotate(90 -709.247 1193.746)"/><circle data-name="Ellipse 4" cx="3" cy="3" r="3" transform="rotate(90 -717.747 1202.246)"/><circle data-name="Ellipse 4" cx="3" cy="3" r="3" transform="rotate(90 -694.436 1144.936)"/><circle data-name="Ellipse 4" cx="3" cy="3" r="3" transform="rotate(90 -702.498 1152.998)"/><circle data-name="Ellipse 4" cx="3" cy="3" r="3" transform="rotate(90 -710.56 1161.06)"/><circle data-name="Ellipse 4" cx="3" cy="3" r="3" transform="rotate(90 -717.747 1168.246)"/><circle data-name="Ellipse 4" cx="3" cy="3" r="3" transform="rotate(90 -726.247 1176.746)"/><circle data-name="Ellipse 4" cx="3" cy="3" r="3" transform="rotate(90 -734.747 1185.246)"/><circle data-name="Ellipse 4" cx="3" cy="3" r="3" transform="rotate(90 -629.5 1097)"/><circle data-name="Ellipse 4" cx="3" cy="3" r="3" transform="rotate(90 -638 1105.5)"/><circle data-name="Ellipse 4" cx="3" cy="3" r="3" transform="rotate(90 -646.5 1114)"/><circle data-name="Ellipse 4" cx="3" cy="3" r="3" transform="rotate(90 -653.687 1121.187)"/><circle data-name="Ellipse 4" cx="3" cy="3" r="3" transform="rotate(90 -661.749 1129.249)"/><circle data-name="Ellipse 4" cx="3" cy="3" r="3" transform="rotate(90 -669.811 1137.311)"/><circle data-name="Ellipse 4" cx="3" cy="3" r="3" transform="rotate(90 -677.874 1145.374)"/><circle data-name="Ellipse 4" cx="3" cy="3" r="3" transform="rotate(90 -685.936 1153.436)"/><circle data-name="Ellipse 4" cx="3" cy="3" r="3" transform="rotate(90 -693.998 1161.498)"/><circle data-name="Ellipse 4" cx="3" cy="3" r="3" transform="rotate(90 -702.06 1169.56)"/><circle data-name="Ellipse 4" cx="3" cy="3" r="3" transform="rotate(90 -709.247 1176.746)"/><circle data-name="Ellipse 4" cx="3" cy="3" r="3" transform="rotate(90 -717.747 1185.246)"/><circle data-name="Ellipse 4" cx="3" cy="3" r="3" transform="rotate(90 -726.247 1193.746)"/><circle data-name="Ellipse 4" cx="3" cy="3" r="3" transform="rotate(90 -702.936 1136.436)"/><circle data-name="Ellipse 4" cx="3" cy="3" r="3" transform="rotate(90 -710.998 1144.498)"/><circle data-name="Ellipse 4" cx="3" cy="3" r="3" transform="rotate(90 -719.06 1152.56)"/><circle data-name="Ellipse 4" cx="3" cy="3" r="3" transform="rotate(90 -726.247 1159.746)"/><circle data-name="Ellipse 4" cx="3" cy="3" r="3" transform="rotate(90 -734.747 1168.246)"/><circle data-name="Ellipse 4" cx="3" cy="3" r="3" transform="rotate(90 -743.247 1176.746)"/></g><g fill="#fff"><path data-name="Path 212" d="M170.201 109.022h-1.1v-1.1a2.922 2.922 0 00-5.843 0v1.1h-4.216v-1.1a2.922 2.922 0 10-5.843 0v1.1h-4.21v-1.1a2.922 2.922 0 10-5.843 0v1.1h-4.212v-1.1a2.922 2.922 0 10-5.843 0v1.1h-1.1a4.938 4.938 0 00-4.932 4.932v22.28l-2.227-2.227a2.925 2.925 0 00-4.132 0l-2.844 2.844a2.925 2.925 0 000 4.132l9.2 9.2v12.038a4.938 4.938 0 004.932 4.933h30.974a.91.91 0 100-1.821H131.99a3.115 3.115 0 01-3.112-3.112v-10.213l7.427 7.427a.887.887 0 00.068.061.56.56 0 00.049.036l.023.017a.828.828 0 00.064.038l.012.007a.893.893 0 00.07.033h.01l.07.025h.014a.73.73 0 00.067.017h.02c.022 0 .044.007.066.01h5.423l1.155 1.155a.91.91 0 101.288-1.288l-1.155-1.155v-5.399c0-.023-.006-.046-.01-.069v-.017l-.017-.069v-.012c-.008-.024-.016-.048-.026-.072v-.008c-.01-.025-.022-.049-.034-.073l-.005-.009a1.48 1.48 0 00-.04-.067l-.015-.02-.038-.052a.823.823 0 00-.061-.068l-7.427-7.427h31.33a.91.91 0 000-1.821h-32.199a.907.907 0 00-.674.3l-5.455-5.455V120.9h44.435v6.209a.91.91 0 001.821 0v-13.154a4.938 4.938 0 00-4.932-4.932zm-28.474 48.859h-2.58l2.58-2.58zm-19.1-14.7l1.557-1.557 14.32 14.32-1.554 1.556zm17.167 11.479l-14.32-14.32 1.557-1.557L141.35 153.1zm-20.652-16.52l2.844-2.84a1.1 1.1 0 011.557 0l2.2 2.2-4.4 4.4-2.2-2.2a1.1 1.1 0 01-.001-1.56zm47.037-31.319a1.1 1.1 0 011.1 1.1v4.023a1.1 1.1 0 11-2.2 0v-4.022a1.1 1.1 0 011.1-1.1zm-10.055 0a1.1 1.1 0 011.1 1.1v4.023a1.1 1.1 0 11-2.2 0v-4.022a1.1 1.1 0 011.1-1.1zm-11.156 1.1a1.1 1.1 0 112.2 0v4.02a1.1 1.1 0 01-2.2 0zm-8.955-1.1a1.1 1.1 0 011.1 1.1v4.023a1.1 1.1 0 01-2.2 0v-4.022a1.1 1.1 0 011.1-1.1zm-7.135 12.257v-5.123a3.115 3.115 0 013.112-3.112h1.1v1.1a2.922 2.922 0 005.843 0v-1.1h4.209v1.1a2.922 2.922 0 105.843 0v-1.1h4.217v1.1a2.922 2.922 0 105.843 0v-1.1h4.212v1.1a2.922 2.922 0 105.843 0v-1.1h1.1a3.115 3.115 0 013.112 3.112v5.123z"/><path data-name="Path 213" d="M174.219 129.84a.91.91 0 00-.91.91v31.471a3.115 3.115 0 01-3.112 3.112h-3.6a.91.91 0 000 1.821h3.6a4.938 4.938 0 004.937-4.933V130.75a.91.91 0 00-.915-.91z"/><path data-name="Path 214" d="M135.006 126.932h32.178a.91.91 0 000-1.821h-32.178a.91.91 0 000 1.821z"/><path data-name="Path 215" d="M135.006 132.965h32.178a.91.91 0 000-1.821h-32.178a.91.91 0 000 1.821z"/><path data-name="Path 216" d="M135.006 138.999h32.178a.91.91 0 100-1.821h-32.178a.91.91 0 100 1.821z"/><path data-name="Path 217" d="M168.094 150.154a.91.91 0 00-.91-.91h-21.117a.91.91 0 000 1.821h21.117a.91.91 0 00.91-.911z"/></g></svg>