<svg xmlns="http://www.w3.org/2000/svg" width="31.2" height="19.56"><path data-name="Icon awesome-behance" d="M12.567 8.764a4.111 4.111 0 002.622-4.008C15.189.932 12.34 0 9.052 0H0v19.198h9.306c3.488 0 6.765-1.674 6.765-5.574a4.625 4.625 0 00-3.5-4.859zM4.22 3.277h3.96c1.522 0 2.893.428 2.893 2.194 0 1.63-1.067 2.286-2.573 2.286H4.22zm4.512 12.658H4.22v-5.286h4.6c1.858 0 3.033.775 3.033 2.741 0 1.939-1.4 2.546-3.12 2.546zM28.151 2.898h-7.784V1.007h7.784v1.891zm3.05 9.55c0-4.111-2.405-7.54-6.765-7.54a6.985 6.985 0 00-7.112 7.356c0 4.328 2.725 7.3 7.112 7.3a6.2 6.2 0 006.505-4.675h-3.37a3.163 3.163 0 01-3.017 1.809c-2.237 0-3.413-1.311-3.413-3.537h10.027c.016-.226.032-.47.032-.714zm-10.053-1.69a2.983 2.983 0 013.169-2.968c1.918 0 2.882 1.127 3.044 2.968z" fill="#767672"/></svg>