<svg xmlns="http://www.w3.org/2000/svg" xmlns:xlink="http://www.w3.org/1999/xlink" width="30.947" height="33.57" viewBox="0 0 30.947 33.57">
  <defs>
    <linearGradient id="linear-gradient" y1="0.504" x2="1" y2="0.504" gradientUnits="objectBoundingBox">
      <stop offset="0" stop-color="#1f8a91"/>
      <stop offset="0.533" stop-color="#44a394"/>
      <stop offset="1" stop-color="#62b796"/>
    </linearGradient>
  </defs>
  <path id="stopwatch" d="M42.056,12.046l-4.135,5.11a2.622,2.622,0,1,1-2.038-1.65L40.018,10.4a1.311,1.311,0,0,1,2.039,1.65Zm4.359-4.892a15.357,15.357,0,0,0-9.63-4.477V1.311a1.311,1.311,0,0,0-2.623,0V2.678a15.474,15.474,0,0,0-9.63,26.359,15.475,15.475,0,0,0,20.112,1.523,1.311,1.311,0,1,0-1.556-2.111,12.833,12.833,0,1,1,3.652-4.167,1.311,1.311,0,0,0,2.3,1.265A15.482,15.482,0,0,0,46.415,7.155ZM44.38,3.2l3.561,2.969a1.311,1.311,0,1,0,1.68-2.014L46.06,1.19A1.311,1.311,0,1,0,44.38,3.2ZM22.167,6.478a1.306,1.306,0,0,0,.839-.3L26.567,3.2a1.311,1.311,0,1,0-1.68-2.014L21.327,4.159a1.311,1.311,0,0,0,.841,2.318Z" transform="translate(-20)" fill="url(#linear-gradient)"/>
</svg>
