<svg xmlns="http://www.w3.org/2000/svg" width="22.016" height="22.016"><defs><linearGradient id="a" x1=".5" x2=".5" y2="1" gradientUnits="objectBoundingBox"><stop offset="0" stop-color="#4b9fa3"/><stop offset="1" stop-color="#62b796"/></linearGradient></defs><path data-name="Path 4686" d="M27.891 13.33l-2.7-1.2-1.2-2.7-2.937.307L18.664 8l-2.39 1.737-2.936-.307-1.2 2.7-2.7 1.2.307 2.937-1.733 2.389 1.733 2.391-.307 2.935 2.7 1.2 1.2 2.7 2.937-.307 2.389 1.733 2.391-1.733 2.935.307 1.2-2.7 2.7-1.2-.307-2.937 1.733-2.389-1.733-2.391zm-11.357 9.587L13.519 19.9l1-1 2.01 2.006 6.026-6.026 1 1zm0 0" transform="translate(-7.657 -7.648)" fill="url(#a)"/><g data-name="Group 3244"><path data-name="Path 4687" d="M21.947 10.8l-1.655-2.281.293-2.8a.355.355 0 00-.209-.361l-2.571-1.147-1.146-2.574a.357.357 0 00-.361-.209l-2.8.293L11.216.068a.355.355 0 00-.417 0L8.518 1.721l-2.8-.293a.36.36 0 00-.361.209L4.21 4.211 1.636 5.356a.355.355 0 00-.209.361l.293 2.8L.067 10.8a.355.355 0 000 .417L1.72 13.5l-.293 2.8a.355.355 0 00.209.361l2.574 1.145 1.145 2.574a.359.359 0 00.361.209l2.8-.293 2.281 1.653a.355.355 0 00.417 0l2.278-1.649 2.8.293a.357.357 0 00.361-.209l1.145-2.574 2.573-1.146a.355.355 0 00.209-.361l-.288-2.803 1.653-2.281a.355.355 0 000-.417zm-2.308 2.39a.354.354 0 00-.066.245l.28 2.68-2.463 1.1a.352.352 0 00-.18.18l-1.1 2.463-2.681-.28a.354.354 0 00-.245.066l-2.182 1.582-2.177-1.586a.351.351 0 00-.208-.068.231.231 0 00-.036 0l-2.681.28-1.1-2.463a.355.355 0 00-.18-.18l-2.464-1.1.28-2.68a.356.356 0 00-.066-.245L.792 11.008l1.583-2.182a.356.356 0 00.066-.245L2.161 5.9l2.462-1.1a.352.352 0 00.18-.18l1.1-2.463 2.681.28a.358.358 0 00.245-.066L11.007.794l2.185 1.582a.357.357 0 00.245.066l2.681-.28 1.1 2.463a.355.355 0 00.18.18l2.463 1.1-.28 2.68a.354.354 0 00.066.245l1.581 2.182zm0 0" fill="#1f878d"/><path data-name="Path 4688" d="M133.706 155.069a.355.355 0 00-.5 0l-5.775 5.775-1.759-1.755a.355.355 0 00-.5 0l-1.007 1a.355.355 0 000 .5l3.015 3.015a.355.355 0 00.5 0l7.031-7.031a.355.355 0 000-.5zm-6.277 7.784l-2.512-2.512.5-.5 1.759 1.756a.355.355 0 00.5 0l5.775-5.774.5.5zm0 0" transform="translate(-118.552 -148.087)" fill="url(#a)"/></g></svg>