<svg xmlns="http://www.w3.org/2000/svg" width="14.001" height="18.999" viewBox="0 0 14.001 18.999">
  <g id="lamp" transform="translate(-4.999 -5.001)">
    <path id="Path_388" data-name="Path 388" d="M15,21v1.25A1.758,1.758,0,0,1,13.25,24h-2.5A1.823,1.823,0,0,1,9,21.96V21Z" fill="#07979d"/>
    <path id="Path_389" data-name="Path 389" d="M16.41,6.56A7,7,0,1,0,7.79,17.59,3.02,3.02,0,0,1,8.93,19.5v.01A.17.17,0,0,1,9,19.5h6a.09.09,0,0,1,.05.01V19.5a3.336,3.336,0,0,1,1.28-2,7,7,0,0,0,.08-10.94Zm-.66,5.94a.755.755,0,0,1-.75-.75A2.748,2.748,0,0,0,12.25,9a.75.75,0,0,1,0-1.5,4.259,4.259,0,0,1,4.25,4.25A.755.755,0,0,1,15.75,12.5Z" fill="#07979d"/>
    <path id="Path_390" data-name="Path 390" d="M8.93,19.5H9a.17.17,0,0,0-.07.01Z" fill="#07979d"/>
    <path id="Path_391" data-name="Path 391" d="M15.05,19.5v.01A.09.09,0,0,0,15,19.5Z" fill="#07979d"/>
  </g>
</svg>
