<svg xmlns="http://www.w3.org/2000/svg" width="18.901" height="26.291" viewBox="0 0 18.901 26.291">
  <g id="medal" transform="translate(-71.962)">
    <path id="Path_357" data-name="Path 357" d="M85.618,18.425l1.2-1.951,2.17-.74.24-2.279,1.632-1.607-.776-2.157.776-2.157L89.23,5.928l-.24-2.279-2.17-.74L85.618.958l-2.274.275L81.412,0,79.481,1.233,77.207.958,76,2.909l-2.17.74-.24,2.279L71.962,7.535l.776,2.157-.776,2.157,1.632,1.607.24,2.279,2.17.74,1.2,1.951,2.274-.275,1.932,1.233,1.932-1.233ZM74.766,9.692a6.646,6.646,0,1,1,6.646,6.646A6.654,6.654,0,0,1,74.766,9.692Z" fill="#07979d"/>
    <path id="Path_358" data-name="Path 358" d="M161.695,89.333a5.1,5.1,0,1,0,5.1,5.1A5.11,5.11,0,0,0,161.695,89.333Z" transform="translate(-80.282 -84.746)" fill="#07979d"/>
    <path id="Path_359" data-name="Path 359" d="M87.227,344.693l-2.705.327L83.093,342.7l-.486-.166-2.1,6.55,3.773-.207,2.952,2.359,1.737-5.429Z" transform="translate(-8.11 -324.946)" fill="#07979d"/>
    <path id="Path_360" data-name="Path 360" d="M272.581,342.7l-1.429,2.319-2.705-.327-1.746,1.114,1.737,5.429,2.952-2.359,3.773.207-2.1-6.55Z" transform="translate(-184.739 -324.946)" fill="#07979d"/>
  </g>
</svg>
