<svg id="newspaper_1_" data-name="newspaper (1)" xmlns="http://www.w3.org/2000/svg" width="21.721" height="21.721" viewBox="0 0 21.721 21.721">
  <g id="Group_4355" data-name="Group 4355" transform="translate(0)">
    <path id="Path_491" data-name="Path 491" d="M20.945,5.43H17.067V.776A.776.776,0,0,0,16.291,0H.776A.776.776,0,0,0,0,.776V18.618a3.1,3.1,0,0,0,3.1,3.1H18.618a3.1,3.1,0,0,0,3.1-3.1V6.206A.776.776,0,0,0,20.945,5.43ZM6.206,3.879h4.655a.776.776,0,0,1,0,1.552H6.206a.776.776,0,1,1,0-1.552Zm6.982,14.739H3.879a.776.776,0,1,1,0-1.552h9.309a.776.776,0,0,1,0,1.552Zm0-3.1H3.879a.776.776,0,1,1,0-1.552h9.309a.776.776,0,0,1,0,1.552Zm0-3.1H3.879a.776.776,0,0,1,0-1.552h9.309a.776.776,0,0,1,0,1.552Zm0-3.1H3.879a.776.776,0,0,1,0-1.552h9.309a.776.776,0,0,1,0,1.552Zm6.982,9.309a1.551,1.551,0,1,1-3.1,0V6.982h3.1V18.618Z" transform="translate(0 0)" fill="#07979d"/>
  </g>
</svg>
