<svg xmlns="http://www.w3.org/2000/svg" width="23.522" height="23.522" viewBox="0 0 23.522 23.522">
  <g id="Outline2" transform="translate(-2 -2)">
    <path id="Path_453" data-name="Path 453" d="M24.738,10.625a1.176,1.176,0,0,0-1.176-1.176H23.17V8.061a2.346,2.346,0,0,0,.784-1.748V6.22L21.844,2H5.678L3.568,6.22v.093a2.346,2.346,0,0,0,.784,1.748V9.449H3.96a1.176,1.176,0,0,0-1.176,1.176V23.17H2v1.176a1.176,1.176,0,0,0,1.176,1.176h21.17a1.176,1.176,0,0,0,1.176-1.176V23.17h-.784ZM18.992,2.784h2.367L23.167,6.4a1.568,1.568,0,0,1-3.134-.088Zm-.819,0,1.076,3.583a1.569,1.569,0,0,1-3.136-.094L15.76,2.784Zm-5.626,0h2.429l.353,3.547a1.568,1.568,0,0,1-3.136.021Zm-.786,0-.353,3.528a1.568,1.568,0,1,1-3.136.054L9.348,2.784Zm-5.6,0H8.53L7.5,6.2l-.016.113A1.568,1.568,0,0,1,4.355,6.4ZM5.92,8.665A2.35,2.35,0,0,0,7.88,7.609a2.354,2.354,0,0,0,3.924.005,2.349,2.349,0,0,0,3.917,0,2.349,2.349,0,0,0,3.92,0,2.337,2.337,0,0,0,2.744.919V21.6H5.136V8.527a2.343,2.343,0,0,0,.784.137Zm-2.352,1.96a.392.392,0,0,1,.392-.392h.392V22.386H23.17V10.233h.392a.392.392,0,0,1,.392.392V23.17H3.568Zm21.17,13.721a.392.392,0,0,1-.392.392H3.176a.392.392,0,0,1-.392-.392v-.392H24.738Z" fill="#07979d"/>
    <path id="Path_454" data-name="Path 454" d="M17.815,30.625H27.5l.889-6.665H17.282L16.89,22H15v.784h1.247Zm9.675-5.88-.679,5.1H18.458l-1.019-5.1Z" transform="translate(-7.904 -12.159)" fill="#07979d"/>
    <path id="Path_455" data-name="Path 455" d="M24,45.176A1.176,1.176,0,1,0,25.176,44,1.176,1.176,0,0,0,24,45.176Zm1.176-.392a.392.392,0,1,1-.392.392A.392.392,0,0,1,25.176,44.784Z" transform="translate(-13.375 -25.535)" fill="#07979d"/>
    <path id="Path_456" data-name="Path 456" d="M39,45.176A1.176,1.176,0,1,0,40.176,44,1.176,1.176,0,0,0,39,45.176Zm1.176-.392a.392.392,0,1,1-.392.392A.392.392,0,0,1,40.176,44.784Z" transform="translate(-22.495 -25.535)" fill="#07979d"/>
  </g>
</svg>
