<svg xmlns="http://www.w3.org/2000/svg" width="17.5" height="17.5" viewBox="0 0 17.5 17.5">
  <g id="outline1" transform="translate(-1.85 -1.85)">
    <path id="Path_392" data-name="Path 392" d="M18.34,2H2.86A.86.86,0,0,0,2,2.86V15.473a.86.86,0,0,0,.86.86H8.817l-.5,2.523a.287.287,0,0,0,.281.344h4.013a.287.287,0,0,0,.281-.344l-.5-2.523H18.34a.86.86,0,0,0,.86-.86V2.86A.86.86,0,0,0,18.34,2Zm-9.4,16.627L9.4,16.333h2.4l.459,2.293Zm9.684-3.153a.287.287,0,0,1-.287.287H2.86a.287.287,0,0,1-.287-.287V14.04H18.627Zm0-2.007H2.573V2.86a.287.287,0,0,1,.287-.287H18.34a.287.287,0,0,1,.287.287Z" fill="#07979d" stroke="#07979d" stroke-width="0.3"/>
    <path id="Path_393" data-name="Path 393" d="M31,46h.573v.573H31Z" transform="translate(-20.687 -31.387)" fill="#07979d" stroke="#07979d" stroke-width="0.3"/>
    <path id="Path_394" data-name="Path 394" d="M8.3,8.951,6.293,10.957l.405.405L8.529,9.532l.948.711a.287.287,0,0,0,.375-.027l2.091-2.091,1.231,1.231a.287.287,0,0,0,.405,0l2.091-2.091L16.9,8.5a.287.287,0,0,0,.405,0l1.517-1.517V7.72H19.4V6.287A.287.287,0,0,0,19.109,6H17.676v.573h.741L17.1,7.888,15.872,6.657a.287.287,0,0,0-.405,0L13.376,8.748,12.145,7.517a.287.287,0,0,0-.405,0L9.622,9.635l-.948-.711A.287.287,0,0,0,8.3,8.951Z" transform="translate(-3.062 -2.853)" fill="#07979d" stroke="#07979d" stroke-width="0.3"/>
    <path id="Path_395" data-name="Path 395" d="M19.76,15.287A.287.287,0,0,0,19.473,15h-1.72a.287.287,0,0,0-.287.287v6.02H16.32V16.72a.287.287,0,0,0-.287-.287h-1.72a.287.287,0,0,0-.287.287v4.587H12.88V18.153a.287.287,0,0,0-.287-.287h-1.72a.287.287,0,0,0-.287.287v3.153H9.44V19.3a.287.287,0,0,0-.287-.287H7.433a.287.287,0,0,0-.287.287v2.007H6v.573H20.907v-.573H19.76ZM8.867,21.307H7.72v-1.72H8.867Zm3.44,0H11.16V18.44h1.147Zm3.44,0H14.6v-4.3h1.147Zm3.44,0H18.04V15.573h1.147Z" transform="translate(-2.853 -9.273)" fill="#07979d" stroke="#07979d" stroke-width="0.3"/>
    <path id="Path_396" data-name="Path 396" d="M56,6h.573v.573H56Z" transform="translate(-38.52 -2.853)" fill="#07979d" stroke="#07979d" stroke-width="0.3"/>
    <path id="Path_397" data-name="Path 397" d="M56,10h.573v.573H56Z" transform="translate(-38.52 -5.707)" fill="#07979d" stroke="#07979d" stroke-width="0.3"/>
    <path id="Path_398" data-name="Path 398" d="M6,6H7.72v.573H6Z" transform="translate(-2.853 -2.853)" fill="#07979d" stroke="#07979d" stroke-width="0.3"/>
    <path id="Path_399" data-name="Path 399" d="M6,10H8.58v.573H6Z" transform="translate(-2.853 -5.707)" fill="#07979d" stroke="#07979d" stroke-width="0.3"/>
  </g>
</svg>
