<svg id="pie-chart" xmlns="http://www.w3.org/2000/svg" width="18.864" height="18.864" viewBox="0 0 18.864 18.864">
  <g id="Group_4301" data-name="Group 4301" transform="translate(10.021)">
    <g id="Group_4300" data-name="Group 4300">
      <path id="Path_413" data-name="Path 413" d="M272.553,0A.552.552,0,0,0,272,.553V8.327a.552.552,0,0,0,.553.553h7.737a.552.552,0,0,0,.553-.553A8.33,8.33,0,0,0,272.553,0Z" transform="translate(-272)" fill="#07979d"/>
    </g>
  </g>
  <g id="Group_4303" data-name="Group 4303" transform="translate(0 2.247)">
    <g id="Group_4302" data-name="Group 4302">
      <path id="Path_414" data-name="Path 414" d="M11.6,76.377,8.916,69.189V61.553A.552.552,0,0,0,8.363,61a8.308,8.308,0,1,0,0,16.616,8.25,8.25,0,0,0,2.911-.527A.553.553,0,0,0,11.6,76.377Z" transform="translate(0 -61)" fill="#07979d"/>
    </g>
  </g>
  <g id="Group_4305" data-name="Group 4305" transform="translate(10.021 9.985)">
    <g id="Group_4304" data-name="Group 4304">
      <path id="Path_415" data-name="Path 415" d="M280.287,271H272.55a.553.553,0,0,0-.518.747l2.717,7.282a.553.553,0,0,0,.712.323,8.385,8.385,0,0,0,5.378-7.8A.552.552,0,0,0,280.287,271Z" transform="translate(-271.997 -271)" fill="#07979d"/>
    </g>
  </g>
</svg>
