<svg xmlns="http://www.w3.org/2000/svg" width="26.964" height="12.882" viewBox="0 0 26.964 12.882">
  <g id="seo-search-symbol" transform="translate(0 -16.796)">
    <g id="Group_4299" data-name="Group 4299" transform="translate(0 16.796)">
      <path id="Path_410" data-name="Path 410" d="M2.458,25.011a4.777,4.777,0,0,1-2.078-.516L0,26.044a5.423,5.423,0,0,0,2.348.5c2.274,0,3.344-1.18,3.344-2.569,0-1.168-.689-1.93-2.151-2.471C2.471,21.1,2,20.868,2,20.34c0-.43.393-.8,1.2-.8a3.938,3.938,0,0,1,1.733.394l.418-1.512A5.079,5.079,0,0,0,3.246,18C1.291,18,.111,19.085.111,20.5c0,1.2.9,1.967,2.274,2.446,1,.357,1.389.652,1.389,1.167C3.774,24.655,3.319,25.011,2.458,25.011Z" transform="translate(0 -17.498)" fill="#07979d"/>
      <path id="Path_411" data-name="Path 411" d="M21.886,25.075h-3.4V23.108H21.53V21.584H18.481V19.863h3.233V18.326H16.6v8.286h5.286Z" transform="translate(-9.642 -17.685)" fill="#07979d"/>
      <path id="Path_412" data-name="Path 412" d="M37.706,26.352a4.756,4.756,0,0,0,3.059-1.112l1.65,1.54a.62.62,0,0,0,.195.468l2.422,2.261a.629.629,0,0,0,.858-.92l-2.422-2.261a.622.622,0,0,0-.48-.162l-1.629-1.52a4.774,4.774,0,1,0-3.654,1.705Zm0-8.3a3.52,3.52,0,1,1-3.52,3.52A3.524,3.524,0,0,1,37.706,18.054Z" transform="translate(-19.126 -16.796)" fill="#07979d"/>
    </g>
  </g>
</svg>
