<svg xmlns="http://www.w3.org/2000/svg" width="22.983" height="20.2" viewBox="0 0 22.983 20.2">
  <g id="share" transform="translate(0 -31)">
    <path id="Path_441" data-name="Path 441" d="M107,325.272v1.861l1.861-.93Z" transform="translate(-102.197 -281.062)" fill="#07979d"/>
    <path id="Path_442" data-name="Path 442" d="M6.823,211.673A4.653,4.653,0,0,1,6.891,211H0v12.12H12.21v-6.8a4.652,4.652,0,0,1-.673.068A4.719,4.719,0,0,1,6.823,211.673Zm-3.367,8.5v-6.219l6.219,3.11Z" transform="translate(0 -171.92)" fill="#07979d"/>
    <path id="Path_443" data-name="Path 443" d="M193.447,40.427a3.349,3.349,0,0,0-2.635,1.3l-2.206-1.1a3.185,3.185,0,0,0-.125-2.134l2.6-1.731a3.4,3.4,0,1,0-.746-1.121l-2.6,1.731A3.375,3.375,0,1,0,188,41.824l2.206,1.1a3.322,3.322,0,0,0-.127.867,3.367,3.367,0,1,0,3.367-3.367Z" transform="translate(-173.83 0)" fill="#07979d"/>
  </g>
</svg>
