<svg xmlns="http://www.w3.org/2000/svg" width="20.11" height="20.11" viewBox="0 0 20.11 20.11">
  <g id="Solid" transform="translate(-8 -8)">
    <rect id="Rectangle_1222" data-name="Rectangle 1222" width="1" transform="translate(21 23.11)" fill="#07979d"/>
    <rect id="Rectangle_1223" data-name="Rectangle 1223" height="1" transform="translate(18 16.11)" fill="#07979d"/>
    <rect id="Rectangle_1224" data-name="Rectangle 1224" transform="translate(18 23.11)" fill="#07979d"/>
    <rect id="Rectangle_1225" data-name="Rectangle 1225" height="1" transform="translate(18 19.11)" fill="#07979d"/>
    <path id="Path_425" data-name="Path 425" d="M14.284,39.608a.419.419,0,0,1,.123-.3l.542-.542-.542-.542a.419.419,0,0,1-.123-.3V35H8v5.865h6.284ZM8.838,35.838h.838v.838H8.838Zm4.608,4.19H8.838V39.19h4.608Zm0-1.676H8.838v-.838h4.608Zm0-1.676H10.514v-.838h2.933Z" transform="translate(0 -15.688)" fill="#07979d"/>
    <rect id="Rectangle_1226" data-name="Rectangle 1226" width="1" height="1" transform="translate(14 12.11)" fill="#07979d"/>
    <rect id="Rectangle_1227" data-name="Rectangle 1227" width="1" height="1" transform="translate(14 16.11)" fill="#07979d"/>
    <rect id="Rectangle_1228" data-name="Rectangle 1228" height="1" transform="translate(18 12.11)" fill="#07979d"/>
    <path id="Path_426" data-name="Path 426" d="M40.078,15v1.257a.419.419,0,0,1-.123.3l-.542.542.542.542a.419.419,0,0,1,.123.3v2.933h6.284V15Zm5.215,3.31-3.352,1.676a.419.419,0,0,1-.606-.377V16.257a.419.419,0,0,1,.606-.375l3.352,1.676a.419.419,0,0,1,0,.75Z" transform="translate(-18.253 -4.067)" fill="#07979d"/>
    <rect id="Rectangle_1229" data-name="Rectangle 1229" width="1" height="1" transform="translate(21 19.11)" fill="#07979d"/>
    <path id="Path_427" data-name="Path 427" d="M46,21.614l2-1-2-1Z" transform="translate(-22.08 -6.751)" fill="#07979d"/>
    <path id="Path_428" data-name="Path 428" d="M27.379,17.217V14.039l-.715-.715a.419.419,0,0,1,0-.592l.715-.715v-1.5a.419.419,0,0,1,.419-.419h2.095V8.838A.838.838,0,0,0,29.055,8H19.838A.838.838,0,0,0,19,8.838v9.636h2.095a.419.419,0,0,1,.419.419v3.178l.715.715a.419.419,0,0,1,0,.592l-.715.715v1.5a.419.419,0,0,1-.419.419H19v1.257a.838.838,0,0,0,.838.838h9.217a.838.838,0,0,0,.838-.838V17.636H27.8A.419.419,0,0,1,27.379,17.217Zm-5.027,0a.419.419,0,0,1-.419.419H20.257a.419.419,0,0,1-.419-.419V15.541a.419.419,0,0,1,.419-.419h1.676a.419.419,0,0,1,.419.419Zm0-3.352a.419.419,0,0,1-.419.419H20.257a.419.419,0,0,1-.419-.419V12.19a.419.419,0,0,1,.419-.419h1.676a.419.419,0,0,1,.419.419Zm2.514,13.406h-.838v-.838h.838ZM25.7,23.92a.419.419,0,0,1-.419.419H23.608a.419.419,0,0,1-.419-.419V22.244a.419.419,0,0,1,.419-.419h1.676a.419.419,0,0,1,.419.419Zm0-3.352a.419.419,0,0,1-.419.419H23.608a.419.419,0,0,1-.419-.419V18.893a.419.419,0,0,1,.419-.419h1.676a.419.419,0,0,1,.419.419Zm0-3.352a.419.419,0,0,1-.419.419H23.608a.419.419,0,0,1-.419-.419V15.541a.419.419,0,0,1,.419-.419h1.676a.419.419,0,0,1,.419.419Zm0-3.352a.419.419,0,0,1-.419.419H23.608a.419.419,0,0,1-.419-.419V12.19a.419.419,0,0,1,.419-.419h1.676a.419.419,0,0,1,.419.419Zm0-4.19H23.19V8.838H25.7ZM29.055,23.92a.419.419,0,0,1-.419.419H26.96a.419.419,0,0,1-.419-.419V22.244a.419.419,0,0,1,.419-.419h1.676a.419.419,0,0,1,.419.419Zm0-5.027v1.676a.419.419,0,0,1-.419.419H26.96a.419.419,0,0,1-.419-.419V18.893a.419.419,0,0,1,.419-.419h1.676A.419.419,0,0,1,29.055,18.893Z" transform="translate(-6.392)" fill="#07979d"/>
  </g>
</svg>
