<svg xmlns="http://www.w3.org/2000/svg" width="29.286" height="29.286" viewBox="0 0 29.286 29.286">
  <g id="solution" transform="translate(0.25 0.25)">
    <g id="XMLID_30_">
      <g id="Group_4327" data-name="Group 4327">
        <g id="Group_4320" data-name="Group 4320" transform="translate(1.802 1.802)">
          <path id="Path_435" data-name="Path 435" d="M32.69,35.419h-.849V31.84h2.227v.849H32.69Z" transform="translate(-31.841 -31.84)" fill="#07979d" stroke="#07979d" stroke-width="0.5"/>
        </g>
        <g id="Group_4321" data-name="Group 4321" transform="translate(1.802 8.085)">
          <rect id="Rectangle_1230" data-name="Rectangle 1230" width="0.849" height="0.901" fill="#07979d" stroke="#07979d" stroke-width="0.5"/>
        </g>
        <g id="Group_4322" data-name="Group 4322" transform="translate(23.405 18.024)">
          <path id="Path_436" data-name="Path 436" d="M417.044,320.631h-.849v-1.378h-2.73V318.4h3.579Z" transform="translate(-413.465 -318.404)" fill="#07979d" stroke="#07979d" stroke-width="0.5"/>
        </g>
        <g id="Group_4323" data-name="Group 4323" transform="translate(19.8 18.024)">
          <rect id="Rectangle_1231" data-name="Rectangle 1231" width="0.901" height="0.849" fill="#07979d" stroke="#07979d" stroke-width="0.5"/>
        </g>
        <g id="Group_4324" data-name="Group 4324" transform="translate(26.108 24.332)">
          <rect id="Rectangle_1232" data-name="Rectangle 1232" width="0.901" height="0.849" fill="#07979d" stroke="#07979d" stroke-width="0.5"/>
        </g>
        <g id="Group_4325" data-name="Group 4325">
          <path id="Path_437" data-name="Path 437" d="M12.564,12.564V8.111H12.14a1.828,1.828,0,1,1,0-3.657h.425V0H7.183V.849h4.532V3.638a2.678,2.678,0,0,0,0,5.288v2.789h-3.6v.425a1.828,1.828,0,0,1-3.657,0v-.425H.849V.849H5.832V0H0V12.564H3.638a2.678,2.678,0,0,0,5.288,0h3.638Z" fill="#07979d" stroke="#07979d" stroke-width="0.5"/>
          <rect id="Rectangle_1233" data-name="Rectangle 1233" width="0.849" height="0.901" transform="translate(1.802 6.282)" fill="#07979d" stroke="#07979d" stroke-width="0.5"/>
          <rect id="Rectangle_1234" data-name="Rectangle 1234" width="0.849" height="0.901" transform="translate(1.802 9.887)" fill="#07979d" stroke="#07979d" stroke-width="0.5"/>
          <path id="Path_438" data-name="Path 438" d="M261.58,290.592v-4.029H249.016V290.2a2.678,2.678,0,0,0,0,5.288v3.638h4.454V298.7a1.828,1.828,0,1,1,3.657,0v.425h4.454v-7.183h-.849v6.334h-2.789a2.678,2.678,0,0,0-5.288,0h-2.789v-3.6h-.425a1.828,1.828,0,0,1,0-3.657h.425v-3.6h10.866v3.18h.849Z" transform="translate(-232.795 -270.342)" fill="#07979d" stroke="#07979d" stroke-width="0.5"/>
          <rect id="Rectangle_1235" data-name="Rectangle 1235" width="0.901" height="0.849" transform="translate(21.602 18.024)" fill="#07979d" stroke="#07979d" stroke-width="0.5"/>
          <rect id="Rectangle_1236" data-name="Rectangle 1236" width="0.901" height="0.849" transform="translate(17.998 18.024)" fill="#07979d" stroke="#07979d" stroke-width="0.5"/>
          <path id="Path_439" data-name="Path 439" d="M155.966,245.429v-7.086h-.849v7.086l-1.078-1.078-.6.6,2.1,2.1,2.1-2.1-.6-.6Z" transform="translate(-144.753 -224.851)" fill="#07979d" stroke="#07979d" stroke-width="0.5"/>
          <path id="Path_440" data-name="Path 440" d="M282.478,117.92v7.086h.849V117.92L284.4,119l.6-.6-2.1-2.1-2.1,2.1.6.6Z" transform="translate(-264.905 -109.712)" fill="#07979d" stroke="#07979d" stroke-width="0.5"/>
          <rect id="Rectangle_1237" data-name="Rectangle 1237" width="0.901" height="0.849" transform="translate(12.14 13.518)" fill="#07979d" stroke="#07979d" stroke-width="0.5"/>
          <rect id="Rectangle_1238" data-name="Rectangle 1238" width="0.901" height="0.849" transform="translate(12.14 15.32)" fill="#07979d" stroke="#07979d" stroke-width="0.5"/>
          <rect id="Rectangle_1239" data-name="Rectangle 1239" width="0.901" height="0.849" transform="translate(13.942 13.518)" fill="#07979d" stroke="#07979d" stroke-width="0.5"/>
          <rect id="Rectangle_1240" data-name="Rectangle 1240" width="0.901" height="0.849" transform="translate(19.349 14.419)" fill="#07979d" stroke="#07979d" stroke-width="0.5"/>
          <rect id="Rectangle_1241" data-name="Rectangle 1241" width="0.901" height="0.849" transform="translate(19.349 12.616)" fill="#07979d" stroke="#07979d" stroke-width="0.5"/>
          <rect id="Rectangle_1242" data-name="Rectangle 1242" width="0.901" height="0.849" transform="translate(21.152 14.419)" fill="#07979d" stroke="#07979d" stroke-width="0.5"/>
          <rect id="Rectangle_1243" data-name="Rectangle 1243" width="0.901" height="0.849" transform="translate(26.108 26.134)" fill="#07979d" stroke="#07979d" stroke-width="0.5"/>
          <rect id="Rectangle_1244" data-name="Rectangle 1244" width="0.901" height="0.849" transform="translate(9.887 9.913)" fill="#07979d" stroke="#07979d" stroke-width="0.5"/>
        </g>
        <g id="Group_4326" data-name="Group 4326" transform="translate(8.085 9.913)">
          <rect id="Rectangle_1245" data-name="Rectangle 1245" width="0.901" height="0.849" fill="#07979d" stroke="#07979d" stroke-width="0.5"/>
        </g>
      </g>
    </g>
  </g>
</svg>
