<svg xmlns="http://www.w3.org/2000/svg" width="16.021" height="16.021" viewBox="0 0 16.021 16.021">
  <g id="tag_1_" data-name="tag (1)" transform="translate(0 0)">
    <path id="Path_406" data-name="Path 406" d="M14.352,0H10.118a2.985,2.985,0,0,0-2.125.88L.569,8.3a1.945,1.945,0,0,0,0,2.75l4.4,4.4a1.945,1.945,0,0,0,2.75,0l7.425-7.425a3.025,3.025,0,0,0,.88-2.124V1.669A1.669,1.669,0,0,0,14.352,0Zm-2,5.34a1.669,1.669,0,1,1,1.669-1.669A1.669,1.669,0,0,1,12.349,5.34Z" transform="translate(0 0)" fill="#07979d"/>
    <g id="Group_4298" data-name="Group 4298" transform="translate(4.005 6.008)">
      <path id="Path_407" data-name="Path 407" d="M213.656,198.008a.334.334,0,0,1-.334-.334v-5.34a.334.334,0,1,1,.668,0v5.34A.334.334,0,0,1,213.656,198.008Z" transform="translate(-210.652 -192)" fill="#fafafa"/>
      <path id="Path_408" data-name="Path 408" d="M128.99,236.67a1,1,0,1,1,1-1A1,1,0,0,1,128.99,236.67Zm0-1.335a.334.334,0,1,0,.334.334A.334.334,0,0,0,128.99,235.335Z" transform="translate(-127.989 -233.332)" fill="#fafafa"/>
      <path id="Path_409" data-name="Path 409" d="M256.99,279.337a1,1,0,1,1,1-1,1,1,0,0,1-1,1Zm0-1.335a.334.334,0,1,0,.334.334A.334.334,0,0,0,256.99,278Z" transform="translate(-251.984 -274.664)" fill="#fafafa"/>
    </g>
  </g>
</svg>
