<svg id="vr-gaming" xmlns="http://www.w3.org/2000/svg" width="20.31" height="20.31" viewBox="0 0 20.31 20.31">
  <path id="Path_309" data-name="Path 309" d="M108.566,3.57h2.38a.6.6,0,0,0,.6-.6V.6a.6.6,0,0,0-.6-.6h-2.38a.6.6,0,0,0-.6.6v.6h-1.785a.6.6,0,0,0-.6.6V5.95h-1.864V4.562a.793.793,0,0,0-.793-.793h-7.14A.793.793,0,0,0,95,4.562V6.743a.793.793,0,0,0,.793.793h1.551a1.982,1.982,0,0,0,1.261-.449l.379-.313a.6.6,0,0,1,.758,0l.379.313a1.983,1.983,0,0,0,1.261.449h1.551a.792.792,0,0,0,.686-.4h1.971v4.165a.6.6,0,0,0,.6.6h1.785v.6a.6.6,0,0,0,.6.6h2.38a.6.6,0,0,0,.6-.6v-2.38a.6.6,0,0,0-.6-.6h-2.38a.6.6,0,0,0-.6.6v.6h-1.19V7.14h1.19v.6a.6.6,0,0,0,.6.6h2.38a.6.6,0,0,0,.6-.6V5.355a.6.6,0,0,0-.6-.6h-2.38a.6.6,0,0,0-.6.6v.6h-1.19V2.38h1.19v.6a.6.6,0,0,0,.6.6Z" transform="translate(-91.232)" fill="#07979d"/>
  <path id="Path_310" data-name="Path 310" d="M107.735,2.578a1.976,1.976,0,0,1,.6.091V2.578A2.581,2.581,0,0,0,105.752,0h-3.173A2.581,2.581,0,0,0,100,2.578V2.67a1.976,1.976,0,0,1,.6-.091Z" transform="translate(-96.033)" fill="#07979d"/>
  <path id="Path_311" data-name="Path 311" d="M109.064,202.446a1.976,1.976,0,0,1-.563.082H106.95a3.16,3.16,0,0,1-2.019-.722,3.16,3.16,0,0,1-2.019.722H101.36a1.976,1.976,0,0,1-.563-.082,4.165,4.165,0,0,0,8.267,0Zm-2.756,1.494a1.95,1.95,0,0,1-2.755,0,.6.6,0,1,1,.841-.841.759.759,0,0,0,1.072,0,.6.6,0,1,1,.841.841Z" transform="translate(-96.799 -193.801)" fill="#07979d"/>
  <path id="Path_312" data-name="Path 312" d="M165,333.939v.835a1.587,1.587,0,0,0,3.173,0v-.835a5.356,5.356,0,0,1-3.173,0Z" transform="translate(-158.455 -320.692)" fill="#07979d"/>
  <path id="Path_313" data-name="Path 313" d="M13.761,338.237l-2.852-.761v.7a2.777,2.777,0,1,1-5.553,0v-.7l-2.852.761A3.376,3.376,0,0,0,0,341.494v2.31a.6.6,0,0,0,.6.595H2.777v-2.261a.6.6,0,1,1,1.19,0V344.4H12.3v-2.261a.6.6,0,1,1,1.19,0V344.4h2.182a.6.6,0,0,0,.6-.595v-2.31A3.376,3.376,0,0,0,13.761,338.237Z" transform="translate(0 -324.089)" fill="#07979d"/>
</svg>
