<svg id="web-search-engine" xmlns="http://www.w3.org/2000/svg" width="20.2" height="20.2" viewBox="0 0 20.2 20.2">
  <path id="Path_314" data-name="Path 314" d="M19.7,6.25V18.244a2.353,2.353,0,0,1-1.885,2.315H2.648A2.353,2.353,0,0,1,.83,18.8V6.25Z" transform="translate(-0.131 -0.99)" fill="#fff"/>
  <path id="Path_315" data-name="Path 315" d="M2.99,23H18.157a2.264,2.264,0,0,1-.48.05H3.47A2.264,2.264,0,0,1,2.99,23Z" transform="translate(-0.473 -3.642)" fill="#607d8b"/>
  <path id="Path_316" data-name="Path 316" d="M18,5.081V5.7H.811V18.06a2.6,2.6,0,0,1-.061-.547V5.081A2.249,2.249,0,0,1,2.9,2.75H15.849A2.249,2.249,0,0,1,18,5.081Z" transform="translate(-0.119 -0.435)" fill="#07979d"/>
  <path id="Path_317" data-name="Path 317" d="M16.327.75A3.577,3.577,0,1,0,19.9,4.327,3.582,3.582,0,0,0,16.327.75Z" transform="translate(-2.019 -0.119)" fill="#fff"/>
  <path id="Path_318" data-name="Path 318" d="M16.208,8.417a4.208,4.208,0,1,1,4.208-4.208A4.213,4.213,0,0,1,16.208,8.417Zm0-7.154a2.946,2.946,0,1,0,2.946,2.946A2.949,2.949,0,0,0,16.208,1.262Z" transform="translate(-1.9)" fill="#07979d"/>
  <path id="Path_319" data-name="Path 319" d="M22.685,11.316a.626.626,0,0,1-.446-.185L19.867,8.759a.631.631,0,0,1,.893-.893l2.372,2.372a.632.632,0,0,1-.447,1.078Z" transform="translate(-3.117 -1.216)" fill="#07979d"/>
  <path id="Path_320" data-name="Path 320" d="M17.885,20.516H2.315A2.316,2.316,0,0,1,0,18.2V4.315A2.316,2.316,0,0,1,2.315,2h6.2a.631.631,0,0,1,0,1.262h-6.2A1.054,1.054,0,0,0,1.262,4.315V18.2a1.054,1.054,0,0,0,1.052,1.052H17.885A1.054,1.054,0,0,0,18.937,18.2V12.31a.631.631,0,0,1,1.262,0V18.2A2.316,2.316,0,0,1,17.885,20.516Z" transform="translate(0 -0.317)" fill="#07979d"/>
  <path id="Path_322" data-name="Path 322" d="M13.631,18.708a.632.632,0,0,1-.479-1.043l.91-1.061-.911-1.062a.632.632,0,0,1,.959-.822l1.262,1.473a.632.632,0,0,1,0,.822L14.11,18.488A.629.629,0,0,1,13.631,18.708Z" transform="translate(-2.058 -2.296)" fill="#07979d"/>
  <path id="Path_323" data-name="Path 323" d="M6.894,18.708a.632.632,0,0,1-.48-.221L5.151,17.015a.632.632,0,0,1,0-.822L6.414,14.72a.632.632,0,1,1,.959.822L6.463,16.6l.911,1.062a.631.631,0,0,1-.48,1.042Z" transform="translate(-0.792 -2.296)" fill="#07979d"/>
  <path id="Path_324" data-name="Path 324" d="M9.631,19.733a.592.592,0,0,1-.142-.017.632.632,0,0,1-.474-.757l1.262-5.471a.631.631,0,0,1,1.23.284l-1.262,5.471A.63.63,0,0,1,9.631,19.733Z" transform="translate(-1.425 -2.058)" fill="#07979d"/>
</svg>
