<svg xmlns="http://www.w3.org/2000/svg" width="21.221" height="21.224" viewBox="0 0 21.221 21.224">
  <g id="wordpress-circular-logo" transform="translate(-0.001)">
    <path id="Path_480" data-name="Path 480" d="M0,10.612a10.616,10.616,0,0,0,5.981,9.551L.92,6.294A10.592,10.592,0,0,0,0,10.612Zm17.776-.537A5.581,5.581,0,0,0,16.9,7.15,4.98,4.98,0,0,1,15.86,4.661a1.839,1.839,0,0,1,1.782-1.883c.046,0,.091.005.138.008a10.609,10.609,0,0,0-16.033,2C2,4.792,3.9,4.72,3.9,4.72L7.976,17.131,10.3,10.166l-1.893-5.5h3.509l4,12.382,1.06-3.538A9.9,9.9,0,0,0,17.777,10.076ZM10.8,11.541,7.614,20.792a10.626,10.626,0,0,0,6.522-.168,1.03,1.03,0,0,1-.077-.147Zm9.125-6.02A8.023,8.023,0,0,1,20,6.613a10,10,0,0,1-.809,3.8l-3.24,9.371A10.617,10.617,0,0,0,19.924,5.521Z" fill="#07979d"/>
  </g>
</svg>
