<svg xmlns="http://www.w3.org/2000/svg" width="17.564" height="21.493" viewBox="0 0 17.564 21.493">
  <g id="XMLID_228_" transform="translate(-27.875)">
    <path id="XMLID_229_" d="M28.782,75.125c-1.817,3.153-.662,7.938,1.347,10.84,1,1.451,2.018,2.753,3.409,2.753l.079,0a4.21,4.21,0,0,0,1.582-.422,4.333,4.333,0,0,1,1.874-.444,4.075,4.075,0,0,1,1.784.43,3.78,3.78,0,0,0,1.709.41c1.567-.029,2.529-1.434,3.377-2.674a11.851,11.851,0,0,0,1.48-3.031l.006-.019a.176.176,0,0,0-.094-.216l-.013-.005A4.491,4.491,0,0,1,42.6,78.631a4.623,4.623,0,0,1,2.184-3.864l.017-.011a.176.176,0,0,0,.05-.247,5.084,5.084,0,0,0-4-2.171c-.114-.011-.231-.017-.349-.017A6.97,6.97,0,0,0,38,72.947a4.034,4.034,0,0,1-1.2.359,3.933,3.933,0,0,1-1.243-.364,6.025,6.025,0,0,0-2.192-.557H33.3A5.374,5.374,0,0,0,28.782,75.125Z" transform="translate(0 -67.224)" fill="#07979d"/>
    <path id="XMLID_230_" d="M153.642,0a4.907,4.907,0,0,0-3.24,1.662,4.6,4.6,0,0,0-1.164,3.409.176.176,0,0,0,.161.152c.075.006.152.009.228.009a4.151,4.151,0,0,0,3.058-1.568A4.848,4.848,0,0,0,153.824.157.177.177,0,0,0,153.642,0Z" transform="translate(-112.785 0)" fill="#07979d"/>
  </g>
</svg>
